<svg xmlns="http://www.w3.org/2000/svg" width="14.653" height="14.653" viewBox="0 0 14.653 14.653">
  <g id="icons_utility_download-copy" data-name="icons/utility/download-copy" transform="translate(-0.615 -0.615)">
    <path id="Mask" d="M14.811,9.468h-.916a.47.47,0,0,0-.458.458v3.053a.469.469,0,0,1-.458.458H2.9a.469.469,0,0,1-.458-.458V9.926a.47.47,0,0,0-.458-.458H1.073a.47.47,0,0,0-.458.458v4.121a1.225,1.225,0,0,0,1.221,1.221H14.048a1.225,1.225,0,0,0,1.221-1.221V9.926A.47.47,0,0,0,14.811,9.468ZM7.637,11.483a.443.443,0,0,0,.641,0L12.4,7.362a.443.443,0,0,0,0-.641l-.641-.641a.443.443,0,0,0-.641,0l-1.71,1.71a.305.305,0,0,1-.519-.214v-6.5A.549.549,0,0,0,8.4.615H7.484a.47.47,0,0,0-.458.458V7.545a.305.305,0,0,1-.519.214L4.8,6.049a.443.443,0,0,0-.641,0l-.641.672a.443.443,0,0,0,0,.641l4.121,4.121Z" transform="translate(0 0)" fill="#0070d2"/>
  </g>
</svg>
