<svg xmlns="http://www.w3.org/2000/svg" width="12" height="9.535" viewBox="0 0 12 9.535">
  <g id="icons_utility_back-copy" data-name="icons/utility/back-copy" transform="translate(-0.615 -0.846)">
    <path id="Mask" d="M12.265,4.863H3.956a.25.25,0,0,1-.175-.425l2.4-2.4a.363.363,0,0,0,0-.526L5.633.959a.363.363,0,0,0-.526,0l-4.38,4.4a.363.363,0,0,0,0,.526l4.38,4.38a.363.363,0,0,0,.526,0l.526-.526a.363.363,0,0,0,0-.526l-2.4-2.4a.266.266,0,0,1,.175-.45H12.24a.364.364,0,0,0,.375-.35V5.263a.387.387,0,0,0-.35-.4Z" transform="translate(0)" fill="#54698d"/>
  </g>
</svg>
