<svg xmlns="http://www.w3.org/2000/svg" xmlns:xlink="http://www.w3.org/1999/xlink" width="19.197" height="38.711" viewBox="0 0 19.197 38.711">
  <defs>
    <clipPath id="clip-path">
      <rect id="Rectangle_11884" data-name="Rectangle 11884" width="19.197" height="19.193" fill="#54698d"/>
    </clipPath>
  </defs>
  <g id="Group_6467" data-name="Group 6467" transform="translate(-3748 -2163.8)">
    <g id="Group_6468" data-name="Group 6468" transform="translate(3748 2163.8)">
      <g id="Group_6467-2" data-name="Group 6467" clip-path="url(#clip-path)">
        <path id="Path_15892" data-name="Path 15892" d="M9.277,0H9.81c.219.016.439.028.657.049A9.473,9.473,0,0,1,13.182.72a9.648,9.648,0,0,1,4.635,3.986,9.3,9.3,0,0,1,1.338,4.163q.021.259.041.518v.533a1.051,1.051,0,0,0-.019.125,9.318,9.318,0,0,1-.486,2.628,9.558,9.558,0,0,1-8.449,6.5,9.352,9.352,0,0,1-3.091-.31,9.481,9.481,0,0,1-4.276-2.468A9.48,9.48,0,0,1,.025,10.2,9.146,9.146,0,0,1,.5,6.538,9.434,9.434,0,0,1,4.517,1.451,9.335,9.335,0,0,1,8.811.04c.155-.012.31-.027.465-.04M9.6,13.011q0,2.021,0,4.042A.307.307,0,0,0,9.6,17.1a7.5,7.5,0,0,0,6.021-11.96A7.423,7.423,0,0,0,9.6,2.082c0,.036-.006.05-.006.064q0,2.021,0,4.042a3.412,3.412,0,1,0,0,6.824" transform="translate(0.001)" fill="#54698d"/>
        <path id="Path_15893" data-name="Path 15893" d="M449.347,296.453q0-1.4,0-2.8,0-2.014,0-4.027a3.412,3.412,0,0,1,.749,6.74,6.019,6.019,0,0,1-.749.089" transform="translate(-439.751 -283.439)" fill="#54698d"/>
      </g>
    </g>
    <g id="icons_utility_sort-copy" data-name="icons/utility/sort-copy" transform="translate(3765.416 2187.153) rotate(90)">
      <path id="Mask" d="M8.446,4.938a.446.446,0,0,0,0-.646L4.938.754a.446.446,0,0,0-.646,0L.754,4.292a.446.446,0,0,0,0,.646l.646.646a.446.446,0,0,0,.646,0L3.154,4.477a.308.308,0,0,1,.523.215v6.523a.473.473,0,0,0,.462.462h.923a.5.5,0,0,0,.462-.462V4.692a.308.308,0,0,1,.523-.215L7.154,5.585a.446.446,0,0,0,.646,0l.646-.646Zm6.769,6.154-.646-.615a.446.446,0,0,0-.646,0l-1.108,1.108a.308.308,0,0,1-.523-.215V4.785a.473.473,0,0,0-.462-.462h-.923a.5.5,0,0,0-.462.462v6.523a.308.308,0,0,1-.523.215L8.815,10.415a.446.446,0,0,0-.646,0l-.646.677a.446.446,0,0,0,0,.646l3.538,3.538a.446.446,0,0,0,.646,0l3.538-3.538a.474.474,0,0,0-.031-.646Z" fill="#54698d"/>
    </g>
  </g>
</svg>
