<svg xmlns="http://www.w3.org/2000/svg" width="14.769" height="14.769" viewBox="0 0 14.769 14.769">
  <g id="icons_utility_clear" data-name="icons/utility/clear" transform="translate(-0.615 -0.615)">
    <path id="Mask" d="M8,.615A7.385,7.385,0,1,0,15.385,8,7.367,7.367,0,0,0,8,.615ZM9.508,8.246l2.4,2.4a.3.3,0,0,1,0,.431l-.862.862a.3.3,0,0,1-.431,0l-2.4-2.4a.3.3,0,0,0-.431,0l-2.4,2.4a.3.3,0,0,1-.431,0l-.862-.862a.3.3,0,0,1,0-.431l2.4-2.4a.3.3,0,0,0,0-.431L4.062,5.385a.3.3,0,0,1,0-.431l.862-.862a.3.3,0,0,1,.431,0L7.785,6.523a.3.3,0,0,0,.431,0l2.4-2.4a.3.3,0,0,1,.431,0l.862.862a.3.3,0,0,1,0,.431l-2.4,2.4a.37.37,0,0,0,0,.431Z" fill="#fff"/>
  </g>
</svg>
