<svg id="Identity" xmlns="http://www.w3.org/2000/svg" xmlns:xlink="http://www.w3.org/1999/xlink" width="32" height="32" viewBox="0 0 32 32">
  <defs>
    <clipPath id="clip-path">
      <path id="_Icon_Color" data-name="🎨 Icon Color" d="M16.615,18.462H1.846A1.871,1.871,0,0,1,0,16.615v-.846c0-2.171,2.44-3.538,5.077-4.692l.116-.058.116-.058a.7.7,0,0,1,.259-.054A.612.612,0,0,1,5.885,11a5.957,5.957,0,0,0,3.308,1A6.146,6.146,0,0,0,12.5,11a.609.609,0,0,1,.317-.092.7.7,0,0,1,.259.054l.115.058,0,0,.11.055a16.3,16.3,0,0,1,3.529,1.9,3.53,3.53,0,0,1,1.625,2.793v.846A1.871,1.871,0,0,1,16.615,18.462ZM9.231,10.154A4.333,4.333,0,0,1,5.99,8.668,5.341,5.341,0,0,1,4.654,5.077,5.34,5.34,0,0,1,5.99,1.486a4.277,4.277,0,0,1,6.481,0,5.34,5.34,0,0,1,1.336,3.591,5.341,5.341,0,0,1-1.336,3.592A4.333,4.333,0,0,1,9.231,10.154Z" fill="#706e6b"/>
    </clipPath>
  </defs>
  <g id="Circle">
    <g id="circle_image_medium" data-name="circle image medium">
      <circle id="_Circle_Color" data-name="🎨 Circle Color" cx="16" cy="16" r="16" fill="#62b7ed"/>
      <g id="user" transform="translate(6.769 6.769)">
        <g id="Group_11" data-name="Group 11">
          <path id="_Icon_Color-2" data-name="🎨 Icon Color" d="M16.615,18.462H1.846A1.871,1.871,0,0,1,0,16.615v-.846c0-2.171,2.44-3.538,5.077-4.692l.116-.058.116-.058a.7.7,0,0,1,.259-.054A.612.612,0,0,1,5.885,11a5.957,5.957,0,0,0,3.308,1A6.146,6.146,0,0,0,12.5,11a.609.609,0,0,1,.317-.092.7.7,0,0,1,.259.054l.115.058,0,0,.11.055a16.3,16.3,0,0,1,3.529,1.9,3.53,3.53,0,0,1,1.625,2.793v.846A1.871,1.871,0,0,1,16.615,18.462ZM9.231,10.154A4.333,4.333,0,0,1,5.99,8.668,5.341,5.341,0,0,1,4.654,5.077,5.34,5.34,0,0,1,5.99,1.486a4.277,4.277,0,0,1,6.481,0,5.34,5.34,0,0,1,1.336,3.591,5.341,5.341,0,0,1-1.336,3.592A4.333,4.333,0,0,1,9.231,10.154Z" fill="#fff"/>
        </g>
      </g>
    </g>
  </g>
</svg>
