<?xml version="1.0" encoding="utf-8"?>
 <svg xmlns="http://www.w3.org/2000/svg" id="hyundai-select-used-vehicles" width="11" height="9.527" viewBox="0 0 11 9.527">
  <g id="icons_utility_breadcrumbs" data-name="icons/utility/breadcrumbs" transform="translate(-0.462 -0.077)">
    <path id="Mask" d="M.757,9.569a.279.279,0,0,1-.3-.3V.373a.279.279,0,0,1,.3-.3h2.4a.546.546,0,0,1,.355.148l3.43,4.317a.489.489,0,0,1,0,.562L3.478,9.421a.477.477,0,0,1-.384.177L.757,9.569ZM11.373,4.542,7.913.254A.428.428,0,0,0,7.292.2l-.68.562a.409.409,0,0,0-.059.621l2.809,3.46L6.553,8.327a.458.458,0,0,0,.059.621l.68.562a.458.458,0,0,0,.621-.059l3.46-4.317a.532.532,0,0,0,0-.591Z" transform="translate(0)" fill="#fff"/>
  </g>
</svg>
<svg id="Inventory_LeftNav" data-name="Inventory_LeftNav" xmlns="http://www.w3.org/2000/svg" width="17.977" height="12.219" viewBox="0 0 17.977 12.219">
  <g id="Inventory" transform="translate(-453 -298)">
    <path id="Path_16111" data-name="Path 16111" d="M10.208,6.474c-.086-.272-.173-.544-.271-.811a.6.6,0,0,0-.424-.392A3.287,3.287,0,0,0,9.076,5.2c-.2-.025-.41-.044-.616-.06-.189-.016-.378-.027-.567-.037s-.352-.017-.527-.024c-.116,0-.232-.009-.349-.011-.219,0-.439-.01-.658-.01s-.443,0-.664.009l-.536.012-.421.012c-.054,0-.107.009-.161.012l-.521.026c-.113.006-.226.013-.339.024-.134.013-.268.03-.4.048s-.275.031-.408.061a.566.566,0,0,0-.381.279,3.278,3.278,0,0,0-.2.478c-.068.195-.126.393-.184.592q-.1.329-.182.662c-.045.175-.084.351-.126.529a.564.564,0,0,0-.455-.222c-.281-.009-.564,0-.846.008a.545.545,0,0,0-.474.324A1.406,1.406,0,0,0,0,8.065v.218c0,.006.01.011.012.018a.606.606,0,0,0,.31.4.659.659,0,0,0,.353.065c.093,0,.187,0,.285,0-.046.07-.09.131-.129.2a1.21,1.21,0,0,0-.2.6c-.01.555-.006,1.11-.006,1.665s0,1.106,0,1.658a.3.3,0,0,0,.287.314q.9,0,1.792,0a.247.247,0,0,0,.236-.138.514.514,0,0,0,.049-.179c.008-.1,0-.2,0-.307H5.918V11.567a.543.543,0,0,1-.476-.306c-.253,0-.707,0-.838,0a.32.32,0,0,1-.3-.361.331.331,0,0,1,.348-.29h.615a.882.882,0,0,1,.905-.877c.086,0,.748-.012.861-.011.348-1.377.29-1.5.755-2.06-.057,0-.048,0-.105-.006-.122-.005-.244-.01-.366-.013q-.347-.008-.694-.012c-.336,0-.672-.01-1.008-.011-.14,0-.281.006-.421.011-.188.007-.376.013-.563.025q-.307.019-.613.048c-.211.021-.422.043-.632.073s-.429.072-.644.107c-.1.017-.207.031-.319.047.014-.071.025-.142.042-.211.042-.174.084-.348.132-.52.064-.231.13-.461.2-.689.062-.2.134-.395.2-.593a.135.135,0,0,1,.123-.1c.156-.018.312-.036.468-.05.21-.018.42-.033.63-.047s.406-.028.61-.036c.3-.011.6-.018.9-.025.229,0,.458-.01.687-.01s.43,0,.645.01.421.014.631.024c.146.006.291.014.436.025.169.013.336.032.5.047.14.013.281.022.422.036.092.009.183.021.275.037.054.009.067.059.081.1.054.156.111.312.157.471.084.293.166.587.247.881.207,0,.412-.016.613-.017-.064-.265-.134-.529-.215-.789m-7.072,3.4a.669.669,0,0,1-.676.683A.681.681,0,0,1,2.393,9.2a.667.667,0,0,1,.742.675" transform="translate(453 294.504)" fill="#3d577c"/>
    <path id="Path_16112" data-name="Path 16112" d="M30.45,16.094a.583.583,0,0,0-.57-.372c-.252-.007-.5,0-.756,0a.574.574,0,0,0-.3.086,1.534,1.534,0,0,0-.164.135.051.051,0,0,1-.01-.017,12.894,12.894,0,0,0-.338-1.3c-.085-.272-.172-.544-.271-.811a.6.6,0,0,0-.424-.392,3.343,3.343,0,0,0-.436-.074c-.205-.025-.411-.043-.617-.06-.189-.015-.378-.027-.567-.037s-.352-.017-.527-.024c-.116,0-.232-.009-.348-.011-.219,0-.439-.01-.658-.01s-.443.005-.664.009l-.536.012c-.14,0-.281.007-.421.013-.053,0-.107.009-.16.011l-.521.026c-.113.006-.227.012-.34.023-.134.013-.268.03-.4.048s-.275.031-.408.062a.566.566,0,0,0-.381.279,3.264,3.264,0,0,0-.2.478c-.068.195-.126.393-.183.592q-.1.329-.182.661c-.045.175-.084.351-.126.529a.564.564,0,0,0-.455-.222c-.282-.01-.564,0-.846.008a.545.545,0,0,0-.474.324,1.462,1.462,0,0,0-.062.158v.218c0,.006.01.011.012.018a.605.605,0,0,0,.31.4.659.659,0,0,0,.353.065c.093,0,.187,0,.285,0-.046.07-.09.131-.129.2a1.211,1.211,0,0,0-.2.6c-.01.554-.006,1.11-.006,1.664s0,1.106,0,1.659a.3.3,0,0,0,.287.314c.6,0,1.194,0,1.791,0a.247.247,0,0,0,.236-.138.523.523,0,0,0,.05-.179c.008-.1,0-.2,0-.307H27.5c0,.1,0,.2,0,.3a.471.471,0,0,0,.013.112.306.306,0,0,0,.3.21c.573,0,1.146-.005,1.719,0a.318.318,0,0,0,.333-.334c-.005-.539,0-1.077,0-1.616,0-.562-.006-1.124-.015-1.686a1.185,1.185,0,0,0-.178-.582c-.042-.071-.09-.138-.139-.214.049,0,.09,0,.132,0A3.292,3.292,0,0,0,30,16.9a.587.587,0,0,0,.447-.809m-9.891,2.617a.681.681,0,0,1-.066-1.358.681.681,0,1,1,.066,1.358m5.374.693a.372.372,0,0,1-.095.008H24.289c-.529,0-1.057,0-1.585,0a.321.321,0,0,1-.3-.361.331.331,0,0,1,.348-.29h1.367c.571,0,1.141,0,1.712,0a.512.512,0,0,1,.194.045.266.266,0,0,1,.166.266.3.3,0,0,1-.253.331m.546-3.54-.51-.047c-.064-.006-.128-.009-.192-.012-.122,0-.244-.01-.366-.013l-.694-.012c-.336,0-.672-.01-1.008-.011-.14,0-.281.006-.421.012-.187.007-.375.013-.563.025-.2.013-.409.029-.613.049s-.422.043-.632.073-.43.072-.645.107c-.1.017-.207.031-.319.047.014-.071.025-.142.042-.212.042-.174.084-.348.132-.52.064-.231.131-.461.2-.689.062-.2.134-.395.2-.593a.135.135,0,0,1,.123-.1c.156-.018.312-.036.468-.05.21-.018.42-.033.63-.047s.406-.028.61-.036c.3-.011.6-.018.9-.025.229-.005.458-.01.687-.01s.43,0,.645.01.421.015.631.024c.146.006.291.013.436.025.168.013.336.032.5.047.14.013.281.022.421.036q.138.014.275.037c.054.009.066.059.081.1.053.157.111.312.157.471.123.429.242.859.361,1.289.022.079.033.16.051.246l-.26-.039c-.138-.023-.276-.049-.414-.07-.172-.026-.344-.051-.517-.072-.134-.016-.269-.026-.4-.038M28.01,18.71a.686.686,0,0,1-.661-.721.678.678,0,0,1,.74-.636.68.68,0,0,1-.079,1.357" transform="translate(440.482 288.868)" fill="#3d577c"/>
    <path id="Path_16113" data-name="Path 16113" d="M19.062.863a.135.135,0,0,1,.123-.1c.156-.018.311-.036.468-.05.21-.018.42-.033.63-.047s.407-.028.61-.036c.3-.011.6-.018.9-.025.229-.005.458-.01.687-.01s.43,0,.645.01.421.015.631.024c.146.006.291.013.436.025.168.013.336.032.5.047.14.013.281.022.421.036.093.009.184.022.276.037.053.009.066.059.081.1.054.157.111.312.157.471.124.429.243.859.361,1.289.02.074.047.146.068.227a1.743,1.743,0,0,1,.585.031c0-.016-.031-.163-.033-.169a13.06,13.06,0,0,0-.338-1.3c-.085-.272-.172-.544-.271-.811a.6.6,0,0,0-.423-.392,3.352,3.352,0,0,0-.436-.074C24.942.118,24.736.1,24.53.083c-.189-.015-.378-.027-.568-.037s-.352-.017-.527-.024c-.116,0-.232-.009-.348-.012-.219,0-.439-.01-.658-.01s-.443.005-.664.009l-.536.012c-.14,0-.281.007-.421.013-.053,0-.107.009-.16.011l-.521.026c-.113.006-.227.012-.34.023-.134.013-.267.03-.4.048s-.275.031-.408.062A.565.565,0,0,0,18.6.483a3.232,3.232,0,0,0-.2.478c-.02.058-.036.117-.054.175h.627c.031-.091.062-.181.091-.273" transform="translate(440.313 298)" fill="#3d577c"/>
  </g>
</svg>
<svg id="Contests_Incentivies_LeftNav" xmlns="http://www.w3.org/2000/svg" xmlns:xlink="http://www.w3.org/1999/xlink" width="13.174" height="15.422" viewBox="0 0 13.174 15.422">
  <defs>
    <clipPath id="clip-path">
      <rect id="Rectangle_11951" data-name="Rectangle 11951" width="13.174" height="15.422" fill="none"/>
    </clipPath>
  </defs>
  <g id="CONTESTS_Incentives" data-name="CONTESTS &amp; Incentives" transform="translate(0 0)">
    <g id="Group_6716" data-name="Group 6716" transform="translate(0 0)" clip-path="url(#clip-path)">
      <path id="Path_16179" data-name="Path 16179" d="M6.717,0a3.056,3.056,0,0,1,.9.62A1.029,1.029,0,0,0,8.581.8C8.835.75,9.09.7,9.346.665a.563.563,0,0,1,.62.4c.1.227.19.462.273.7a.926.926,0,0,0,.647.622c.214.063.424.137.634.21a.718.718,0,0,1,.484.9,4.127,4.127,0,0,0-.155.829,1.092,1.092,0,0,0,.18.544c.17.285.376.548.572.817a.7.7,0,0,1-.054.908c-.167.206-.332.414-.5.622a.909.909,0,0,0-.143.792c.052.263.1.527.14.792a.644.644,0,0,1-.506.688c-.136.05-.273.1-.429.152.136.24.264.473.4.7.311.536.625,1.071.937,1.606.224.384.456.762.666,1.153.144.268.041.446-.276.456-.49.017-.982.033-1.467.1a.9.9,0,0,0-.648.439q-.358.579-.725,1.153a.28.28,0,0,1-.511-.021q-.98-1.687-1.963-3.373a1.581,1.581,0,0,0-.126-.166c-.146.1-.273.2-.409.286a.685.685,0,0,1-.738.011c-.124-.068-.237-.155-.356-.232-.074-.049-.137-.064-.193.033Q4.746,13.444,3.788,15.1a1.124,1.124,0,0,1-.152.216.261.261,0,0,1-.439-.036c-.237-.369-.463-.746-.7-1.114a1.087,1.087,0,0,0-.888-.524c-.394-.021-.789-.02-1.183-.034a.845.845,0,0,1-.244-.045.264.264,0,0,1-.145-.386c.216-.387.442-.768.664-1.152l1.047-1.81c.1-.181.207-.363.322-.565L1.7,9.514c-.265-.1-.526-.226-.567-.529a2.581,2.581,0,0,1,.06-.672,5.788,5.788,0,0,0,.1-.59.875.875,0,0,0-.234-.6c-.167-.2-.324-.4-.481-.6a.675.675,0,0,1-.022-.846,6.422,6.422,0,0,1,.507-.685,1.053,1.053,0,0,0,.189-1.01,5.548,5.548,0,0,1-.131-.673.689.689,0,0,1,.475-.683c.255-.091.51-.182.767-.265A.98.98,0,0,0,2.955,1.7c.113-.28.23-.559.365-.829A.372.372,0,0,1,3.65.689,3.078,3.078,0,0,1,4.678.846a.779.779,0,0,0,.753-.2,3.007,3.007,0,0,1,.9-.585c.049-.017.1-.038.143-.058ZM6.091,10.552A4.735,4.735,0,0,0,9.944,9.034,4.4,4.4,0,0,0,11.053,5.49,4.506,4.506,0,0,0,2.082,5.8C1.943,8.5,4.144,10.6,6.091,10.552" transform="translate(0 0)" fill="#3d577c"/>
      <path id="Path_16180" data-name="Path 16180" d="M10.616,13.135A3.822,3.822,0,0,1,6.843,9.056a3.817,3.817,0,0,1,6.671-2.24A3.62,3.62,0,0,1,14.458,9.1a3.788,3.788,0,0,1-3.842,4.04m-1.532-1.75c-.021.259.149.335.364.217s.444-.22.658-.342a1.1,1.1,0,0,1,1.08-.028c.263.127.518.269.78.4.167.082.307,0,.292-.187a5.32,5.32,0,0,0-.1-.71,1.19,1.19,0,0,1,.332-1.213c.206-.194.409-.392.6-.6a.172.172,0,0,0-.112-.3c-.254-.049-.509-.1-.766-.122a1.114,1.114,0,0,1-.968-.654c-.116-.235-.224-.475-.354-.7a.332.332,0,0,0-.216-.166c-.064,0-.155.1-.2.172-.136.244-.244.5-.385.745a1.777,1.777,0,0,1-.312.364,1.471,1.471,0,0,1-.846.271c-.182.032-.368.051-.548.093-.164.039-.212.168-.106.3a3.1,3.1,0,0,0,.472.5,1.187,1.187,0,0,1,.458,1.306c-.05.218-.081.441-.121.662" transform="translate(-4.069 -3.287)" fill="#3d577c"/>
    </g>
  </g>
</svg>
<svg id="OrderMerchandisingMaterial_LeftNav" xmlns="http://www.w3.org/2000/svg" width="15.151" height="15.24" viewBox="0 0 15.151 15.24">
  <g id="ORDER_merchandising_materials" data-name="ORDER merchandising materials" transform="translate(0 0)">
    <g id="Group_6698" data-name="Group 6698" transform="translate(0 0)">
      <path id="Path_16149" data-name="Path 16149" d="M3.614,27.707h-1.3v1.021a.558.558,0,0,1-.021.164.343.343,0,0,1-.393.233.353.353,0,0,1-.295-.352V27.8c0-.029,0-.058,0-.091H.314a.266.266,0,0,0-.076,0A.277.277,0,0,0,0,28.02c0,1.09,0,2.18,0,3.27a.319.319,0,0,0,.2.338l3.519,0a.334.334,0,0,0,.2-.347V28.016a.284.284,0,0,0,0-.065.279.279,0,0,0-.31-.245" transform="translate(0 -16.388)" fill="#3d577c"/>
      <path id="Path_16150" data-name="Path 16150" d="M15.188,27.7c-.386,0-.772,0-1.158,0h-.1v1.052a.355.355,0,1,1-.709-.008v-.943c0-.032-.006-.064-.006-.1H11.943a.279.279,0,0,0-.09,0,.285.285,0,0,0-.235.327c0,1.082,0,2.163,0,3.244a.337.337,0,0,0,.2.347l3.517,0a.345.345,0,0,0,.2-.2V27.9a.332.332,0,0,0-.347-.2" transform="translate(-6.87 -16.386)" fill="#3d577c"/>
      <path id="Path_16151" data-name="Path 16151" d="M5.491,20.44H8.755c.229,0,.328-.1.328-.332V16.83a.257.257,0,0,0,0-.077.272.272,0,0,0-.308-.23h-1.3V17.6a.352.352,0,1,1-.7,0V16.522h-.1c-.395,0-.79.007-1.184,0a.3.3,0,0,0-.326.328c.005,1.087,0,2.175,0,3.262,0,.231.1.331.328.331" transform="translate(-3.051 -9.771)" fill="#3d577c"/>
      <path id="Path_16152" data-name="Path 16152" d="M20.609,1.894,18.933.25A.876.876,0,0,0,18.32,0H10.445a.816.816,0,0,0-.816.816V6.06H9.8c.785,0,1.571.007,2.357,0,.291,0,.413.069.41.4-.011,1.225,0,2.451,0,3.676v.206h.183q.944,0,1.889,0c.256,0,.335.08.336.332q0,1.587,0,3.175v.171h5.382a.5.5,0,0,0,.5-.5V2.463a.8.8,0,0,0-.239-.569m-9.149.328h4.534v.516H11.459Zm.006,1.07H16v.516H11.465Zm3.559,3H13.443V4.709h1.581Zm0,2.751H13.441V7.455h1.586Zm.584-4.334h4.534v.516H15.61Zm.006,2.743h4.529v.522H15.616Zm4.528,4.505H15.61v-.516h4.534Zm0-1.064H15.622v-.522h4.522Zm.006-1.85H15.611V8.531H20.15Zm0-2.748H15.616V5.783H20.15Zm.161-3.261H18.425a.855.855,0,0,1-.855-.855V.579a.242.242,0,0,1,.242-.242.265.265,0,0,1,.267.239L18.1,2.13a.348.348,0,0,0,.343.364l1.867.005a.27.27,0,0,1,0,.539" transform="translate(-5.696 0)" fill="#3d577c"/>
    </g>
  </g>
</svg>
<svg  id="Dashboard_LeftNav" xmlns="http://www.w3.org/2000/svg" width="13.321" height="14.022" viewBox="0 0 13.321 14.022">
  <g id="Performance_Metrics" data-name="Performance Metrics" transform="translate(0 0)">
    <g id="Group_6710" data-name="Group 6710" transform="translate(0 0)">
      <path id="Path_16164" data-name="Path 16164" d="M10.752,4.207c-.151,0-.291,0-.431,0a.7.7,0,0,0-.739.738c.013.217,0,.435,0,.665-.54,0-1.069,0-1.6,0a.752.752,0,0,0-.465.144.614.614,0,0,0-.269.49c-.008.252,0,.5,0,.768-.531,0-1.051,0-1.57,0a1.228,1.228,0,0,0-.333.057.637.637,0,0,0-.434.587c0,.243,0,.487,0,.73,0,0,0,.008-.017.025-.51,0-1.029,0-1.548,0a.942.942,0,0,0-.254.029.65.65,0,0,0-.516.689q0,1.431,0,2.862v.159c-.23,0-.452,0-.674,0a.674.674,0,0,0-.67.413.688.688,0,0,0,.112.759.606.606,0,0,0,.472.228l8.251,0h.687a2.2,2.2,0,0,1,0,.246.273.273,0,0,1-.3.222H.66A.679.679,0,0,1,0,13.367Q0,8.373,0,3.379c0-.905,0-1.811,0-2.716A.665.665,0,0,1,.639,0,1.441,1.441,0,0,1,.8,0H9.955a.73.73,0,0,1,.8.8q0,1.628,0,3.256Zm-8.413-1.4c0-.7,0-1.374,0-2.05a.263.263,0,0,0-.3-.284A1.672,1.672,0,0,0,1.1.9,2.242,2.242,0,0,0,.479,2.861a1.956,1.956,0,0,0,.745,1.328,1.941,1.941,0,0,0,1.258.481,3.442,3.442,0,0,0,.67-.059,1.816,1.816,0,0,0,1.493-1.4c.075-.332-.085-.427-.342-.412-.238.013-.476,0-.715,0Zm6.047-.469v0c.326,0,.651,0,.977,0a.651.651,0,0,0,.625-.467,2.715,2.715,0,0,0,.059-.667A.7.7,0,0,0,9.31.472C8.7.458,8.085.464,7.473.47a.632.632,0,0,0-.658.5,3.57,3.57,0,0,0-.031.734.666.666,0,0,0,.64.636c.321.006.641,0,.962,0M3.827,5.609h2.1c.2,0,.4,0,.6,0a.268.268,0,0,0,.251-.231.272.272,0,0,0-.249-.235c-.038,0-.078,0-.117,0H1.538a2,2,0,0,0-.378.007.316.316,0,0,0-.2.143.231.231,0,0,0,.243.321c.876-.008,1.751,0,2.627,0M2.573,1.523c0,.268,0,.535,0,.8,0,.15.076.242.208.243q.825.007,1.65,0a.25.25,0,0,0,.241-.251,2.147,2.147,0,0,0-.488-1.1,2.072,2.072,0,0,0-1.3-.728c-.222-.03-.312.03-.313.257,0,.258,0,.516,0,.774m.468,4.554c-.618,0-1.235,0-1.853,0a.228.228,0,0,0-.247.289.231.231,0,0,0,.258.178q1.824,0,3.648,0a.5.5,0,0,0,.073,0,.284.284,0,0,0,.222-.23.28.28,0,0,0-.219-.233.818.818,0,0,0-.117,0H3.041m3.136,0c-.112,0-.223,0-.335,0a.233.233,0,1,0,.006.465q.335,0,.67,0a.266.266,0,0,0,.261-.236.272.272,0,0,0-.266-.23c-.112,0-.223,0-.335,0" transform="translate(0 0)" fill="#3d577c"/>
      <path id="Path_16165" data-name="Path 16165" d="M27.73,19.286H25.4c0-.042-.007-.084-.007-.126V12.123c0-.246.063-.311.3-.311q.869,0,1.738,0a.263.263,0,0,1,.294.292q0,3.563,0,7.125c0,.014,0,.028-.005.056m-.93-3.5c0,.3,0,.6,0,.9,0,.165.086.264.219.263a.261.261,0,0,0,.247-.265q0-.9,0-1.807a.262.262,0,0,0-.249-.263c-.133,0-.216.1-.217.265,0,.3,0,.6,0,.9m0,2.1c0,.078,0,.155,0,.233a.22.22,0,0,0,.2.236.261.261,0,0,0,.263-.215,4.382,4.382,0,0,0,0-.494.262.262,0,0,0-.257-.222.221.221,0,0,0-.207.245c0,.072,0,.145,0,.218" transform="translate(-15.348 -7.138)" fill="#3d577c"/>
      <path id="Path_16166" data-name="Path 16166" d="M21.359,15.356v6.068H19.5c0-.035-.007-.072-.007-.109q0-2.825,0-5.651c0-.243.064-.307.307-.307h1.559" transform="translate(-11.779 -9.279)" fill="#3d577c"/>
      <path id="Path_16167" data-name="Path 16167" d="M15.452,18.9v4.666h-1.86c0-.042-.005-.083-.005-.125q0-2.11,0-4.22c0-.262.059-.321.324-.321h1.542" transform="translate(-8.21 -11.42)" fill="#3d577c"/>
      <path id="Path_16168" data-name="Path 16168" d="M9.542,25.711H7.688c0-.039-.008-.076-.008-.113q0-1.423,0-2.847c0-.243.064-.307.307-.308H9.542Z" transform="translate(-4.641 -13.562)" fill="#3d577c"/>
      <path id="Path_16169" data-name="Path 16169" d="M9.964,31.889h5.5c.039,0,.078,0,.117,0a.233.233,0,1,1,0,.466.8.8,0,0,1-.087,0H4.446c-.223,0-.326-.087-.307-.262a.208.208,0,0,1,.2-.2c.048,0,.1,0,.146,0H9.964" transform="translate(-2.5 -19.27)" fill="#3d577c"/>
      <path id="Path_16170" data-name="Path 16170" d="M5.549,4.794a1.574,1.574,0,0,1-1.794.924A1.549,1.549,0,0,1,2.363,4.332a1.564,1.564,0,0,1,.923-1.815v.158q0,.912,0,1.825c0,.224.069.293.292.294H5.549" transform="translate(-1.415 -1.521)" fill="#3d577c"/>
      <path id="Path_16171" data-name="Path 16171" d="M19.463,3.3c-.3,0-.593,0-.89,0-.186,0-.262-.077-.264-.262,0-.146,0-.292,0-.437a.213.213,0,0,1,.233-.233q.919,0,1.837,0a.26.26,0,0,1,.265.276q0,.189,0,.379a.262.262,0,0,1-.279.278c-.3,0-.6,0-.9,0" transform="translate(-11.063 -1.428)" fill="#3d577c"/>
      <path id="Path_16172" data-name="Path 16172" d="M7.691,3.633v-1.1a1.629,1.629,0,0,1,1.1,1.1Z" transform="translate(-4.648 -1.531)" fill="#3d577c"/>
    </g>
  </g>
</svg>
<svg id="ReportVehicleSale_LeftNav" xmlns="http://www.w3.org/2000/svg" width="16.55" height="16.655" viewBox="0 0 16.55 16.655">
  <g id="REPORT_VEHICLE_SALE" data-name="REPORT VEHICLE SALE" transform="translate(0 0)">
    <g id="Group_6702" data-name="Group 6702" transform="translate(0 0)">
      <path id="Path_16153" data-name="Path 16153" d="M22.137,25.81a.642.642,0,0,0-.627-.41c-.277-.007-.555,0-.833,0a.632.632,0,0,0-.336.095,1.689,1.689,0,0,0-.181.149.057.057,0,0,1-.011-.019,14.2,14.2,0,0,0-.372-1.434c-.094-.3-.19-.6-.3-.893a.662.662,0,0,0-.467-.431,3.682,3.682,0,0,0-.48-.081c-.226-.027-.452-.048-.679-.067-.208-.017-.416-.029-.625-.041s-.387-.019-.581-.027c-.128-.005-.256-.01-.384-.013-.242,0-.483-.011-.725-.011-.171,0-.342,0-.513.007-.066.1-.3.541-.357.661l.172,0c.252-.006.5-.011.757-.011.237,0,.474,0,.711.011s.463.016.695.026c.16.007.321.015.481.027.185.015.37.035.555.052.155.014.309.024.464.04q.152.015.3.041c.059.01.073.065.089.112.059.173.122.344.173.519.136.472.267.946.4,1.419.024.087.037.177.056.271l-.286-.043c-.152-.025-.3-.054-.456-.077-.189-.029-.379-.056-.57-.079-.148-.018-.3-.028-.444-.042L17.2,25.5c-.07-.006-.14-.01-.211-.013-.134-.005-.269-.011-.4-.014l-.764-.014c-.37-.005-.74-.011-1.11-.013-.155,0-.309.007-.464.013-.206.008-.413.014-.62.027-.225.014-.45.032-.675.054s-.465.048-.7.08-.473.079-.71.118c-.113.018-.228.034-.351.052.015-.078.028-.156.046-.233.024-.1.114-.406.14-.506l-.089,0a4.709,4.709,0,0,1-.609.1c-.043.163-.1.385-.129.492a.621.621,0,0,0-.5-.245c-.31-.011-.621,0-.931.009a.6.6,0,0,0-.522.357,1.611,1.611,0,0,0-.068.174v.24c0,.006.012.012.013.019a.667.667,0,0,0,.341.444.726.726,0,0,0,.388.072c.1,0,.206,0,.314,0-.051.077-.1.144-.142.215a1.334,1.334,0,0,0-.217.657c-.011.611-.006,1.222-.007,1.833s0,1.218,0,1.827a.333.333,0,0,0,.317.345c.657,0,1.315,0,1.973,0a.272.272,0,0,0,.26-.152.576.576,0,0,0,.055-.2c.009-.112,0-.225,0-.338h7.06c0,.114,0,.225,0,.336a.518.518,0,0,0,.014.123.337.337,0,0,0,.332.231c.631,0,1.262-.006,1.893,0a.35.35,0,0,0,.366-.367c-.006-.593,0-1.187,0-1.78,0-.619-.006-1.238-.017-1.857a1.3,1.3,0,0,0-.2-.64c-.046-.078-.1-.152-.153-.235.054,0,.1,0,.145,0a3.627,3.627,0,0,0,.37-.017.646.646,0,0,0,.492-.891M11.245,28.692a.75.75,0,0,1-.073-1.5.749.749,0,1,1,.073,1.5m5.918.763a.41.41,0,0,1-.1.009H15.353c-.582,0-1.164,0-1.746,0a.353.353,0,0,1-.336-.4.365.365,0,0,1,.383-.319H15.16c.629,0,1.257,0,1.885,0a.564.564,0,0,1,.214.049.292.292,0,0,1,.182.293.335.335,0,0,1-.278.365m2.288-.764a.756.756,0,0,1-.728-.794.747.747,0,0,1,.815-.7.749.749,0,0,1-.087,1.494" transform="translate(-5.637 -14.943)" fill="#3d577c"/>
      <path id="Path_16154" data-name="Path 16154" d="M0,4.3c.048-.214.09-.43.144-.643a4.746,4.746,0,0,1,.875-1.777A4.706,4.706,0,0,1,3.541.187,3.775,3.775,0,0,1,5.207.041,9.14,9.14,0,0,1,6.375.26,4.7,4.7,0,0,1,9.1,2.486,4.738,4.738,0,0,1,9.691,4.4,4.821,4.821,0,0,1,7.319,9.06a4.693,4.693,0,0,1-1.84.632,4.837,4.837,0,0,1-4.1-1.407A4.868,4.868,0,0,1,.109,5.943C.07,5.774.036,5.6,0,5.433V4.3M5.216,2a4.14,4.14,0,0,1,.615.14,1.393,1.393,0,0,1,.925.846,1.178,1.178,0,0,1,.055.269c.016.2.111.3.3.3a.307.307,0,0,0,.336-.311A1.572,1.572,0,0,0,7.028,2.19a2.564,2.564,0,0,0-1.511-.8c-.322-.055-.322-.057-.337-.4A.29.29,0,0,0,4.866.679c-.223,0-.319.093-.324.31a1.531,1.531,0,0,0,0,.213c.014.111-.049.143-.14.151a2.538,2.538,0,0,0-1.76.891A1.446,1.446,0,0,0,2.283,3.49,1.915,1.915,0,0,0,3.5,4.893c.328.141.68.226,1.03.339V7.783a2.355,2.355,0,0,1-.931-.3A1.2,1.2,0,0,1,2.907,6.45a.329.329,0,0,0-.3-.275.285.285,0,0,0-.325.221.7.7,0,0,0-.01.349,1.925,1.925,0,0,0,.787,1.143,3.094,3.094,0,0,0,1.479.537c0,.13-.01.255,0,.377a.284.284,0,0,0,.265.275c.138.008.3-.023.333-.205.027-.147.036-.3.054-.446a5.33,5.33,0,0,0,.648-.138,2.593,2.593,0,0,0,1.21-.779,1.467,1.467,0,0,0,.339-1.4A2.07,2.07,0,0,0,6,4.761a7.691,7.691,0,0,0-.81-.214V2.028L5.216,2" transform="translate(0 0)" fill="#3d577c"/>
      <path id="Path_16155" data-name="Path 16155" d="M15.276,5.914l.028-.031-.028.031" transform="translate(-10.088 -3.885)" fill="#3d577c"/>
      <path id="Path_16156" data-name="Path 16156" d="M10.157,5.84V8.4c-.2-.047-.39-.075-.568-.137a1.592,1.592,0,0,1-.9-.642A.834.834,0,0,1,8.765,6.5a1.854,1.854,0,0,1,1.393-.657" transform="translate(-5.62 -3.857)" fill="#3d577c"/>
      <path id="Path_16157" data-name="Path 16157" d="M15.3,15.386a2.174,2.174,0,0,1,1.29.59.9.9,0,0,1,.025,1.331,2.23,2.23,0,0,1-1.343.633V15.417l.028-.031" transform="translate(-10.088 -10.161)" fill="#3d577c"/>
      <path id="Path_16158" data-name="Path 16158" d="M15.3,15.386l-.028.031.028-.031" transform="translate(-10.088 -10.161)" fill="#3d577c"/>
    </g>
  </g>
</svg>
<svg id="REPORTS_LeftNav" xmlns="http://www.w3.org/2000/svg" width="12.452" height="14.974" viewBox="0 0 12.452 14.974">
  <g id="Group_6714" data-name="Group 6714">
    <path id="Path_16173" data-name="Path 16173" d="M5.764,20.9c-.077-.036-.1-.009-.095.06,0,.046,0,.093,0,.139,0,.21,0,.419,0,.629,0,.051.015.088.071.052a.562.562,0,0,0,.267-.463.452.452,0,0,0-.244-.417" transform="translate(-3.227 -12.303)" fill="#3d577c"/>
    <path id="Path_16174" data-name="Path 16174" d="M3.256,7.983q.8-.007,1.6,0c.114,0,.151-.028.15-.147q-.007-1.4,0-2.8c0-.109-.032-.14-.14-.139-.538,0-1.077.006-1.616,0-.121,0-.147.041-.145.152.005.461,0,.922,0,1.383s0,.933,0,1.4c0,.117.037.151.151.15" transform="translate(-1.829 -2.886)" fill="#3d577c"/>
    <path id="Path_16175" data-name="Path 16175" d="M12.31,9.4V3.464c0-.047,0-.093,0-.14,0-.03,0-.075-.037-.077-.136-.006-.273-.005-.409,0-.04,0-.042.042-.043.073,0,.052,0,.1,0,.155V14.282c0,.422-.025.445-.477.445l-8.777,0a.107.107,0,0,0-.11.1v.662a.1.1,0,0,0,.1.1h0q4.773-.007,9.545,0c.166,0,.21-.039.21-.2-.006-2,0-3.992,0-5.987" transform="translate(-0.794 -1.91)" fill="#3d577c"/>
    <path id="Path_16176" data-name="Path 16176" d="M4.042,17.923a.24.24,0,0,0,.194.23v-.624a.428.428,0,0,0-.194.394" transform="translate(-2.381 -10.328)" fill="#3d577c"/>
    <path id="Path_16177" data-name="Path 16177" d="M10.175,0C7.687,0,4.268,0,1.781,0,1.734,0,.274.006.1,0h0A.094.094,0,0,0,0,.094V12.3c.026.04.077.056.169.056,2.11-.007,4.219,0,6.328,0,.917,0,2.974,0,3.891,0,.122,0,.156-.032.156-.154,0-4.017,0-7.863,0-11.88A.322.322,0,0,0,10.175,0M5.229,1.73c.834,0,2.818,0,3.638,0,.366,0,.577-.02.57.188-.005.142-.113.225-.3.226H4.957c-.189,0-.3-.091-.295-.24.006-.2.2-.179.567-.179M9.14,3.114H4.955c-.184,0-.29-.082-.294-.224-.006-.2.177-.212.5-.212l3.764,0c.324,0,.514.013.506.21,0,.14-.113.223-.3.223m.294,2.175a.212.212,0,0,1-.163.219.624.624,0,0,1-.169.017H5a.583.583,0,0,1-.184-.02.226.226,0,0,1,.025-.434.838.838,0,0,1,.17-.011H9.083a.864.864,0,0,1,.17.01.212.212,0,0,1,.182.219M2.529,9.929c-.147.063-.225.128-.2.3a.2.2,0,0,1-.15.212.211.211,0,0,1-.23-.046.245.245,0,0,1-.081-.225c.014-.111-.024-.148-.138-.161a1.129,1.129,0,0,1-.5-.206.239.239,0,0,1-.089-.335A.231.231,0,0,1,1.469,9.4a1.33,1.33,0,0,0,.309.143c.079.021.071-.006.071-.174,0-.335,0-.56,0-.859,0-.1.01-.141-.051-.168s-.093-.045-.139-.069a.756.756,0,0,1-.472-.723.877.877,0,0,1,.533-.811c.1-.047.148-.094.143-.213a.237.237,0,0,1,.238-.268.233.233,0,0,1,.222.265c0,.1.021.156.132.183a1.172,1.172,0,0,1,.437.228.234.234,0,1,1-.275.376.77.77,0,0,0-.291-.145c0,.278,0,.542,0,.806,0,.093.055.107.121.13a.935.935,0,0,1,.654.648,1.016,1.016,0,0,1-.575,1.18M3.641,5.022a.484.484,0,0,1-.524.538q-.886.009-1.772,0a.5.5,0,0,1-.534-.551q0-1.461,0-2.921c0-.395.249-.528.695-.528H2.944c.463,0,.7.12.7.525,0,.487,0,.974,0,1.461s0,.984,0,1.477M4.753,6.076A.287.287,0,0,1,4.96,6.03H6.5c.5,0,2.144,0,2.646,0,.183,0,.291.084.294.223s-.111.242-.3.242c-1.014,0-3.168,0-4.183,0a.26.26,0,0,1-.282-.171.221.221,0,0,1,.081-.249M9.139,9.864H4.955c-.185,0-.29-.081-.294-.223-.005-.19.164-.222.464-.222.882,0,2.889.005,3.835.005.3,0,.483.029.476.219-.005.14-.113.221-.3.221m0-.965H4.955c-.183,0-.29-.083-.293-.226-.007-.223.218-.167.638-.167.808,0,2.437-.012,3.534-.012.386,0,.6-.044.6.166,0,.146-.108.238-.3.239" fill="#3d577c"/>
    <path id="Path_16178" data-name="Path 16178" d="M14.026,18.615a.446.446,0,0,1,0-.062V6.672c0-.235,0-.235-.242-.235-.041,0-.083,0-.124,0-.073-.007-.105.023-.1.1,0,.051,0,.1,0,.155q0,5.411,0,10.823v.056a.366.366,0,0,1-.359.364H4.808a.128.128,0,0,0-.128.129v.574a.13.13,0,0,0,.13.13H13.9a.129.129,0,0,0,.129-.144v-.007" transform="translate(-1.577 -3.792)" fill="#3d577c"/>
  </g>
</svg>

<svg id="SRC_leftNav" xmlns="http://www.w3.org/2000/svg" width="16.595" height="16.197" viewBox="0 0 16.595 16.197">
  <g id="Service_Rental_Cars" data-name="Service Rental Cars" transform="translate(0 1)">
    <g id="Group_6706" data-name="Group 6706">
      <path id="Path_16159" data-name="Path 16159" d="M16.463,23.118c-.182,0-.343.005-.5,0-.108,0-.214-.034-.322-.038-.424-.017-.849-.042-1.272-.037-.317,0-.635.045-.951.08a.316.316,0,0,0-.264.333.356.356,0,0,0,.376.244,4.825,4.825,0,0,1,1.541-.042.455.455,0,0,0,.062,0c.528.013,1.056.026,1.584.04a.344.344,0,0,0,.377-.292.407.407,0,0,1,.2-.2c.817-.445,1.639-.882,2.459-1.322a1.045,1.045,0,0,1,1.194.092c-.364.248-.715.487-1.065.728-1.317.9-2.631,1.81-3.952,2.708a2.573,2.573,0,0,1-1.207.393,7,7,0,0,1-2.13-.233c-.565-.115-1.136-.2-1.7-.3-.152-.027-.3-.059-.455-.082a1.774,1.774,0,0,0-1.27.412c-.3.2-.618.4-.957.612l-.972-3.178a3.928,3.928,0,0,0,.43-.239c.262-.19.522-.386.766-.6a2.826,2.826,0,0,1,1.652-.693,3.718,3.718,0,0,1,2.043.434,2.249,2.249,0,0,0,1.074.232c.669-.014,1.338-.01,2.006,0a1.357,1.357,0,0,1,.779.227,1.262,1.262,0,0,1,.486.72" transform="translate(-4.345 -12.922)" fill="#3d577c"/>
      <path id="Path_16160" data-name="Path 16160" d="M3.837,28.761H.754C.5,26.7.252,24.646,0,22.576a.993.993,0,0,1,.124-.014c.551,0,1.1,0,1.655,0,.117,0,.176.022.214.152.222.768.456,1.532.691,2.3.171.557.352,1.111.523,1.669.213.691.419,1.385.631,2.086m-.908-.856a.742.742,0,0,0-.755-.795.767.767,0,0,0-.781.757.822.822,0,0,0,.757.817.783.783,0,0,0,.78-.779m-.42-.008a.346.346,0,1,1-.347-.347.346.346,0,0,1,.347.347" transform="translate(0 -13.564)" fill="#3d577c"/>
      <path id="Path_16161" data-name="Path 16161" d="M33.3,21.647l-2,1.083-.229-.414c.494-.265.966-.537,1.456-.772a.727.727,0,0,1,.777.1" transform="translate(-18.679 -12.912)" fill="#3d577c"/>
      <path id="Path_16162" data-name="Path 16162" d="M28.722,21.417c.624-.357.989-.418,1.376-.218-.285.153-.555.3-.828.443a.13.13,0,0,1-.1,0c-.148-.071-.293-.148-.445-.226" transform="translate(-17.269 -12.678)" fill="#3d577c"/>
      <path id="Path_16163" data-name="Path 16163" d="M7.53,2.931a1.219,1.219,0,0,1,.06-.154.529.529,0,0,1,.461-.315c.274-.01.549-.017.823-.008a.55.55,0,0,1,.443.217c.041-.173.079-.345.123-.515q.084-.323.177-.644c.055-.193.112-.386.179-.576A3.131,3.131,0,0,1,9.989.47.552.552,0,0,1,10.36.2c.131-.03.265-.042.4-.06s.26-.034.39-.047c.109-.011.22-.017.33-.023.169-.01.338-.017.507-.026.052,0,.1-.009.156-.011l.41-.012.521-.012c.216,0,.431-.009.647-.009s.427.006.64.01c.113,0,.226.007.339.011.171.007.342.014.514.024s.368.021.552.036c.2.016.4.035.6.059a3.233,3.233,0,0,1,.425.071A.587.587,0,0,1,17.2.593c.1.26.181.525.264.789a12.822,12.822,0,0,1,.329,1.267c0,.007.007.013.009.017a1.532,1.532,0,0,1,.16-.132.559.559,0,0,1,.3-.084c.246,0,.492-.006.736,0a.58.58,0,0,1,.12,1.15,3.183,3.183,0,0,1-.327.015c-.04,0-.081,0-.128,0,.048.073.095.139.135.208a1.147,1.147,0,0,1,.173.566c.01.547.013,1.094.016,1.641,0,.524,0,1.049,0,1.573a.309.309,0,0,1-.324.325c-.557-.006-1.115,0-1.673,0a.3.3,0,0,1-.293-.2.521.521,0,0,1-.013-.109c0-.1,0-.2,0-.3h-6.24c0,.1.006.2,0,.3a.514.514,0,0,1-.048.175.24.24,0,0,1-.229.134c-.581,0-1.163,0-1.744,0a.3.3,0,0,1-.28-.305c.005-.538,0-1.076,0-1.614s0-1.08.006-1.62a1.17,1.17,0,0,1,.193-.581c.037-.062.08-.122.125-.19-.095,0-.186,0-.277,0a.638.638,0,0,1-.343-.063.59.59,0,0,1-.3-.393c0-.006-.008-.011-.011-.017V2.931M9.884,2.8c.109-.016.209-.03.309-.046.21-.034.417-.074.627-.1s.41-.051.615-.071.4-.035.6-.047c.182-.012.365-.017.547-.024.136-.005.273-.012.41-.011.327,0,.654.007.981.011l.674.012c.119,0,.238.008.357.012.062,0,.124.006.186.012l.5.046c.131.012.262.022.393.037.167.02.336.044.5.07.135.02.269.046.4.068l.252.038c-.017-.083-.028-.163-.049-.239-.115-.418-.231-.837-.352-1.254-.045-.155-.1-.306-.152-.459-.014-.042-.026-.091-.079-.1q-.133-.023-.268-.036C16.2.7,16.064.693,15.927.68c-.163-.015-.327-.033-.49-.046C15.3.623,15.154.616,15.012.61,14.807.6,14.6.592,14.4.587s-.419-.01-.628-.01-.446,0-.669.01c-.292.006-.585.013-.878.024-.2.008-.4.022-.594.035s-.409.028-.613.046c-.152.013-.3.032-.455.048a.132.132,0,0,0-.12.1c-.062.193-.132.384-.193.577-.069.222-.134.446-.2.671-.047.168-.087.337-.129.506-.017.068-.027.137-.04.206m3.67,3.242h1.507a.372.372,0,0,0,.092-.008.3.3,0,0,0,.246-.323.258.258,0,0,0-.161-.259.5.5,0,0,0-.189-.043c-.555,0-1.11,0-1.666,0H12.052a.322.322,0,0,0-.338.282.312.312,0,0,0,.3.352c.514.005,1.028,0,1.543,0m3.621-.683a.662.662,0,1,0-.644-.7.668.668,0,0,0,.644.7M10.581,4.7a.648.648,0,0,0-.722-.657.662.662,0,0,0-.6.7.67.67,0,0,0,.661.626.651.651,0,0,0,.658-.665" transform="translate(-4.528 -1)" fill="#3d577c"/>
    </g>
  </g>
</svg>
<svg id="SRCC_leftNav" xmlns="http://www.w3.org/2000/svg" width="15.899" height="13.676" viewBox="0 0 15.899 13.676">
  <g id="SRC_s_Pending_Removal_C_" data-name="SRC’s Pending Removal “C”" transform="translate(0 1.079)">
    <g id="Group_6685" data-name="Group 6685">
      <path id="Path_16140" data-name="Path 16140" d="M13.588,11.9c-.291-.008-.582,0-.872,0a.662.662,0,0,0-.352.1,1.769,1.769,0,0,0-.19.156.059.059,0,0,1-.012-.02c-.075-.367-.173-.675-.275-1.035-.307.01-.7.007-.718.006.083.295.2.631.277.926.025.091.038.185.058.283-.1-.015-.2-.03-.3-.046-.159-.026-.318-.057-.478-.081-.2-.03-.4-.059-.6-.083-.155-.019-.31-.03-.465-.044l-.589-.055C9,12,8.929,12,8.856,12c-.141-.006-.282-.011-.423-.015l-.8-.014c-.387-.005-.775-.011-1.162-.013-.162,0-.324.007-.486.014-.216.008-.433.015-.649.028-.236.015-.472.033-.707.056s-.487.05-.729.084-.5.083-.743.123c-.119.019-.238.036-.367.055.016-.082.029-.164.048-.244.049-.2.1-.4.152-.6.074-.266.151-.531.233-.795.071-.229.154-.455.228-.684a.156.156,0,0,1,.142-.119c.18-.02.36-.042.54-.057.242-.021.484-.038.726-.055s.469-.032.7-.041c.346-.013.693-.021,1.04-.028.264-.006.528-.012.792-.012.248,0,.5,0,.744.012s.485.017.728.028c.168.007.336.015.5.028.075.006.15.014.226.021-.006-.227-.009-.457-.014-.689-.16-.011-.319-.022-.479-.031-.2-.011-.405-.02-.608-.028-.134-.005-.268-.01-.4-.013C7.84,9,7.587,9,7.334,9s-.511.006-.766.01l-.618.014c-.162,0-.324.009-.486.015-.062,0-.123.01-.185.013l-.6.03c-.131.007-.261.014-.392.027-.154.015-.309.035-.462.055s-.317.036-.471.071a.652.652,0,0,0-.439.322,3.728,3.728,0,0,0-.23.551c-.079.224-.145.453-.212.683q-.11.38-.21.763c-.052.2-.1.405-.145.611a.651.651,0,0,0-.525-.256c-.325-.011-.651,0-.975.009a.627.627,0,0,0-.547.374A1.686,1.686,0,0,0,0,12.471v.251c0,.007.012.013.014.02a.7.7,0,0,0,.357.465.76.76,0,0,0,.407.075c.108,0,.216,0,.329,0-.053.081-.1.151-.148.225a1.4,1.4,0,0,0-.228.688c-.012.64-.007,1.28-.007,1.92s0,1.275,0,1.913a.349.349,0,0,0,.331.362c.689,0,1.378,0,2.066,0a.285.285,0,0,0,.272-.159.6.6,0,0,0,.057-.207c.009-.117,0-.235,0-.354h7.395c0,.12,0,.236,0,.352a.543.543,0,0,0,.015.129.353.353,0,0,0,.348.242c.661,0,1.322-.006,1.983,0a.367.367,0,0,0,.384-.385c-.006-.621,0-1.243,0-1.864,0-.648-.007-1.3-.017-1.945a1.366,1.366,0,0,0-.206-.671c-.048-.082-.1-.16-.16-.246.056,0,.1,0,.152,0a3.8,3.8,0,0,0,.388-.017.687.687,0,0,0-.142-1.363M2.837,15.35a.785.785,0,0,1-.076-1.567.785.785,0,1,1,.076,1.567m6.2.8a.429.429,0,0,1-.109.01H7.14c-.61,0-1.219,0-1.829,0a.37.37,0,0,1-.352-.417.382.382,0,0,1,.4-.334H6.937c.658,0,1.316,0,1.975,0a.59.59,0,0,1,.224.052.306.306,0,0,1,.191.307.351.351,0,0,1-.292.382m2.4-.8a.791.791,0,0,1-.763-.832.782.782,0,0,1,.854-.733.784.784,0,0,1-.091,1.565" transform="translate(0 -5.798)" fill="#3d577c"/>
      <path id="Path_16141" data-name="Path 16141" d="M32.96,0H29.167a1.053,1.053,0,0,0-1.053,1.053V4.846A1.053,1.053,0,0,0,29.167,5.9H32.96a1.053,1.053,0,0,0,1.053-1.053V1.053A1.053,1.053,0,0,0,32.96,0m-.941,4.572a.293.293,0,0,1-.443-.014c-.309-.343-.612-.692-.945-1.071,0,.3,0,.566,0,.832,0,.146-.057.278-.205.3a.617.617,0,0,1-.342-.054c-.052-.024-.088-.138-.089-.211-.006-.954,0-1.907,0-2.86a.232.232,0,0,1,.263-.255c.32,0,.642-.022.961.005a.993.993,0,0,1,.914.939,1.045,1.045,0,0,1-.806,1.092c.2.228.376.434.553.64.064.074.128.148.185.227a.284.284,0,0,1-.041.426" transform="translate(-18.114 -1.079)" fill="#3d577c"/>
      <path id="Path_16142" data-name="Path 16142" d="M34.759,4.694a.391.391,0,0,0-.356-.369c-.161-.007-.323,0-.491,0v.769c.172,0,.334.007.5,0a.387.387,0,0,0,.351-.4" transform="translate(-21.389 -3.519)" fill="#3d577c"/>
    </g>
  </g>
</svg>
<svg id="AgedInventory_LeftNav" xmlns="http://www.w3.org/2000/svg" width="16.647" height="16.592" viewBox="0 0 16.647 16.592">
  <g id="Aged_Inventory_" data-name="Aged Inventory " transform="translate(-397.122 -402.894)">
    <path id="Path_16119" data-name="Path 16119" d="M22.413,25.608a.643.643,0,0,0-.627-.41c-.278-.007-.555,0-.833,0a.632.632,0,0,0-.336.095,1.69,1.69,0,0,0-.181.149.057.057,0,0,1-.011-.019,14.2,14.2,0,0,0-.372-1.435c-.094-.3-.19-.6-.3-.894a.662.662,0,0,0-.467-.431,3.683,3.683,0,0,0-.48-.081c-.226-.027-.452-.048-.679-.067-.208-.017-.416-.029-.625-.041s-.387-.019-.581-.027c-.128-.005-.256-.01-.384-.013-.242,0-.483-.011-.725-.011-.171,0-.342,0-.513.007-.066.1-.3.541-.357.661l.172,0c.252-.006.5-.011.757-.011.237,0,.474,0,.711.011s.463.016.7.026c.16.007.321.015.481.027.185.015.37.035.555.052.155.014.309.024.464.04q.152.015.3.041c.059.01.073.065.089.112.059.173.122.344.173.519.136.472.267.946.4,1.42.024.087.037.177.056.271l-.286-.043c-.152-.025-.3-.054-.457-.077-.19-.029-.379-.056-.57-.079-.148-.018-.3-.028-.444-.042l-.563-.052c-.07-.006-.14-.01-.211-.013-.135-.005-.269-.011-.4-.014l-.764-.014c-.37-.005-.74-.011-1.11-.013-.155,0-.309.007-.464.013-.207.008-.413.014-.62.027-.225.014-.45.032-.675.054s-.465.048-.7.081-.473.079-.71.118c-.113.018-.228.034-.351.052.015-.078.028-.156.046-.233.024-.1.114-.406.14-.506l-.089,0a4.711,4.711,0,0,1-.609.1c-.043.163-.1.386-.129.492a.622.622,0,0,0-.5-.245c-.31-.011-.621,0-.931.009a.6.6,0,0,0-.522.357,1.61,1.61,0,0,0-.068.174v.24c0,.006.012.012.013.019a.667.667,0,0,0,.341.444.726.726,0,0,0,.389.072c.1,0,.206,0,.314,0-.051.077-.1.144-.142.215a1.334,1.334,0,0,0-.217.657C9.495,28,9.5,28.611,9.5,29.222s0,1.218,0,1.827a.333.333,0,0,0,.317.345c.658,0,1.316,0,1.973,0a.272.272,0,0,0,.26-.152.576.576,0,0,0,.055-.2c.009-.112,0-.225,0-.338h7.062c0,.114,0,.225,0,.336a.518.518,0,0,0,.014.123.337.337,0,0,0,.332.231c.631,0,1.263-.006,1.893,0a.35.35,0,0,0,.367-.368c-.006-.593,0-1.187,0-1.78,0-.619-.006-1.238-.017-1.857a1.305,1.305,0,0,0-.2-.641c-.046-.078-.1-.153-.153-.235.054,0,.1,0,.145,0a3.627,3.627,0,0,0,.37-.017.646.646,0,0,0,.492-.892m-10.9,2.882a.75.75,0,0,1-.073-1.5.75.75,0,1,1,.073,1.5m5.92.763a.41.41,0,0,1-.1.009H15.627c-.582,0-1.164,0-1.746,0a.353.353,0,0,1-.336-.4.365.365,0,0,1,.383-.319h1.506c.629,0,1.257,0,1.886,0a.564.564,0,0,1,.214.049.293.293,0,0,1,.182.294.335.335,0,0,1-.279.365m2.288-.764A.756.756,0,0,1,19,27.7a.747.747,0,0,1,.815-.7.749.749,0,0,1-.087,1.495" transform="translate(391.306 388.088)" fill="#3d577c"/>
    <path id="Path_16120" data-name="Path 16120" d="M0,4.226c.047-.216.089-.433.14-.648A4.527,4.527,0,0,1,1,1.83,4.627,4.627,0,0,1,3.456.179,4.379,4.379,0,0,1,4.917.007,4.77,4.77,0,0,1,7.46.867,4.5,4.5,0,0,1,9.375,3.81a5.3,5.3,0,0,1,.1,1.219,4.618,4.618,0,0,1-.988,2.636,4.81,4.81,0,0,1-2.616,1.7,4.81,4.81,0,0,1-1.406.118,4.448,4.448,0,0,1-2.458-.855A4.618,4.618,0,0,1,.1,5.763C.071,5.608.035,5.454,0,5.3V4.226M5.056,2.75c0-.582,0-1.165,0-1.747,0-.239-.109-.345-.34-.341-.194,0-.285.1-.285.316,0,1.239,0,2.479.006,3.719a.549.549,0,0,0,.144.346c.788.8,1.586,1.595,2.381,2.39a.774.774,0,0,0,.074.071.365.365,0,0,0,.48-.013.337.337,0,0,0-.065-.469C6.688,6.259,5.924,5.5,5.167,4.731a.4.4,0,0,1-.105-.251c-.009-.576,0-1.153,0-1.73" transform="translate(397.122 402.895)" fill="#3d577c"/>
  </g>
</svg>

<svg id="UserGuide_LeftNav" xmlns="http://www.w3.org/2000/svg" width="16.344" height="16.649" viewBox="0 0 16.344 16.649">
  <g id="User_guide" data-name="User guide" transform="translate(0 0)">
    <g id="Group_6721" data-name="Group 6721" transform="translate(0 0)">
      <path id="Path_16181" data-name="Path 16181" d="M6.535,12.646a1.472,1.472,0,0,1-.277-.167c-.237-.224-.462-.461-.693-.693a1.554,1.554,0,0,0-1.154-.478c-1.282.005-2.563,0-3.845.01-.138,0-.189-.106-.288-.15a.858.858,0,0,1-.145-.1A2.055,2.055,0,0,1,.063,10.8a2.554,2.554,0,0,1-.016-.342V.636L0,.562.118.3.089.281A.423.423,0,0,0,.2.216.691.691,0,0,1,.766,0C2.245,0,3.724.009,5.2,0a2.651,2.651,0,0,1,1.3.35.845.845,0,0,1,.122.094l.046.078L6.721.48,6.854.347,6.878.323c.2-.081.391-.171.593-.237A1.438,1.438,0,0,1,7.9.01q2.375-.008,4.748,0a.649.649,0,0,1,.641.431.619.619,0,0,1,.045.225v9.763a.847.847,0,0,1-.149.622.675.675,0,0,1-.288.169,7.564,7.564,0,0,1-2,.089c-.679.025-1.359.007-2.042,0a1.148,1.148,0,0,0-.791.252c-.279.244-.551.5-.81.763a.762.762,0,0,1-.55.3.872.872,0,0,0-.146.023l-.012-.043-.015.038M11.994,1.351a.192.192,0,0,0-.037-.011h-4a.611.611,0,0,0-.55.392,1.029,1.029,0,0,0-.046.512V10.4a.789.789,0,0,0,.075-.033A2.5,2.5,0,0,1,8.7,9.978c1.043-.014,2.086,0,3.129,0h.167Z" transform="translate(0 0)" fill="#3d577c"/>
    </g>
  </g>
</svg>
<svg id="SoldVehicles_LeftNav" data-name="Vehicles Reported Sold to HMA" xmlns="http://www.w3.org/2000/svg" width="19.1" height="16.802" viewBox="0 0 19.1 16.802">
  <g id="Group_6694" data-name="Group 6694">
    <path id="Path_16146" data-name="Path 16146" d="M5.092,12.309c.723-.524,1.441-1.057,2.17-1.572a1,1,0,0,0,.359-1.42c-.558-.955-1.144-1.893-1.7-2.847a.992.992,0,0,0-1.281-.457c-.964.448-1.917.919-2.875,1.379-.4.191-.8.375-1.2.567A1.2,1.2,0,0,0,0,8.611V9.1c.052.1.1.212.158.313.215.363.436.723.653,1.084.51.85,1.015,1.7,1.532,2.548a.918.918,0,0,0,1.341.274c.475-.329.939-.675,1.407-1.014m-2.533-.855a2.653,2.653,0,0,1-.409-.609,6.328,6.328,0,0,1-.528-.995.927.927,0,0,1,.812-1.172,1.1,1.1,0,0,1,1.09.711c.157.283.346.549.5.835a3.358,3.358,0,0,1,.176.509.983.983,0,0,1-.637.905.881.881,0,0,1-1-.184" transform="translate(0 -3.646)" fill="#3d577c"/>
    <path id="Path_16147" data-name="Path 16147" d="M21.447,3.079a.534.534,0,0,0,.21-.234c.058-.145.064-.311.114-.46a.649.649,0,0,1,.175-.334c.444-.287.907-.544,1.357-.821a.812.812,0,0,0,.27-.248,2.31,2.31,0,0,0,.186-.456c.09-.268-.019-.427-.3-.458A1.661,1.661,0,0,1,23.211,0h-.387q-.547.326-1.093.653L18.374,2.668l-.68.407,1,1.664c.933-.561,1.847-1.107,2.755-1.661" transform="translate(-10.886)" fill="#3d577c"/>
    <path id="Path_16148" data-name="Path 16148" d="M24.851,20.856a.727.727,0,0,0-.711-.464c-.314-.008-.629,0-.944,0a.716.716,0,0,0-.381.107,1.914,1.914,0,0,0-.205.169.064.064,0,0,1-.013-.021,16.19,16.19,0,0,0-.421-1.625c-.107-.339-.215-.678-.339-1.012a.75.75,0,0,0-.529-.489,4.171,4.171,0,0,0-.544-.092c-.256-.031-.513-.054-.769-.075-.236-.019-.472-.033-.708-.046-.219-.012-.438-.021-.658-.03-.145-.006-.29-.011-.435-.014-.274-.005-.548-.012-.821-.012s-.553.007-.829.011l-.668.015c-.175,0-.35.009-.525.016-.067,0-.134.011-.2.014-.217.011-.433.021-.65.033-.141.008-.283.015-.424.029l-.02,0c-.005.025-.006.052-.013.076a1.351,1.351,0,0,1-.534.732c.133-.015.266-.031.4-.042.262-.023.524-.042.786-.059s.507-.035.761-.045c.375-.014.75-.022,1.125-.031.286-.007.571-.013.857-.013.269,0,.537.005.805.013s.525.018.787.03c.182.008.363.017.544.031.21.017.419.04.629.059.175.016.351.028.526.045q.173.017.344.046c.067.011.083.074.1.127.067.2.138.389.2.588.154.535.3,1.072.451,1.608.027.1.042.2.063.307-.11-.017-.217-.032-.324-.049-.172-.028-.344-.061-.517-.087-.215-.033-.43-.063-.645-.089-.168-.02-.336-.032-.5-.048l-.637-.059c-.08-.007-.159-.012-.239-.015-.153-.006-.3-.012-.458-.016q-.433-.009-.865-.015c-.419-.006-.838-.012-1.257-.014-.175,0-.35.008-.525.015-.234.009-.468.016-.7.031-.255.016-.51.036-.765.061s-.527.054-.788.091-.536.089-.8.134c-.129.021-.258.038-.4.059.017-.088.031-.177.052-.264.053-.217.1-.434.164-.649.08-.288.163-.575.252-.86.065-.207.137-.412.206-.618-.206.12-.545.367-.977.607-.028.1-.012.035-.04.131q-.119.411-.227.825c-.057.218-.105.438-.157.661a.7.7,0,0,0-.568-.277c-.351-.012-.7,0-1.055.01a.679.679,0,0,0-.591.4,1.824,1.824,0,0,0-.077.2v.272c.005.007.013.014.015.022a.755.755,0,0,0,.387.5.822.822,0,0,0,.44.082c.117,0,.234,0,.356,0-.058.087-.112.164-.16.244a1.511,1.511,0,0,0-.246.744c-.013.692-.007,1.384-.008,2.077s0,1.38,0,2.07a.378.378,0,0,0,.359.391c.745,0,1.49,0,2.235,0a.308.308,0,0,0,.295-.172.652.652,0,0,0,.062-.224c.01-.127,0-.255,0-.382h8c0,.13,0,.255,0,.381a.568.568,0,0,0,.016.14.382.382,0,0,0,.376.262c.715,0,1.43-.007,2.145,0A.4.4,0,0,0,24.128,27c-.007-.672,0-1.344,0-2.017,0-.7-.008-1.4-.019-2.1a1.478,1.478,0,0,0-.222-.726c-.052-.089-.112-.173-.174-.267.061,0,.113,0,.165,0a4.108,4.108,0,0,0,.419-.019.732.732,0,0,0,.557-1.01M12.51,24.12a.849.849,0,0,1-.083-1.695.849.849,0,1,1,.083,1.695m6.705.864a.464.464,0,0,1-.118.01H17.165c-.66,0-1.319,0-1.978,0a.4.4,0,0,1-.381-.451.414.414,0,0,1,.434-.361q.853,0,1.706,0c.712,0,1.424,0,2.136,0a.639.639,0,0,1,.242.056.331.331,0,0,1,.207.332.38.38,0,0,1-.316.413m2.592-.865a.856.856,0,0,1-.825-.9.846.846,0,0,1,.923-.793.848.848,0,0,1-.1,1.693" transform="translate(-5.808 -10.612)" fill="#3d577c"/>
  </g>
</svg>
<svg id="ActiveInventory_LeftNav" xmlns="http://www.w3.org/2000/svg" width="16.778" height="16.631" viewBox="0 0 16.778 16.631">
  <g id="Active_Inventory_" data-name="Active Inventory " transform="translate(-408.209 -339.999)">
    <path id="Path_16114" data-name="Path 16114" d="M22.607,25.48a.646.646,0,0,0-.631-.412c-.279-.008-.558,0-.838,0a.635.635,0,0,0-.338.1,1.7,1.7,0,0,0-.182.15.057.057,0,0,1-.011-.019,14.279,14.279,0,0,0-.374-1.442c-.095-.3-.191-.6-.3-.9a.665.665,0,0,0-.469-.434,3.7,3.7,0,0,0-.483-.082c-.227-.027-.455-.048-.683-.067-.209-.017-.418-.029-.628-.041-.195-.011-.389-.019-.584-.027-.128-.005-.257-.01-.386-.013-.243,0-.486-.011-.729-.011-.172,0-.344,0-.516.007-.066.1-.3.544-.359.665l.173,0c.254-.006.507-.011.761-.011.238,0,.477,0,.715.011s.466.016.7.027c.161.007.322.015.483.027.186.015.372.036.558.053.155.014.311.025.467.04q.153.015.3.041c.059.01.073.066.09.113.059.173.123.346.173.522.137.475.268.951.4,1.427.024.087.037.178.056.272l-.288-.044c-.153-.025-.306-.054-.459-.078-.191-.029-.381-.056-.573-.079-.149-.018-.3-.028-.447-.042l-.566-.053c-.07-.006-.141-.01-.212-.013-.135-.005-.27-.011-.406-.014l-.768-.014c-.372-.005-.744-.011-1.116-.013-.155,0-.311.007-.466.013-.208.008-.416.014-.623.027-.226.014-.453.032-.679.054s-.468.048-.7.081-.476.079-.714.119c-.114.018-.229.034-.353.053.015-.079.028-.157.046-.234.024-.1.115-.408.14-.509l-.089,0a4.736,4.736,0,0,1-.612.1c-.043.164-.1.388-.13.495a.625.625,0,0,0-.5-.246c-.312-.011-.625,0-.936.009A.6.6,0,0,0,9,25.439a1.619,1.619,0,0,0-.068.175v.241c0,.006.012.012.013.019a.67.67,0,0,0,.343.447.73.73,0,0,0,.391.072c.1,0,.207,0,.316,0-.051.078-.1.145-.142.216a1.341,1.341,0,0,0-.219.661c-.011.614-.006,1.229-.007,1.843s0,1.225,0,1.837a.335.335,0,0,0,.318.347c.661,0,1.323,0,1.984,0a.274.274,0,0,0,.262-.153.579.579,0,0,0,.055-.2c.009-.112,0-.226,0-.339h7.1c0,.115,0,.226,0,.338a.521.521,0,0,0,.014.124.339.339,0,0,0,.334.232c.635,0,1.269-.006,1.9,0a.352.352,0,0,0,.369-.37c-.006-.6,0-1.193,0-1.79,0-.622-.006-1.245-.017-1.867a1.312,1.312,0,0,0-.2-.644c-.046-.079-.1-.153-.154-.237.054,0,.1,0,.146,0a3.646,3.646,0,0,0,.372-.017.65.65,0,0,0,.495-.9m-10.954,2.9a.754.754,0,0,1-.073-1.5.754.754,0,1,1,.073,1.5m5.951.767a.412.412,0,0,1-.1.009H15.784c-.585,0-1.17,0-1.756,0a.355.355,0,0,1-.338-.4.367.367,0,0,1,.385-.321H15.59c.632,0,1.264,0,1.9,0a.567.567,0,0,1,.215.05.294.294,0,0,1,.183.3.337.337,0,0,1-.28.367m2.3-.768a.76.76,0,0,1-.732-.8.751.751,0,0,1,.82-.7.753.753,0,0,1-.087,1.5" transform="translate(402.329 325.329)" fill="#3d577c"/>
    <path id="Path_16115" data-name="Path 16115" d="M5.431,9.58A4.691,4.691,0,0,0,6.9,9.136a4.862,4.862,0,0,0,2.02-1.844A4.542,4.542,0,0,0,9.6,5.08a5.564,5.564,0,0,0-.1-1.235A4.573,4.573,0,0,0,7.574.885,4.8,4.8,0,0,0,4.982.007,4.479,4.479,0,0,0,3.5.181,4.684,4.684,0,0,0,1.009,1.853,4.593,4.593,0,0,0,.142,3.626C.09,3.843.047,4.063,0,4.282V5.369c.026.136.048.273.079.407A5.076,5.076,0,0,0,1.158,7.955,4.739,4.739,0,0,0,5.431,9.58M3,8.228a.647.647,0,0,1-1.016-.446,1.51,1.51,0,0,1,.056-.571c.085-.474.182-.947.27-1.42a.309.309,0,0,0-.106-.308C1.761,5.073,1.331,4.648.885,4.24A.611.611,0,0,1,.912,3.227a1.174,1.174,0,0,1,.521-.167c.566-.082,1.135-.141,1.7-.22a.309.309,0,0,0,.2-.142c.291-.542.573-1.089.853-1.636A.624.624,0,0,1,4.736.668a.672.672,0,0,1,.692.4c.259.512.543,1.012.772,1.537.119.274.335.234.533.27.309.056.621.094.931.138.265.038.533.063.8.113.869.233.558.806.346,1.017-.482.47-.977.926-1.476,1.377-.129.116-.038.227-.022.328.092.554.211,1.1.3,1.659a.653.653,0,0,1-.956.741c-.583-.281-1.158-.577-1.74-.859a.316.316,0,0,0-.243,0c-.558.275-1.107.569-1.666.84" transform="translate(408.209 340)" fill="#3d577c"/>
    <path id="Path_16116" data-name="Path 16116" d="M7.585,9.229q.442.236.89.461c.324.164.65.323,1.019.505-.072-.415-.134-.782-.2-1.149-.063-.351-.135-.7-.191-1.054a.265.265,0,0,1,.071-.2c.362-.352.732-.7,1.1-1.045.177-.169.35-.342.547-.536-.283-.033-.516-.056-.749-.088C9.681,6.071,9.292,6,8.9,5.957A.736.736,0,0,1,8.213,5.5c-.252-.56-.553-1.1-.835-1.645a.729.729,0,0,0-.072-.1c-.332.632-.656,1.245-.976,1.86-.068.13-.133.243-.3.264-.389.048-.776.114-1.164.172-.344.051-.689.1-1.056.152.067.07.113.123.163.17.463.441.923.885,1.393,1.319a.415.415,0,0,1,.123.409c-.12.684-.25,1.366-.38,2.071.055-.023.086-.034.116-.049.606-.3,1.213-.6,1.814-.909a.542.542,0,0,1,.55.008" transform="translate(405.703 337.522)" fill="#3d577c"/>
  </g>
</svg>
<svg id="BrandedTitleDecertifiedVehicles_LeftNav" xmlns="http://www.w3.org/2000/svg" width="16.676" height="16.633" viewBox="0 0 16.676 16.633">
  <g id="Branded_Title_Decertified_Vehicles_" data-name="Branded Title Decertified Vehicles " transform="translate(0)">
    <g id="Group_6666" data-name="Group 6666" transform="translate(0)">
      <path id="Path_16121" data-name="Path 16121" d="M22.391,25.59a.644.644,0,0,0-.629-.411c-.278-.007-.557,0-.836,0a.634.634,0,0,0-.337.1,1.7,1.7,0,0,0-.182.149A.057.057,0,0,1,20.4,25.4a14.249,14.249,0,0,0-.373-1.439c-.094-.3-.19-.6-.3-.9a.664.664,0,0,0-.468-.433,3.694,3.694,0,0,0-.482-.081c-.227-.027-.454-.048-.681-.067-.209-.017-.417-.029-.627-.041s-.388-.019-.583-.027c-.128-.005-.257-.01-.385-.013-.243,0-.485-.011-.727-.011-.172,0-.343,0-.515.007-.066.1-.3.543-.358.663l.172,0c.253-.006.506-.011.759-.011.238,0,.476,0,.713.011s.465.016.7.027c.161.007.322.015.482.027.186.015.371.035.557.052.155.014.31.025.465.04q.153.015.3.041c.059.01.073.065.09.113.059.173.122.345.173.52.136.474.268.949.4,1.424.024.087.037.177.056.272l-.287-.044c-.153-.025-.3-.054-.458-.077-.19-.029-.381-.056-.571-.079-.148-.018-.3-.028-.446-.042l-.564-.052c-.07-.006-.141-.01-.211-.013-.135-.005-.27-.011-.4-.014l-.766-.014c-.371-.005-.742-.011-1.114-.013-.155,0-.31.007-.465.013-.207.008-.415.014-.622.027-.226.014-.452.032-.677.054s-.466.048-.7.081-.475.079-.712.118c-.114.018-.228.034-.352.052.015-.078.028-.157.046-.234.024-.1.115-.407.14-.507l-.089,0a4.725,4.725,0,0,1-.611.1c-.043.164-.1.387-.13.494a.624.624,0,0,0-.5-.246c-.311-.011-.623,0-.934.009a.6.6,0,0,0-.524.358,1.616,1.616,0,0,0-.068.175v.241c0,.006.012.012.013.019a.669.669,0,0,0,.342.446.728.728,0,0,0,.39.072c.1,0,.207,0,.315,0-.051.077-.1.145-.142.216a1.338,1.338,0,0,0-.218.659c-.011.613-.006,1.226-.007,1.839s0,1.222,0,1.833a.334.334,0,0,0,.318.347c.66,0,1.32,0,1.979,0a.273.273,0,0,0,.261-.153.578.578,0,0,0,.055-.2c.009-.112,0-.226,0-.339h7.084c0,.115,0,.226,0,.337a.52.52,0,0,0,.014.124.338.338,0,0,0,.333.232c.633,0,1.267-.006,1.9,0a.351.351,0,0,0,.368-.369c-.006-.6,0-1.191,0-1.786,0-.621-.006-1.242-.017-1.863a1.309,1.309,0,0,0-.2-.643c-.046-.079-.1-.153-.154-.236.054,0,.1,0,.146,0a3.639,3.639,0,0,0,.371-.017.648.648,0,0,0,.493-.894M11.462,28.481a.752.752,0,0,1-.073-1.5.752.752,0,1,1,.073,1.5m5.938.765a.411.411,0,0,1-.1.009H15.584c-.584,0-1.168,0-1.752,0a.354.354,0,0,1-.337-.4.366.366,0,0,1,.384-.32H15.39c.631,0,1.261,0,1.892,0a.566.566,0,0,1,.214.049.293.293,0,0,1,.183.294.336.336,0,0,1-.279.366m2.3-.766a.758.758,0,0,1-.731-.8.749.749,0,0,1,.818-.7.751.751,0,0,1-.087,1.5" transform="translate(-5.765 -14.765)" fill="#3d577c"/>
      <path id="Path_16122" data-name="Path 16122" d="M5.234,0c.2.046.395.1.594.136A4.246,4.246,0,0,1,7.5.878,4.63,4.63,0,0,1,9.019,2.664,4.707,4.707,0,0,1,9.465,4.3a4.64,4.64,0,0,1-.984,3.386A4.693,4.693,0,0,1,4.095,9.457,4.757,4.757,0,0,1,.455,6.785,4.411,4.411,0,0,1,.039,5.362a4.672,4.672,0,0,1,.978-3.553A4.768,4.768,0,0,1,3.531.144,5.812,5.812,0,0,1,4.177.033C4.2.03,4.213.011,4.23,0ZM4.742,3.807c-.825,0-1.65,0-2.475,0a1.276,1.276,0,0,0-.336.04.95.95,0,0,0-.673.948A1,1,0,0,0,2.291,5.7c1.541-.023,3.081-.008,4.622-.009a4.529,4.529,0,0,0,.466-.011.927.927,0,0,0,.807-1.19.905.905,0,0,0-.917-.684c-.842-.006-1.685,0-2.527,0" transform="translate(0)" fill="#3d577c"/>
      <path id="Path_16123" data-name="Path 16123" d="M8.439,13.011H5.947c-.247,0-.35.093-.352.312s.107.321.35.321q2.5,0,5,0a.293.293,0,0,0,.331-.3.311.311,0,0,0-.347-.328H8.439" transform="translate(-3.689 -8.577)" fill="#3d577c"/>
      <path id="Path_16124" data-name="Path 16124" d="M8.439,13.011h2.492a.311.311,0,0,1,.347.328.293.293,0,0,1-.331.3q-2.5,0-5,0c-.243,0-.351-.107-.35-.321s.1-.312.352-.312H8.439" transform="translate(-3.689 -8.577)" fill="#3d577c"/>
    </g>
  </g>
</svg>
<svg id="CarfaxDecertifiedVehicles_LeftNav" xmlns="http://www.w3.org/2000/svg" width="16.676" height="16.633" viewBox="0 0 16.676 16.633">
  <g id="Carfax_Decertified_Vehicles" data-name="Carfax Decertified Vehicles" transform="translate(0)">
    <g id="Group_6666" data-name="Group 6666" transform="translate(0)">
      <path id="Path_16121" data-name="Path 16121" d="M22.391,25.59a.644.644,0,0,0-.629-.411c-.278-.007-.557,0-.836,0a.634.634,0,0,0-.337.1,1.7,1.7,0,0,0-.182.149A.057.057,0,0,1,20.4,25.4a14.249,14.249,0,0,0-.373-1.439c-.094-.3-.19-.6-.3-.9a.664.664,0,0,0-.468-.433,3.694,3.694,0,0,0-.482-.081c-.227-.027-.454-.048-.681-.067-.209-.017-.417-.029-.627-.041s-.388-.019-.583-.027c-.128-.005-.257-.01-.385-.013-.243,0-.485-.011-.727-.011-.172,0-.343,0-.515.007-.066.1-.3.543-.358.663l.172,0c.253-.006.506-.011.759-.011.238,0,.476,0,.713.011s.465.016.7.027c.161.007.322.015.482.027.186.015.371.035.557.052.155.014.31.025.465.04q.153.015.3.041c.059.01.073.065.09.113.059.173.122.345.173.52.136.474.268.949.4,1.424.024.087.037.177.056.272l-.287-.044c-.153-.025-.3-.054-.458-.077-.19-.029-.381-.056-.571-.079-.148-.018-.3-.028-.446-.042l-.564-.052c-.07-.006-.141-.01-.211-.013-.135-.005-.27-.011-.4-.014l-.766-.014c-.371-.005-.742-.011-1.114-.013-.155,0-.31.007-.465.013-.207.008-.415.014-.622.027-.226.014-.452.032-.677.054s-.466.048-.7.081-.475.079-.712.118c-.114.018-.228.034-.352.052.015-.078.028-.157.046-.234.024-.1.115-.407.14-.507l-.089,0a4.725,4.725,0,0,1-.611.1c-.043.164-.1.387-.13.494a.624.624,0,0,0-.5-.246c-.311-.011-.623,0-.934.009a.6.6,0,0,0-.524.358,1.616,1.616,0,0,0-.068.175v.241c0,.006.012.012.013.019a.669.669,0,0,0,.342.446.728.728,0,0,0,.39.072c.1,0,.207,0,.315,0-.051.077-.1.145-.142.216a1.338,1.338,0,0,0-.218.659c-.011.613-.006,1.226-.007,1.839s0,1.222,0,1.833a.334.334,0,0,0,.318.347c.66,0,1.32,0,1.979,0a.273.273,0,0,0,.261-.153.578.578,0,0,0,.055-.2c.009-.112,0-.226,0-.339h7.084c0,.115,0,.226,0,.337a.52.52,0,0,0,.014.124.338.338,0,0,0,.333.232c.633,0,1.267-.006,1.9,0a.351.351,0,0,0,.368-.369c-.006-.6,0-1.191,0-1.786,0-.621-.006-1.242-.017-1.863a1.309,1.309,0,0,0-.2-.643c-.046-.079-.1-.153-.154-.236.054,0,.1,0,.146,0a3.639,3.639,0,0,0,.371-.017.648.648,0,0,0,.493-.894M11.462,28.481a.752.752,0,0,1-.073-1.5.752.752,0,1,1,.073,1.5m5.938.765a.411.411,0,0,1-.1.009H15.584c-.584,0-1.168,0-1.752,0a.354.354,0,0,1-.337-.4.366.366,0,0,1,.384-.32H15.39c.631,0,1.261,0,1.892,0a.566.566,0,0,1,.214.049.293.293,0,0,1,.183.294.336.336,0,0,1-.279.366m2.3-.766a.758.758,0,0,1-.731-.8.749.749,0,0,1,.818-.7.751.751,0,0,1-.087,1.5" transform="translate(-5.765 -14.765)" fill="#3d577c"/>
      <path id="Path_16122" data-name="Path 16122" d="M5.234,0c.2.046.395.1.594.136A4.246,4.246,0,0,1,7.5.878,4.63,4.63,0,0,1,9.019,2.664,4.707,4.707,0,0,1,9.465,4.3a4.64,4.64,0,0,1-.984,3.386A4.693,4.693,0,0,1,4.095,9.457,4.757,4.757,0,0,1,.455,6.785,4.411,4.411,0,0,1,.039,5.362a4.672,4.672,0,0,1,.978-3.553A4.768,4.768,0,0,1,3.531.144,5.812,5.812,0,0,1,4.177.033C4.2.03,4.213.011,4.23,0ZM4.742,3.807c-.825,0-1.65,0-2.475,0a1.276,1.276,0,0,0-.336.04.95.95,0,0,0-.673.948A1,1,0,0,0,2.291,5.7c1.541-.023,3.081-.008,4.622-.009a4.529,4.529,0,0,0,.466-.011.927.927,0,0,0,.807-1.19.905.905,0,0,0-.917-.684c-.842-.006-1.685,0-2.527,0" transform="translate(0)" fill="#3d577c"/>
      <path id="Path_16123" data-name="Path 16123" d="M8.439,13.011H5.947c-.247,0-.35.093-.352.312s.107.321.35.321q2.5,0,5,0a.293.293,0,0,0,.331-.3.311.311,0,0,0-.347-.328H8.439" transform="translate(-3.689 -8.577)" fill="#3d577c"/>
      <path id="Path_16124" data-name="Path 16124" d="M8.439,13.011h2.492a.311.311,0,0,1,.347.328.293.293,0,0,1-.331.3q-2.5,0-5,0c-.243,0-.351-.107-.35-.321s.1-.312.352-.312H8.439" transform="translate(-3.689 -8.577)" fill="#3d577c"/>
    </g>
  </g>
</svg>
<svg id="DealerDecertifiedVehicles_LeftNav" xmlns="http://www.w3.org/2000/svg" width="16.676" height="16.633" viewBox="0 0 16.676 16.633">
  <g id="Dealer_Removed_Inventory" data-name="Dealer Removed Inventory" transform="translate(0)">
    <g id="Group_6666" data-name="Group 6666" transform="translate(0)">
      <path id="Path_16121" data-name="Path 16121" d="M22.391,25.59a.644.644,0,0,0-.629-.411c-.278-.007-.557,0-.836,0a.634.634,0,0,0-.337.1,1.7,1.7,0,0,0-.182.149A.057.057,0,0,1,20.4,25.4a14.249,14.249,0,0,0-.373-1.439c-.094-.3-.19-.6-.3-.9a.664.664,0,0,0-.468-.433,3.694,3.694,0,0,0-.482-.081c-.227-.027-.454-.048-.681-.067-.209-.017-.417-.029-.627-.041s-.388-.019-.583-.027c-.128-.005-.257-.01-.385-.013-.243,0-.485-.011-.727-.011-.172,0-.343,0-.515.007-.066.1-.3.543-.358.663l.172,0c.253-.006.506-.011.759-.011.238,0,.476,0,.713.011s.465.016.7.027c.161.007.322.015.482.027.186.015.371.035.557.052.155.014.31.025.465.04q.153.015.3.041c.059.01.073.065.09.113.059.173.122.345.173.52.136.474.268.949.4,1.424.024.087.037.177.056.272l-.287-.044c-.153-.025-.3-.054-.458-.077-.19-.029-.381-.056-.571-.079-.148-.018-.3-.028-.446-.042l-.564-.052c-.07-.006-.141-.01-.211-.013-.135-.005-.27-.011-.4-.014l-.766-.014c-.371-.005-.742-.011-1.114-.013-.155,0-.31.007-.465.013-.207.008-.415.014-.622.027-.226.014-.452.032-.677.054s-.466.048-.7.081-.475.079-.712.118c-.114.018-.228.034-.352.052.015-.078.028-.157.046-.234.024-.1.115-.407.14-.507l-.089,0a4.725,4.725,0,0,1-.611.1c-.043.164-.1.387-.13.494a.624.624,0,0,0-.5-.246c-.311-.011-.623,0-.934.009a.6.6,0,0,0-.524.358,1.616,1.616,0,0,0-.068.175v.241c0,.006.012.012.013.019a.669.669,0,0,0,.342.446.728.728,0,0,0,.39.072c.1,0,.207,0,.315,0-.051.077-.1.145-.142.216a1.338,1.338,0,0,0-.218.659c-.011.613-.006,1.226-.007,1.839s0,1.222,0,1.833a.334.334,0,0,0,.318.347c.66,0,1.32,0,1.979,0a.273.273,0,0,0,.261-.153.578.578,0,0,0,.055-.2c.009-.112,0-.226,0-.339h7.084c0,.115,0,.226,0,.337a.52.52,0,0,0,.014.124.338.338,0,0,0,.333.232c.633,0,1.267-.006,1.9,0a.351.351,0,0,0,.368-.369c-.006-.6,0-1.191,0-1.786,0-.621-.006-1.242-.017-1.863a1.309,1.309,0,0,0-.2-.643c-.046-.079-.1-.153-.154-.236.054,0,.1,0,.146,0a3.639,3.639,0,0,0,.371-.017.648.648,0,0,0,.493-.894M11.462,28.481a.752.752,0,0,1-.073-1.5.752.752,0,1,1,.073,1.5m5.938.765a.411.411,0,0,1-.1.009H15.584c-.584,0-1.168,0-1.752,0a.354.354,0,0,1-.337-.4.366.366,0,0,1,.384-.32H15.39c.631,0,1.261,0,1.892,0a.566.566,0,0,1,.214.049.293.293,0,0,1,.183.294.336.336,0,0,1-.279.366m2.3-.766a.758.758,0,0,1-.731-.8.749.749,0,0,1,.818-.7.751.751,0,0,1-.087,1.5" transform="translate(-5.765 -14.765)" fill="#3d577c"/>
      <path id="Path_16122" data-name="Path 16122" d="M5.234,0c.2.046.395.1.594.136A4.246,4.246,0,0,1,7.5.878,4.63,4.63,0,0,1,9.019,2.664,4.707,4.707,0,0,1,9.465,4.3a4.64,4.64,0,0,1-.984,3.386A4.693,4.693,0,0,1,4.095,9.457,4.757,4.757,0,0,1,.455,6.785,4.411,4.411,0,0,1,.039,5.362a4.672,4.672,0,0,1,.978-3.553A4.768,4.768,0,0,1,3.531.144,5.812,5.812,0,0,1,4.177.033C4.2.03,4.213.011,4.23,0ZM4.742,3.807c-.825,0-1.65,0-2.475,0a1.276,1.276,0,0,0-.336.04.95.95,0,0,0-.673.948A1,1,0,0,0,2.291,5.7c1.541-.023,3.081-.008,4.622-.009a4.529,4.529,0,0,0,.466-.011.927.927,0,0,0,.807-1.19.905.905,0,0,0-.917-.684c-.842-.006-1.685,0-2.527,0" transform="translate(0)" fill="#3d577c"/>
      <path id="Path_16123" data-name="Path 16123" d="M8.439,13.011H5.947c-.247,0-.35.093-.352.312s.107.321.35.321q2.5,0,5,0a.293.293,0,0,0,.331-.3.311.311,0,0,0-.347-.328H8.439" transform="translate(-3.689 -8.577)" fill="#3d577c"/>
      <path id="Path_16124" data-name="Path 16124" d="M8.439,13.011h2.492a.311.311,0,0,1,.347.328.293.293,0,0,1-.331.3q-2.5,0-5,0c-.243,0-.351-.107-.35-.321s.1-.312.352-.312H8.439" transform="translate(-3.689 -8.577)" fill="#3d577c"/>
    </g>
  </g>
</svg>
<svg id="HMADecertifiedVehicles_LeftNav" data-name="HMADecertifiedVehicles_LeftNav" xmlns="http://www.w3.org/2000/svg" width="16.676" height="16.633" viewBox="0 0 16.676 16.633">
  <g id="HMA_Decertified_Vehicles_" data-name="HMA Decertified Vehicles " transform="translate(0)">
    <g id="Group_6666" data-name="Group 6666" transform="translate(0)">
      <path id="Path_16121" data-name="Path 16121" d="M22.391,25.59a.644.644,0,0,0-.629-.411c-.278-.007-.557,0-.836,0a.634.634,0,0,0-.337.1,1.7,1.7,0,0,0-.182.149A.057.057,0,0,1,20.4,25.4a14.249,14.249,0,0,0-.373-1.439c-.094-.3-.19-.6-.3-.9a.664.664,0,0,0-.468-.433,3.694,3.694,0,0,0-.482-.081c-.227-.027-.454-.048-.681-.067-.209-.017-.417-.029-.627-.041s-.388-.019-.583-.027c-.128-.005-.257-.01-.385-.013-.243,0-.485-.011-.727-.011-.172,0-.343,0-.515.007-.066.1-.3.543-.358.663l.172,0c.253-.006.506-.011.759-.011.238,0,.476,0,.713.011s.465.016.7.027c.161.007.322.015.482.027.186.015.371.035.557.052.155.014.31.025.465.04q.153.015.3.041c.059.01.073.065.09.113.059.173.122.345.173.52.136.474.268.949.4,1.424.024.087.037.177.056.272l-.287-.044c-.153-.025-.3-.054-.458-.077-.19-.029-.381-.056-.571-.079-.148-.018-.3-.028-.446-.042l-.564-.052c-.07-.006-.141-.01-.211-.013-.135-.005-.27-.011-.4-.014l-.766-.014c-.371-.005-.742-.011-1.114-.013-.155,0-.31.007-.465.013-.207.008-.415.014-.622.027-.226.014-.452.032-.677.054s-.466.048-.7.081-.475.079-.712.118c-.114.018-.228.034-.352.052.015-.078.028-.157.046-.234.024-.1.115-.407.14-.507l-.089,0a4.725,4.725,0,0,1-.611.1c-.043.164-.1.387-.13.494a.624.624,0,0,0-.5-.246c-.311-.011-.623,0-.934.009a.6.6,0,0,0-.524.358,1.616,1.616,0,0,0-.068.175v.241c0,.006.012.012.013.019a.669.669,0,0,0,.342.446.728.728,0,0,0,.39.072c.1,0,.207,0,.315,0-.051.077-.1.145-.142.216a1.338,1.338,0,0,0-.218.659c-.011.613-.006,1.226-.007,1.839s0,1.222,0,1.833a.334.334,0,0,0,.318.347c.66,0,1.32,0,1.979,0a.273.273,0,0,0,.261-.153.578.578,0,0,0,.055-.2c.009-.112,0-.226,0-.339h7.084c0,.115,0,.226,0,.337a.52.52,0,0,0,.014.124.338.338,0,0,0,.333.232c.633,0,1.267-.006,1.9,0a.351.351,0,0,0,.368-.369c-.006-.6,0-1.191,0-1.786,0-.621-.006-1.242-.017-1.863a1.309,1.309,0,0,0-.2-.643c-.046-.079-.1-.153-.154-.236.054,0,.1,0,.146,0a3.639,3.639,0,0,0,.371-.017.648.648,0,0,0,.493-.894M11.462,28.481a.752.752,0,0,1-.073-1.5.752.752,0,1,1,.073,1.5m5.938.765a.411.411,0,0,1-.1.009H15.584c-.584,0-1.168,0-1.752,0a.354.354,0,0,1-.337-.4.366.366,0,0,1,.384-.32H15.39c.631,0,1.261,0,1.892,0a.566.566,0,0,1,.214.049.293.293,0,0,1,.183.294.336.336,0,0,1-.279.366m2.3-.766a.758.758,0,0,1-.731-.8.749.749,0,0,1,.818-.7.751.751,0,0,1-.087,1.5" transform="translate(-5.765 -14.765)" fill="#3d577c"/>
      <path id="Path_16122" data-name="Path 16122" d="M5.234,0c.2.046.395.1.594.136A4.246,4.246,0,0,1,7.5.878,4.63,4.63,0,0,1,9.019,2.664,4.707,4.707,0,0,1,9.465,4.3a4.64,4.64,0,0,1-.984,3.386A4.693,4.693,0,0,1,4.095,9.457,4.757,4.757,0,0,1,.455,6.785,4.411,4.411,0,0,1,.039,5.362a4.672,4.672,0,0,1,.978-3.553A4.768,4.768,0,0,1,3.531.144,5.812,5.812,0,0,1,4.177.033C4.2.03,4.213.011,4.23,0ZM4.742,3.807c-.825,0-1.65,0-2.475,0a1.276,1.276,0,0,0-.336.04.95.95,0,0,0-.673.948A1,1,0,0,0,2.291,5.7c1.541-.023,3.081-.008,4.622-.009a4.529,4.529,0,0,0,.466-.011.927.927,0,0,0,.807-1.19.905.905,0,0,0-.917-.684c-.842-.006-1.685,0-2.527,0" transform="translate(0)" fill="#3d577c"/>
      <path id="Path_16123" data-name="Path 16123" d="M8.439,13.011H5.947c-.247,0-.35.093-.352.312s.107.321.35.321q2.5,0,5,0a.293.293,0,0,0,.331-.3.311.311,0,0,0-.347-.328H8.439" transform="translate(-3.689 -8.577)" fill="#3d577c"/>
      <path id="Path_16124" data-name="Path 16124" d="M8.439,13.011h2.492a.311.311,0,0,1,.347.328.293.293,0,0,1-.331.3q-2.5,0-5,0c-.243,0-.351-.107-.35-.321s.1-.312.352-.312H8.439" transform="translate(-3.689 -8.577)" fill="#3d577c"/>
    </g>
  </g>
</svg>
<svg id="ModelYearDisqualifiedVehicles_LeftNav" xmlns="http://www.w3.org/2000/svg" width="16.676" height="16.633" viewBox="0 0 16.676 16.633">
  <g id="Group_6671" data-name="Group 6671" transform="translate(0)">
    <g id="Group_6666" data-name="Group 6666" transform="translate(0)">
      <path id="Path_16121" data-name="Path 16121" d="M22.391,25.59a.644.644,0,0,0-.629-.411c-.278-.007-.557,0-.836,0a.634.634,0,0,0-.337.1,1.7,1.7,0,0,0-.182.149A.057.057,0,0,1,20.4,25.4a14.249,14.249,0,0,0-.373-1.439c-.094-.3-.19-.6-.3-.9a.664.664,0,0,0-.468-.433,3.694,3.694,0,0,0-.482-.081c-.227-.027-.454-.048-.681-.067-.209-.017-.417-.029-.627-.041s-.388-.019-.583-.027c-.128-.005-.257-.01-.385-.013-.243,0-.485-.011-.727-.011-.172,0-.343,0-.515.007-.066.1-.3.543-.358.663l.172,0c.253-.006.506-.011.759-.011.238,0,.476,0,.713.011s.465.016.7.027c.161.007.322.015.482.027.186.015.371.035.557.052.155.014.31.025.465.04q.153.015.3.041c.059.01.073.065.09.113.059.173.122.345.173.52.136.474.268.949.4,1.424.024.087.037.177.056.272l-.287-.044c-.153-.025-.3-.054-.458-.077-.19-.029-.381-.056-.571-.079-.148-.018-.3-.028-.446-.042l-.564-.052c-.07-.006-.141-.01-.211-.013-.135-.005-.27-.011-.4-.014l-.766-.014c-.371-.005-.742-.011-1.114-.013-.155,0-.31.007-.465.013-.207.008-.415.014-.622.027-.226.014-.452.032-.677.054s-.466.048-.7.081-.475.079-.712.118c-.114.018-.228.034-.352.052.015-.078.028-.157.046-.234.024-.1.115-.407.14-.507l-.089,0a4.725,4.725,0,0,1-.611.1c-.043.164-.1.387-.13.494a.624.624,0,0,0-.5-.246c-.311-.011-.623,0-.934.009a.6.6,0,0,0-.524.358,1.616,1.616,0,0,0-.068.175v.241c0,.006.012.012.013.019a.669.669,0,0,0,.342.446.728.728,0,0,0,.39.072c.1,0,.207,0,.315,0-.051.077-.1.145-.142.216a1.338,1.338,0,0,0-.218.659c-.011.613-.006,1.226-.007,1.839s0,1.222,0,1.833a.334.334,0,0,0,.318.347c.66,0,1.32,0,1.979,0a.273.273,0,0,0,.261-.153.578.578,0,0,0,.055-.2c.009-.112,0-.226,0-.339h7.084c0,.115,0,.226,0,.337a.52.52,0,0,0,.014.124.338.338,0,0,0,.333.232c.633,0,1.267-.006,1.9,0a.351.351,0,0,0,.368-.369c-.006-.6,0-1.191,0-1.786,0-.621-.006-1.242-.017-1.863a1.309,1.309,0,0,0-.2-.643c-.046-.079-.1-.153-.154-.236.054,0,.1,0,.146,0a3.639,3.639,0,0,0,.371-.017.648.648,0,0,0,.493-.894M11.462,28.481a.752.752,0,0,1-.073-1.5.752.752,0,1,1,.073,1.5m5.938.765a.411.411,0,0,1-.1.009H15.584c-.584,0-1.168,0-1.752,0a.354.354,0,0,1-.337-.4.366.366,0,0,1,.384-.32H15.39c.631,0,1.261,0,1.892,0a.566.566,0,0,1,.214.049.293.293,0,0,1,.183.294.336.336,0,0,1-.279.366m2.3-.766a.758.758,0,0,1-.731-.8.749.749,0,0,1,.818-.7.751.751,0,0,1-.087,1.5" transform="translate(-5.765 -14.765)" fill="#3d577c"/>
      <path id="Path_16122" data-name="Path 16122" d="M5.234,0c.2.046.395.1.594.136A4.246,4.246,0,0,1,7.5.878,4.63,4.63,0,0,1,9.019,2.664,4.707,4.707,0,0,1,9.465,4.3a4.64,4.64,0,0,1-.984,3.386A4.693,4.693,0,0,1,4.095,9.457,4.757,4.757,0,0,1,.455,6.785,4.411,4.411,0,0,1,.039,5.362a4.672,4.672,0,0,1,.978-3.553A4.768,4.768,0,0,1,3.531.144,5.812,5.812,0,0,1,4.177.033C4.2.03,4.213.011,4.23,0ZM4.742,3.807c-.825,0-1.65,0-2.475,0a1.276,1.276,0,0,0-.336.04.95.95,0,0,0-.673.948A1,1,0,0,0,2.291,5.7c1.541-.023,3.081-.008,4.622-.009a4.529,4.529,0,0,0,.466-.011.927.927,0,0,0,.807-1.19.905.905,0,0,0-.917-.684c-.842-.006-1.685,0-2.527,0" transform="translate(0)" fill="#3d577c"/>
      <path id="Path_16123" data-name="Path 16123" d="M8.439,13.011H5.947c-.247,0-.35.093-.352.312s.107.321.35.321q2.5,0,5,0a.293.293,0,0,0,.331-.3.311.311,0,0,0-.347-.328H8.439" transform="translate(-3.689 -8.577)" fill="#3d577c"/>
      <path id="Path_16124" data-name="Path 16124" d="M8.439,13.011h2.492a.311.311,0,0,1,.347.328.293.293,0,0,1-.331.3q-2.5,0-5,0c-.243,0-.351-.107-.35-.321s.1-.312.352-.312H8.439" transform="translate(-3.689 -8.577)" fill="#3d577c"/>
    </g>
  </g>
</svg>
<svg id="OtherInventory_LeftNav" data-name="Other Inventory" xmlns="http://www.w3.org/2000/svg" xmlns:xlink="http://www.w3.org/1999/xlink" width="17.622" height="17.855" viewBox="0 0 17.622 17.855">
  <defs>
    <clipPath id="clip-path">
      <rect id="Rectangle_11949" data-name="Rectangle 11949" width="17.622" height="17.855" fill="none"/>
    </clipPath>
  </defs>
  <g id="Group_6678" data-name="Group 6678" transform="translate(0 0)" clip-path="url(#clip-path)">
    <path id="Path_16129" data-name="Path 16129" d="M23.244,26.652a.679.679,0,0,0-.664-.433c-.294-.008-.587,0-.881,0a.668.668,0,0,0-.355.1,1.787,1.787,0,0,0-.191.157.06.06,0,0,1-.012-.02,15.021,15.021,0,0,0-.393-1.517c-.1-.317-.2-.633-.316-.945a.7.7,0,0,0-.494-.456,3.9,3.9,0,0,0-.508-.086c-.239-.029-.479-.051-.718-.07-.22-.018-.44-.031-.661-.043-.2-.011-.41-.02-.614-.028-.135-.005-.271-.01-.406-.013-.256-.005-.511-.011-.767-.011-.181,0-.362,0-.543.008-.07.1-.313.573-.378.7l.182-.005c.267-.006.533-.012.8-.012.251,0,.5.005.752.012s.49.017.735.028c.17.008.339.015.508.029.2.015.391.037.587.055.163.015.327.026.491.042q.161.016.321.043c.063.01.077.069.094.119.062.182.129.364.182.549.144.5.282,1,.421,1.5.025.092.039.187.059.286-.1-.015-.2-.03-.3-.046-.161-.027-.322-.057-.483-.082-.2-.031-.4-.059-.6-.083-.156-.019-.313-.03-.47-.045l-.595-.055c-.074-.006-.148-.011-.223-.014-.142-.006-.285-.011-.427-.015l-.808-.014c-.391-.005-.783-.011-1.174-.013-.163,0-.327.008-.49.014-.218.008-.437.015-.656.029-.238.015-.476.033-.714.057s-.492.05-.736.085-.5.083-.751.125c-.12.019-.241.036-.371.055.016-.083.029-.165.049-.246.026-.106.121-.429.148-.535l-.094,0a4.981,4.981,0,0,1-.644.1c-.046.172-.11.408-.137.521a.657.657,0,0,0-.53-.259c-.328-.011-.657,0-.985.009a.634.634,0,0,0-.552.378,1.7,1.7,0,0,0-.072.184v.254c0,.007.012.013.014.02a.705.705,0,0,0,.361.47.768.768,0,0,0,.411.076c.109,0,.218,0,.332,0-.054.082-.1.153-.15.227a1.411,1.411,0,0,0-.23.695c-.012.646-.007,1.293-.008,1.939s0,1.288,0,1.932a.352.352,0,0,0,.335.365c.7,0,1.391,0,2.087,0a.288.288,0,0,0,.275-.161.609.609,0,0,0,.058-.209c.009-.118,0-.238,0-.357h7.469c0,.121,0,.238,0,.355a.548.548,0,0,0,.015.13.356.356,0,0,0,.351.244c.667,0,1.335-.006,2,0a.37.37,0,0,0,.388-.389c-.006-.628,0-1.255,0-1.883,0-.655-.007-1.309-.018-1.964a1.38,1.38,0,0,0-.208-.678c-.049-.083-.1-.161-.162-.249.057,0,.105,0,.154,0a3.837,3.837,0,0,0,.392-.018.684.684,0,0,0,.52-.943M11.721,29.7a.793.793,0,0,1-.077-1.582.793.793,0,1,1,.077,1.582m6.26.807a.434.434,0,0,1-.11.01h-1.8c-.616,0-1.231,0-1.847,0a.373.373,0,0,1-.355-.421.386.386,0,0,1,.4-.337h1.593c.665,0,1.33,0,1.995,0a.6.6,0,0,1,.226.052.309.309,0,0,1,.193.31.355.355,0,0,1-.295.386M20.4,29.7a.8.8,0,0,1-.77-.84.79.79,0,0,1,.862-.741A.792.792,0,0,1,20.4,29.7" transform="translate(-5.674 -14.92)" fill="#3d577c"/>
    <path id="Path_16130" data-name="Path 16130" d="M5.223,10.486a5.225,5.225,0,0,1-5.206-4.8,5.167,5.167,0,0,1,1.52-4.159A4.918,4.918,0,0,1,4.921.005a5.246,5.246,0,1,1,.3,10.481M9.776,5.247A4.534,4.534,0,1,0,5.019,9.793,4.53,4.53,0,0,0,9.776,5.247" transform="translate(0 0)" fill="#3d577c"/>
    <path id="Path_16131" data-name="Path 16131" d="M26.822,31.948c0,.024,0,.047,0,.071L26.787,32l.035-.052" transform="translate(-17.164 -20.471)" fill="#3d577c"/>
    <path id="Path_16132" data-name="Path 16132" d="M20.831,32.063l.033.031-.033-.031" transform="translate(-13.347 -20.544)" fill="#3d577c"/>
    <path id="Path_16133" data-name="Path 16133" d="M11.763,6.363l-1.939.774c-.218.087-.436.174-.652.265-.155.066-.281.151-.281.355a.379.379,0,0,0,.293.366c.79.313,1.581.622,2.371.934.057.022.11.054.182.091a3.4,3.4,0,0,1-.57,1.028L9.853,9.143c-.3-.239-.6-.5-.917-.711A.514.514,0,0,0,8.516,8.4c-.193.08-.174.294-.15.47.069.52.148,1.039.226,1.558.046.309.1.616.147.924a1.446,1.446,0,0,1,0,.213,2.828,2.828,0,0,1-1.173-.01c.074-.486.15-.966.221-1.446.067-.455.132-.91.19-1.366A.286.286,0,0,0,7.829,8.4a.4.4,0,0,0-.437.029c-.7.55-1.4,1.092-2.094,1.64-.1.08-.166.081-.236-.045-.162-.292-.338-.576-.515-.873L6.6,8.323c.205-.083.411-.164.613-.254a.324.324,0,0,0,.226-.331.333.333,0,0,0-.249-.308c-.869-.346-1.733-.7-2.648-1.08.19-.319.374-.633.571-.939.015-.023.139-.006.185.028.2.143.382.3.573.453.512.4,1.027.8,1.537,1.2a.322.322,0,0,0,.4.034.377.377,0,0,0,.168-.411q-.094-.636-.189-1.272c-.072-.486-.143-.971-.217-1.477A4.018,4.018,0,0,1,8.75,3.95c-.033.255-.061.487-.093.72-.045.32-.094.64-.142.96s-.1.627-.139.941a.556.556,0,0,0,.075.487A.327.327,0,0,0,8.9,7.11c.55-.433,1.1-.869,1.648-1.3q.257-.2.517-.4c.124-.095.183.027.222.093.157.265.3.541.444.813l.029.051" transform="translate(-2.912 -2.507)" fill="#3d577c"/>
    <path id="Path_16134" data-name="Path 16134" d="M21.964,12.574v1.465L20.141,13.3l1.823-.729" transform="translate(-12.905 -8.057)" fill="#3d577c"/>
    <path id="Path_16135" data-name="Path 16135" d="M7.615,5.224a3.381,3.381,0,0,1,1.253-.708l.254,1.8-.052.038L7.615,5.224" transform="translate(-4.879 -2.894)" fill="#3d577c"/>
    <path id="Path_16136" data-name="Path 16136" d="M8.891,21.321a3.7,3.7,0,0,1-1.233-.734L9.164,19.4c-.094.655-.182,1.273-.274,1.917" transform="translate(-4.907 -12.433)" fill="#3d577c"/>
    <path id="Path_16137" data-name="Path 16137" d="M5.792,13.332c-.55.223-1.069.432-1.586.646-.163.068-.224.042-.227-.131-.005-.343,0-.688,0-1.031a.879.879,0,0,1,.052-.2l1.76.713" transform="translate(-2.547 -8.086)" fill="#3d577c"/>
    <path id="Path_16138" data-name="Path 16138" d="M17.675,4.5a4.068,4.068,0,0,1,1.244.709L17.4,6.4c.093-.651.18-1.258.272-1.9" transform="translate(-11.151 -2.885)" fill="#3d577c"/>
    <path id="Path_16139" data-name="Path 16139" d="M17.438,19.516l1.469,1.15a4.017,4.017,0,0,1-.959.6.977.977,0,0,0-.119.046c-.138.084-.185-.006-.2-.114-.068-.493-.128-.988-.194-1.482a1.2,1.2,0,0,0-.043-.156l.044-.05" transform="translate(-11.145 -12.505)" fill="#3d577c"/>
  </g>
</svg>
<svg id="SRC_C_LeftNav" data-name="SRC_C_LeftNav" xmlns="http://www.w3.org/2000/svg" width="15.899" height="13.676" viewBox="0 0 15.899 13.676">
  <g id="SRC_s_Pending_Removal_C_" data-name="SRC’s Pending Removal “C”" transform="translate(0 1.079)">
    <g id="Group_6685" data-name="Group 6685">
      <path id="Path_16140" data-name="Path 16140" d="M13.588,11.9c-.291-.008-.582,0-.872,0a.662.662,0,0,0-.352.1,1.769,1.769,0,0,0-.19.156.059.059,0,0,1-.012-.02c-.075-.367-.173-.675-.275-1.035-.307.01-.7.007-.718.006.083.295.2.631.277.926.025.091.038.185.058.283-.1-.015-.2-.03-.3-.046-.159-.026-.318-.057-.478-.081-.2-.03-.4-.059-.6-.083-.155-.019-.31-.03-.465-.044l-.589-.055C9,12,8.929,12,8.856,12c-.141-.006-.282-.011-.423-.015l-.8-.014c-.387-.005-.775-.011-1.162-.013-.162,0-.324.007-.486.014-.216.008-.433.015-.649.028-.236.015-.472.033-.707.056s-.487.05-.729.084-.5.083-.743.123c-.119.019-.238.036-.367.055.016-.082.029-.164.048-.244.049-.2.1-.4.152-.6.074-.266.151-.531.233-.795.071-.229.154-.455.228-.684a.156.156,0,0,1,.142-.119c.18-.02.36-.042.54-.057.242-.021.484-.038.726-.055s.469-.032.7-.041c.346-.013.693-.021,1.04-.028.264-.006.528-.012.792-.012.248,0,.5,0,.744.012s.485.017.728.028c.168.007.336.015.5.028.075.006.15.014.226.021-.006-.227-.009-.457-.014-.689-.16-.011-.319-.022-.479-.031-.2-.011-.405-.02-.608-.028-.134-.005-.268-.01-.4-.013C7.84,9,7.587,9,7.334,9s-.511.006-.766.01l-.618.014c-.162,0-.324.009-.486.015-.062,0-.123.01-.185.013l-.6.03c-.131.007-.261.014-.392.027-.154.015-.309.035-.462.055s-.317.036-.471.071a.652.652,0,0,0-.439.322,3.728,3.728,0,0,0-.23.551c-.079.224-.145.453-.212.683q-.11.38-.21.763c-.052.2-.1.405-.145.611a.651.651,0,0,0-.525-.256c-.325-.011-.651,0-.975.009a.627.627,0,0,0-.547.374A1.686,1.686,0,0,0,0,12.471v.251c0,.007.012.013.014.02a.7.7,0,0,0,.357.465.76.76,0,0,0,.407.075c.108,0,.216,0,.329,0-.053.081-.1.151-.148.225a1.4,1.4,0,0,0-.228.688c-.012.64-.007,1.28-.007,1.92s0,1.275,0,1.913a.349.349,0,0,0,.331.362c.689,0,1.378,0,2.066,0a.285.285,0,0,0,.272-.159.6.6,0,0,0,.057-.207c.009-.117,0-.235,0-.354h7.395c0,.12,0,.236,0,.352a.543.543,0,0,0,.015.129.353.353,0,0,0,.348.242c.661,0,1.322-.006,1.983,0a.367.367,0,0,0,.384-.385c-.006-.621,0-1.243,0-1.864,0-.648-.007-1.3-.017-1.945a1.366,1.366,0,0,0-.206-.671c-.048-.082-.1-.16-.16-.246.056,0,.1,0,.152,0a3.8,3.8,0,0,0,.388-.017.687.687,0,0,0-.142-1.363M2.837,15.35a.785.785,0,0,1-.076-1.567.785.785,0,1,1,.076,1.567m6.2.8a.429.429,0,0,1-.109.01H7.14c-.61,0-1.219,0-1.829,0a.37.37,0,0,1-.352-.417.382.382,0,0,1,.4-.334H6.937c.658,0,1.316,0,1.975,0a.59.59,0,0,1,.224.052.306.306,0,0,1,.191.307.351.351,0,0,1-.292.382m2.4-.8a.791.791,0,0,1-.763-.832.782.782,0,0,1,.854-.733.784.784,0,0,1-.091,1.565" transform="translate(0 -5.798)" fill="#3d577c"/>
      <path id="Path_16141" data-name="Path 16141" d="M32.96,0H29.167a1.053,1.053,0,0,0-1.053,1.053V4.846A1.053,1.053,0,0,0,29.167,5.9H32.96a1.053,1.053,0,0,0,1.053-1.053V1.053A1.053,1.053,0,0,0,32.96,0m-.941,4.572a.293.293,0,0,1-.443-.014c-.309-.343-.612-.692-.945-1.071,0,.3,0,.566,0,.832,0,.146-.057.278-.205.3a.617.617,0,0,1-.342-.054c-.052-.024-.088-.138-.089-.211-.006-.954,0-1.907,0-2.86a.232.232,0,0,1,.263-.255c.32,0,.642-.022.961.005a.993.993,0,0,1,.914.939,1.045,1.045,0,0,1-.806,1.092c.2.228.376.434.553.64.064.074.128.148.185.227a.284.284,0,0,1-.041.426" transform="translate(-18.114 -1.079)" fill="#3d577c"/>
      <path id="Path_16142" data-name="Path 16142" d="M34.759,4.694a.391.391,0,0,0-.356-.369c-.161-.007-.323,0-.491,0v.769c.172,0,.334.007.5,0a.387.387,0,0,0,.351-.4" transform="translate(-21.389 -3.519)" fill="#3d577c"/>
    </g>
  </g>
</svg>
<svg id="SRC_U_LeftNav" xmlns="http://www.w3.org/2000/svg" width="17.105" height="15.143" viewBox="0 0 17.105 15.143">
  <g id="SRC_s_Pending_Removal_U_" data-name="SRC’s Pending Removal “U” " transform="translate(0.051 0.05)">
    <g id="Group_6723" data-name="Group 6723" transform="translate(0 0)">
      <path id="Path_16143" data-name="Path 16143" d="M17.526,12.249a.521.521,0,0,0-.107-1.033c-.22-.006-.441,0-.661,0a.5.5,0,0,0-.266.075,1.363,1.363,0,0,0-.144.118.057.057,0,0,1-.009-.015,11.264,11.264,0,0,0-.295-1.138c-.075-.238-.151-.475-.237-.709a.526.526,0,0,0-.37-.343,2.964,2.964,0,0,0-.381-.064c-.179-.022-.359-.038-.539-.053s-.33-.023-.5-.032-.307-.015-.461-.021c-.1,0-.2-.008-.3-.01-.192,0-.383-.009-.575-.009s-.387,0-.58.008l-.468.01-.367.011c-.047,0-.094.008-.141.01l-.455.023c-.1.006-.2.011-.3.021-.117.011-.234.026-.35.042s-.24.027-.357.054a.5.5,0,0,0-.333.244,2.889,2.889,0,0,0-.174.417c-.059.17-.11.344-.16.517q-.084.288-.159.579c-.039.153-.073.307-.11.462a.494.494,0,0,0-.4-.194c-.246-.008-.493,0-.739.007a.476.476,0,0,0-.414.283,1.22,1.22,0,0,0-.054.138v.19c0,.005.009.01.01.016a.53.53,0,0,0,.271.353.577.577,0,0,0,.308.057c.082,0,.164,0,.249,0-.041.061-.079.114-.112.17a1.056,1.056,0,0,0-.173.521c-.009.484-.005.969-.006,1.454s0,.966,0,1.449a.264.264,0,0,0,.252.274q.783,0,1.566,0a.216.216,0,0,0,.206-.121.451.451,0,0,0,.043-.157c.007-.089,0-.179,0-.268h5.6c0,.091,0,.179,0,.266a.412.412,0,0,0,.011.1.267.267,0,0,0,.264.183c.5,0,1,0,1.5,0a.278.278,0,0,0,.291-.291c0-.471,0-.942,0-1.413,0-.491,0-.982-.013-1.473a1.033,1.033,0,0,0-.156-.508c-.036-.062-.078-.121-.121-.186.043,0,.079,0,.115,0,.1,0,.2,0,.294-.013M9.273,13.828a.6.6,0,0,1-.594-.562.6.6,0,0,1,.536-.625.595.595,0,1,1,.058,1.187m4.7.605a.329.329,0,0,1-.083.007H12.533c-.462,0-.923,0-1.385,0a.28.28,0,0,1-.266-.316.289.289,0,0,1,.3-.253H12.38c.5,0,1,0,1.5,0a.45.45,0,0,1,.169.039.232.232,0,0,1,.145.233.267.267,0,0,1-.221.29m.477-3.093L14,11.3c-.056,0-.111-.008-.167-.01-.107,0-.214-.009-.32-.011l-.606-.01c-.294,0-.587-.009-.881-.01-.123,0-.245.006-.368.01-.164.006-.328.011-.492.022s-.357.025-.536.042-.369.038-.552.064-.376.062-.563.093c-.09.015-.18.027-.278.042.012-.062.022-.124.037-.185.037-.152.073-.3.115-.455.056-.2.114-.4.177-.6.054-.173.117-.345.173-.518a.119.119,0,0,1,.108-.09c.136-.015.272-.032.409-.043.183-.016.367-.029.55-.041s.355-.025.533-.032c.262-.01.525-.016.788-.021.2,0,.4-.009.6-.009s.376,0,.564.009.367.013.551.021c.127.006.254.012.381.022.147.012.294.028.44.042.123.011.246.019.368.032q.121.012.241.032c.047.008.058.052.071.089.047.137.1.272.137.411.108.375.212.751.316,1.126.019.069.029.14.044.215l-.227-.034c-.121-.02-.241-.043-.362-.061-.15-.023-.3-.045-.452-.063-.118-.014-.235-.022-.353-.033m1.338,2.487a.6.6,0,0,1-.578-.63.6.6,0,1,1,.578.63" transform="translate(-4.034 -5.106)" fill="#3d577c"/>
      <path id="Path_16144" data-name="Path 16144" d="M17.658,6.831c.174-.252.337-.5.509-.733.121-.165.226-.177.38-.067.135.1.147.225.039.386-.289.43-.579.86-.863,1.293a.3.3,0,0,1-.466.09c-.4-.375-.8-.762-1.19-1.15a.264.264,0,0,1-.023-.372.249.249,0,0,1,.392,0c.2.183.4.374.633.593a7.28,7.28,0,0,0-.092-.824,6.85,6.85,0,0,0-1.938-3.494A7.144,7.144,0,0,0,13.1,1.2,7.028,7.028,0,0,0,10.823.58a6.446,6.446,0,0,0-1.85.064A7.008,7.008,0,0,0,5.388,2.433a6.845,6.845,0,0,0-1.8,2.754c-.047.134-.092.27-.144.4a.242.242,0,0,1-.339.157.255.255,0,0,1-.165-.33,7.592,7.592,0,0,1,.977-2.076A7.515,7.515,0,0,1,6.322,1.06,7.861,7.861,0,0,1,8.152.28,7.517,7.517,0,0,1,9.938.006a7.149,7.149,0,0,1,2.335.307,7.286,7.286,0,0,1,2.191,1.05,7.556,7.556,0,0,1,1.722,1.668A7.375,7.375,0,0,1,17.273,5.1c.114.349.183.713.264,1.072.048.214.08.431.121.657" transform="translate(-1.656 0)" fill="#3d577c" stroke="#3d577d" stroke-width="0.1"/>
      <path id="Path_16145" data-name="Path 16145" d="M1,17.6l-.483.718a.3.3,0,0,1-.37.117.264.264,0,0,1-.1-.382c.136-.194.258-.4.392-.594.167-.247.335-.493.51-.735a.287.287,0,0,1,.489-.055c.389.361.774.728,1.158,1.094a.3.3,0,0,1,.015.391.3.3,0,0,1-.379.016c-.18-.163-.353-.334-.528-.5-.037-.036-.073-.073-.11-.11l-.041.017c.015.14.019.282.046.42a7.35,7.35,0,0,0,.8,2.287,6.979,6.979,0,0,0,2.141,2.357,7.344,7.344,0,0,0,1.524.8,5.857,5.857,0,0,0,1.9.406c.334.01.67.01,1-.005a6.629,6.629,0,0,0,4.063-1.627,6.745,6.745,0,0,0,1.891-2.592c.095-.228.173-.463.257-.695.068-.189.2-.281.33-.237a.29.29,0,0,1,.179.4,6.739,6.739,0,0,1-.764,1.7,9.487,9.487,0,0,1-.716,1,7.217,7.217,0,0,1-2.927,2.09A8.368,8.368,0,0,1,9.7,24.31a7.326,7.326,0,0,1-3.363-.2,7.476,7.476,0,0,1-2.132-1.037,7.59,7.59,0,0,1-1.77-1.719,6.615,6.615,0,0,1-.984-1.858c-.143-.422-.234-.863-.341-1.3-.047-.19-.075-.385-.116-.6" transform="translate(0 -9.375)" fill="#3d577c" stroke="#3d577c" stroke-width="0.1"/>
    </g>
  </g>
</svg>
<svg id="SRCPendingRemoval_LeftNav" data-name="SRC’s Pending Removal" xmlns="http://www.w3.org/2000/svg" width="17.105" height="15.143" viewBox="0 0 17.105 15.143">
  <g id="SRC_s_Pending_Removal_U_" data-name="SRC’s Pending Removal “U” " transform="translate(0.051 0.05)">
    <g id="Group_6723" data-name="Group 6723" transform="translate(0 0)">
      <path id="Path_16143" data-name="Path 16143" d="M17.526,12.249a.521.521,0,0,0-.107-1.033c-.22-.006-.441,0-.661,0a.5.5,0,0,0-.266.075,1.363,1.363,0,0,0-.144.118.057.057,0,0,1-.009-.015,11.264,11.264,0,0,0-.295-1.138c-.075-.238-.151-.475-.237-.709a.526.526,0,0,0-.37-.343,2.964,2.964,0,0,0-.381-.064c-.179-.022-.359-.038-.539-.053s-.33-.023-.5-.032-.307-.015-.461-.021c-.1,0-.2-.008-.3-.01-.192,0-.383-.009-.575-.009s-.387,0-.58.008l-.468.01-.367.011c-.047,0-.094.008-.141.01l-.455.023c-.1.006-.2.011-.3.021-.117.011-.234.026-.35.042s-.24.027-.357.054a.5.5,0,0,0-.333.244,2.889,2.889,0,0,0-.174.417c-.059.17-.11.344-.16.517q-.084.288-.159.579c-.039.153-.073.307-.11.462a.494.494,0,0,0-.4-.194c-.246-.008-.493,0-.739.007a.476.476,0,0,0-.414.283,1.22,1.22,0,0,0-.054.138v.19c0,.005.009.01.01.016a.53.53,0,0,0,.271.353.577.577,0,0,0,.308.057c.082,0,.164,0,.249,0-.041.061-.079.114-.112.17a1.056,1.056,0,0,0-.173.521c-.009.484-.005.969-.006,1.454s0,.966,0,1.449a.264.264,0,0,0,.252.274q.783,0,1.566,0a.216.216,0,0,0,.206-.121.451.451,0,0,0,.043-.157c.007-.089,0-.179,0-.268h5.6c0,.091,0,.179,0,.266a.412.412,0,0,0,.011.1.267.267,0,0,0,.264.183c.5,0,1,0,1.5,0a.278.278,0,0,0,.291-.291c0-.471,0-.942,0-1.413,0-.491,0-.982-.013-1.473a1.033,1.033,0,0,0-.156-.508c-.036-.062-.078-.121-.121-.186.043,0,.079,0,.115,0,.1,0,.2,0,.294-.013M9.273,13.828a.6.6,0,0,1-.594-.562.6.6,0,0,1,.536-.625.595.595,0,1,1,.058,1.187m4.7.605a.329.329,0,0,1-.083.007H12.533c-.462,0-.923,0-1.385,0a.28.28,0,0,1-.266-.316.289.289,0,0,1,.3-.253H12.38c.5,0,1,0,1.5,0a.45.45,0,0,1,.169.039.232.232,0,0,1,.145.233.267.267,0,0,1-.221.29m.477-3.093L14,11.3c-.056,0-.111-.008-.167-.01-.107,0-.214-.009-.32-.011l-.606-.01c-.294,0-.587-.009-.881-.01-.123,0-.245.006-.368.01-.164.006-.328.011-.492.022s-.357.025-.536.042-.369.038-.552.064-.376.062-.563.093c-.09.015-.18.027-.278.042.012-.062.022-.124.037-.185.037-.152.073-.3.115-.455.056-.2.114-.4.177-.6.054-.173.117-.345.173-.518a.119.119,0,0,1,.108-.09c.136-.015.272-.032.409-.043.183-.016.367-.029.55-.041s.355-.025.533-.032c.262-.01.525-.016.788-.021.2,0,.4-.009.6-.009s.376,0,.564.009.367.013.551.021c.127.006.254.012.381.022.147.012.294.028.44.042.123.011.246.019.368.032q.121.012.241.032c.047.008.058.052.071.089.047.137.1.272.137.411.108.375.212.751.316,1.126.019.069.029.14.044.215l-.227-.034c-.121-.02-.241-.043-.362-.061-.15-.023-.3-.045-.452-.063-.118-.014-.235-.022-.353-.033m1.338,2.487a.6.6,0,0,1-.578-.63.6.6,0,1,1,.578.63" transform="translate(-4.034 -5.106)" fill="#3d577c"/>
      <path id="Path_16144" data-name="Path 16144" d="M17.658,6.831c.174-.252.337-.5.509-.733.121-.165.226-.177.38-.067.135.1.147.225.039.386-.289.43-.579.86-.863,1.293a.3.3,0,0,1-.466.09c-.4-.375-.8-.762-1.19-1.15a.264.264,0,0,1-.023-.372.249.249,0,0,1,.392,0c.2.183.4.374.633.593a7.28,7.28,0,0,0-.092-.824,6.85,6.85,0,0,0-1.938-3.494A7.144,7.144,0,0,0,13.1,1.2,7.028,7.028,0,0,0,10.823.58a6.446,6.446,0,0,0-1.85.064A7.008,7.008,0,0,0,5.388,2.433a6.845,6.845,0,0,0-1.8,2.754c-.047.134-.092.27-.144.4a.242.242,0,0,1-.339.157.255.255,0,0,1-.165-.33,7.592,7.592,0,0,1,.977-2.076A7.515,7.515,0,0,1,6.322,1.06,7.861,7.861,0,0,1,8.152.28,7.517,7.517,0,0,1,9.938.006a7.149,7.149,0,0,1,2.335.307,7.286,7.286,0,0,1,2.191,1.05,7.556,7.556,0,0,1,1.722,1.668A7.375,7.375,0,0,1,17.273,5.1c.114.349.183.713.264,1.072.048.214.08.431.121.657" transform="translate(-1.656 0)" fill="#3d577c" stroke="#3d577d" stroke-width="0.1"/>
      <path id="Path_16145" data-name="Path 16145" d="M1,17.6l-.483.718a.3.3,0,0,1-.37.117.264.264,0,0,1-.1-.382c.136-.194.258-.4.392-.594.167-.247.335-.493.51-.735a.287.287,0,0,1,.489-.055c.389.361.774.728,1.158,1.094a.3.3,0,0,1,.015.391.3.3,0,0,1-.379.016c-.18-.163-.353-.334-.528-.5-.037-.036-.073-.073-.11-.11l-.041.017c.015.14.019.282.046.42a7.35,7.35,0,0,0,.8,2.287,6.979,6.979,0,0,0,2.141,2.357,7.344,7.344,0,0,0,1.524.8,5.857,5.857,0,0,0,1.9.406c.334.01.67.01,1-.005a6.629,6.629,0,0,0,4.063-1.627,6.745,6.745,0,0,0,1.891-2.592c.095-.228.173-.463.257-.695.068-.189.2-.281.33-.237a.29.29,0,0,1,.179.4,6.739,6.739,0,0,1-.764,1.7,9.487,9.487,0,0,1-.716,1,7.217,7.217,0,0,1-2.927,2.09A8.368,8.368,0,0,1,9.7,24.31a7.326,7.326,0,0,1-3.363-.2,7.476,7.476,0,0,1-2.132-1.037,7.59,7.59,0,0,1-1.77-1.719,6.615,6.615,0,0,1-.984-1.858c-.143-.422-.234-.863-.341-1.3-.047-.19-.075-.385-.116-.6" transform="translate(0 -9.375)" fill="#3d577c" stroke="#3d577c" stroke-width="0.1"/>
    </g>
  </g>
</svg>
<svg id="VehiclesWithOpenRecalls_LeftNav" xmlns="http://www.w3.org/2000/svg" xmlns:xlink="http://www.w3.org/1999/xlink" width="16.734" height="13.925" viewBox="0 0 16.734 13.925">
  <defs>
    <clipPath id="clip-path">
      <rect id="Rectangle_11948" data-name="Rectangle 11948" width="16.734" height="13.925" fill="none"/>
    </clipPath>
  </defs>
  <g id="Vehicles_With_Open_Recalls_" data-name="Vehicles With Open Recalls " transform="translate(0 0)">
    <g id="Group_6659" data-name="Group 6659" transform="translate(0 0)" clip-path="url(#clip-path)">
      <path id="Path_16117" data-name="Path 16117" d="M4.7,5.713A.363.363,0,0,1,5.124,5.6a2.724,2.724,0,0,0,2.15-.113,2.836,2.836,0,0,0,1.3-1.183,2.333,2.333,0,0,0,.337-1.039c.005-.116-.011-.215-.137-.264a.27.27,0,0,0-.318.075c-.393.4-.8.786-1.182,1.191a.46.46,0,0,1-.449.143c-.568-.107-1.134-.226-1.7-.342a.331.331,0,0,1-.254-.252c-.03-.1-.04-.208-.061-.313-.083-.417-.161-.834-.252-1.249A.6.6,0,0,1,4.727,1.6c.394-.354.756-.744,1.131-1.12A.267.267,0,0,0,5.864.073,1.049,1.049,0,0,0,5.722,0H5.636c-.167.046-.335.085-.5.14a2.8,2.8,0,0,0-1.305.9,2.97,2.97,0,0,0-.66,1.673,2.412,2.412,0,0,0,.154,1.065.389.389,0,0,1-.112.465Q1.745,5.706.284,7.176A1.044,1.044,0,0,0,1.8,8.613L3.036,7.376Q3.867,6.545,4.7,5.713" transform="translate(0 0)" fill="#3d577c"/>
      <path id="Path_16118" data-name="Path 16118" d="M22.431,17.505a.647.647,0,0,0-.632-.412c-.279-.008-.559,0-.839,0a.636.636,0,0,0-.338.1,1.7,1.7,0,0,0-.182.15.057.057,0,0,1-.011-.019,14.3,14.3,0,0,0-.374-1.444c-.095-.3-.191-.6-.3-.9a.666.666,0,0,0-.47-.434,3.708,3.708,0,0,0-.484-.082c-.227-.027-.456-.048-.684-.067-.21-.017-.419-.029-.629-.041-.195-.011-.39-.019-.585-.027-.129-.005-.258-.01-.386-.013-.243,0-.487-.011-.73-.011s-.491.006-.737.01l-.271.006a3.277,3.277,0,0,1-.51.674q.408-.013.815-.022c.254-.006.508-.011.762-.011.239,0,.477,0,.716.011s.466.016.7.027c.161.007.323.015.484.027.186.015.372.036.559.053.156.014.312.025.467.04q.153.015.305.041c.06.01.074.066.09.113.059.174.123.346.174.522.137.475.269.952.4,1.429.024.087.037.178.056.273l-.288-.044c-.153-.025-.306-.054-.46-.078-.19-.029-.382-.056-.574-.079-.149-.018-.3-.028-.447-.042l-.566-.053c-.071-.006-.142-.01-.212-.013-.135-.005-.271-.011-.406-.014l-.769-.014c-.372-.005-.745-.011-1.118-.013-.156,0-.311.007-.467.013-.208.008-.416.014-.624.027-.227.014-.453.032-.68.054s-.468.048-.7.081-.476.079-.715.119c-.114.018-.229.034-.353.053.015-.079.028-.157.047-.235.047-.193.093-.386.146-.577q.1-.366.213-.728a3.971,3.971,0,0,1-.669-.061c-.013.044-.028.088-.041.132q-.106.365-.2.734c-.05.194-.093.39-.14.587a.626.626,0,0,0-.5-.247c-.312-.011-.625,0-.938.009a.6.6,0,0,0-.526.359,1.622,1.622,0,0,0-.068.175v.242c0,.006.012.012.013.019a.671.671,0,0,0,.344.447.731.731,0,0,0,.391.073c.1,0,.208,0,.316,0-.051.078-.1.145-.143.216a1.343,1.343,0,0,0-.219.661c-.011.615-.006,1.23-.007,1.846s0,1.226,0,1.84a.336.336,0,0,0,.319.348c.662,0,1.325,0,1.987,0A.274.274,0,0,0,12,23.177a.58.58,0,0,0,.055-.2c.009-.113,0-.226,0-.34h7.11c0,.115,0,.227,0,.338a.522.522,0,0,0,.014.124.339.339,0,0,0,.334.233c.635,0,1.271-.006,1.906,0a.353.353,0,0,0,.369-.37c-.006-.6,0-1.195,0-1.792,0-.623-.006-1.247-.017-1.87a1.314,1.314,0,0,0-.2-.645c-.047-.079-.1-.154-.154-.237.054,0,.1,0,.146,0a3.652,3.652,0,0,0,.373-.017.651.651,0,0,0,.5-.9m-10.969,2.9a.755.755,0,0,1-.074-1.506.755.755,0,1,1,.074,1.506m5.959.768a.413.413,0,0,1-.1.009H15.6c-.586,0-1.172,0-1.758,0a.356.356,0,0,1-.338-.4.368.368,0,0,1,.385-.321H15.4c.633,0,1.266,0,1.9,0a.568.568,0,0,1,.215.05.294.294,0,0,1,.184.3.338.338,0,0,1-.28.367m2.3-.769a.761.761,0,0,1-.733-.8.752.752,0,0,1,.821-.705.754.754,0,0,1-.088,1.5" transform="translate(-5.747 -9.409)" fill="#3d577c"/>
    </g>
  </g>
</svg>
<svg xmlns="http://www.w3.org/2000/svg" id="hyundai-certified-used-vehicles" width="13" height="12.996" viewBox="0 0 13 12.996">
  <g id="Group_6600" data-name="Group 6600" transform="translate(-13.674 -20.945)">
    <path id="Path_15964" data-name="Path 15964" d="M9,25.792a2.071,2.071,0,0,1-.274-.109.8.8,0,0,1-.411-.7q0-2.125,0-4.251a.092.092,0,0,1,.049-.09,3.159,3.159,0,0,0,.564-.494q.465-.459.928-.921l1.351-1.339q.736-.73,1.472-1.46c.167-.167.33-.339.5-.515l.167.165,1.36,1.348,1.482,1.468c.455.451.911.9,1.363,1.353a2.86,2.86,0,0,0,.48.408.1.1,0,0,1,.03.073q0,1.776,0,3.552c0,.228,0,.457,0,.685a.81.81,0,0,1-.685.816s-.009.007-.013.011H14.813c0-.8,0-1.6,0-2.4a.906.906,0,0,0-.054-.317.8.8,0,0,0-.77-.526c-.533-.006-1.066,0-1.6,0a.781.781,0,0,0-.442.127.757.757,0,0,0-.378.641c-.008.827,0,1.654,0,2.481Z" transform="translate(6.988 8.15)" fill="#fff"/>
    <path id="Path_15965" data-name="Path 15965" d="M13,6.638c-.02.056-.037.112-.059.167a.789.789,0,0,1-.618.492.754.754,0,0,1-.713-.238L10.381,5.83,6.545,1.993a.42.42,0,0,1-.04-.064A.768.768,0,0,1,6.45,2L1.417,7.038a.909.909,0,0,1-.347.229.758.758,0,0,1-.577-.022.8.8,0,0,1-.278-1.28c.018-.021.038-.04.057-.06L5.912.264a.872.872,0,0,1,.394-.24.782.782,0,0,1,.51.044,1.016,1.016,0,0,1,.328.246q2.765,2.767,5.532,5.531a1,1,0,0,1,.309.507A.156.156,0,0,0,13,6.384Z" transform="translate(13.675 20.945)" fill="#fff"/>
  </g>
</svg>

<svg xmlns="http://www.w3.org/2000/svg" id="hyundai-short-term-program2" width="11" height="9.527" viewBox="0 0 11 9.527">
  <path id="Mask" d="M.757,9.569a.279.279,0,0,1-.3-.3V.373a.279.279,0,0,1,.3-.3h2.4a.546.546,0,0,1,.355.148l3.43,4.317a.489.489,0,0,1,0,.562L3.478,9.421a.477.477,0,0,1-.384.177L.757,9.569ZM11.373,4.542,7.913.254A.428.428,0,0,0,7.292.2l-.68.562a.409.409,0,0,0-.059.621l2.809,3.46L6.553,8.327a.458.458,0,0,0,.059.621l.68.562a.458.458,0,0,0,.621-.059l3.46-4.317a.532.532,0,0,0,0-.591Z" transform="translate(-0.462 -0.077)" fill="#fff"/>
</svg>
<svg xmlns="http://www.w3.org/2000/svg" id="reference-material" width="12" height="11" viewBox="0 0 12 11">
  <path id="Mask" d="M12.24.231H5.49a.384.384,0,0,0-.375.375v10.25a.384.384,0,0,0,.375.375h6.75a.384.384,0,0,0,.375-.375V.606A.384.384,0,0,0,12.24.231Zm-8.5,0H.99A.384.384,0,0,0,.615.606v1.25a.384.384,0,0,0,.375.375H3.74a.384.384,0,0,0,.375-.375V.606A.384.384,0,0,0,3.74.231Zm0,3H.99a.384.384,0,0,0-.375.375v1.25a.384.384,0,0,0,.375.375H3.74a.384.384,0,0,0,.375-.375V3.606A.384.384,0,0,0,3.74,3.231Zm0,3H.99a.384.384,0,0,0-.375.375v1.25a.384.384,0,0,0,.375.375H3.74a.384.384,0,0,0,.375-.375V6.606A.384.384,0,0,0,3.74,6.231Zm0,3H.99a.384.384,0,0,0-.375.375v1.25a.384.384,0,0,0,.375.375H3.74a.384.384,0,0,0,.375-.375V9.606A.384.384,0,0,0,3.74,9.231Z" transform="translate(-0.615 -0.231)" fill="#fff"/>
</svg>
<svg xmlns="http://www.w3.org/2000/svg" id="vin-search" width="12" height="12.022" viewBox="0 0 12 12.022">
  <g id="icons_utility_search" data-name="icons/utility/search" transform="translate(-0.615 -0.615)">
    <path id="Mask" d="M12.524,11.449,9.172,8.121A4.728,4.728,0,1,0,.64,5.819,4.732,4.732,0,0,0,8.121,9.2l3.328,3.328a.363.363,0,0,0,.525,0L12.5,12a.42.42,0,0,0,.025-.55ZM2.116,5.344A3.228,3.228,0,1,1,5.344,8.571,3.235,3.235,0,0,1,2.116,5.344Z" transform="translate(0 0)" fill="#fff"/>
  </g>
</svg>
<svg id="quick-links" data-name="Component 247 – 1" xmlns="http://www.w3.org/2000/svg" width="14" height="14" viewBox="0 0 14 14">
  <g id="icons_utility_link-copy" data-name="icons/utility/link-copy" transform="translate(1 1)">
    <path id="Mask" d="M6.789,10.29l-.514-.073a3.782,3.782,0,0,1-.514-.147.322.322,0,0,0-.294.073l-.122.122a1.926,1.926,0,0,1-2.6.147,1.875,1.875,0,0,1-.1-2.743L4.511,5.809a2.08,2.08,0,0,1,.833-.49,1.926,1.926,0,0,1,1.175.073,2.038,2.038,0,0,1,.637.416,1.572,1.572,0,0,1,.245.318.265.265,0,0,0,.441.049l.686-.686a.294.294,0,0,0,.024-.367,2.621,2.621,0,0,0-.343-.392,2.735,2.735,0,0,0-.588-.465A3.127,3.127,0,0,0,6.47,3.826a3.5,3.5,0,0,0-2.277.343,3.394,3.394,0,0,0-.759.563L1.646,6.519A3.4,3.4,0,0,0,1.5,11.245a3.352,3.352,0,0,0,4.849.1l.612-.612c.171-.122.049-.416-.171-.441ZM11.294,1.5a3.4,3.4,0,0,0-4.726.147L6,2.185a.293.293,0,0,0,.171.49,5.076,5.076,0,0,1,1.028.2A.322.322,0,0,0,7.5,2.8l.122-.122a1.926,1.926,0,0,1,2.6-.147,1.875,1.875,0,0,1,.1,2.743L8.454,7.131a2.08,2.08,0,0,1-.833.49,1.926,1.926,0,0,1-1.175-.073,2.038,2.038,0,0,1-.637-.416,1.572,1.572,0,0,1-.245-.318.265.265,0,0,0-.441-.049l-.686.686a.294.294,0,0,0-.024.367,2.621,2.621,0,0,0,.343.392,3.5,3.5,0,0,0,.588.465,3.182,3.182,0,0,0,1.126.441,3.5,3.5,0,0,0,2.277-.343,3.394,3.394,0,0,0,.759-.563l1.861-1.861A3.351,3.351,0,0,0,11.294,1.5Z" transform="translate(-0.615 -0.615)" fill="#fff"/>
  </g>
  <rect id="Rectangle_11932" data-name="Rectangle 11932" width="14" height="14" fill="none"/>
</svg>
<svg xmlns="http://www.w3.org/2000/svg" width="20" height="20" viewBox="0 0 20 20">
  <path id="Icon_awesome-sort-alpha-up" data-name="Icon awesome-sort-alpha-up" d="M.714,7.964H2.857V21.536a.714.714,0,0,0,.714.714H5a.714.714,0,0,0,.714-.714V7.964H7.857a.715.715,0,0,0,.5-1.219L4.791,2.459a.714.714,0,0,0-1.01,0L.209,6.745A.715.715,0,0,0,.714,7.964Zm17.857,5.714H12.857a.714.714,0,0,0-.714.714v1.429a.714.714,0,0,0,.714.714h2.5l-2.735,3.145a1.429,1.429,0,0,0-.479,1.068v.787a.714.714,0,0,0,.714.714h5.714a.714.714,0,0,0,.714-.714V20.107a.714.714,0,0,0-.714-.714h-2.5l2.735-3.145a1.429,1.429,0,0,0,.479-1.068v-.787A.714.714,0,0,0,18.571,13.679Zm1.387-3.812L17.312,2.724a.714.714,0,0,0-.673-.474h-1.85a.714.714,0,0,0-.673.474L11.471,9.867a.714.714,0,0,0,.672.954h1.108a.714.714,0,0,0,.68-.495l.2-.577H17.3l.2.577a.714.714,0,0,0,.682.495h1.109a.714.714,0,0,0,.672-.954ZM14.983,7.25l.732-2.143.732,2.143Z" transform="translate(0 -2.25)" fill="#98a2ae"/>
</svg>
<svg xmlns="http://www.w3.org/2000/svg" width="19.999" height="20" viewBox="0 0 19.999 20">
  <path id="Icon_awesome-sort-alpha-down" data-name="Icon awesome-sort-alpha-down" d="M7.857,16.536H5.714V2.964A.714.714,0,0,0,5,2.25H3.572a.714.714,0,0,0-.714.714V16.536H.714a.715.715,0,0,0-.5,1.219l3.571,4.286a.714.714,0,0,0,1.01,0l3.571-4.286A.715.715,0,0,0,7.857,16.536Zm10.714-2.857H12.857a.714.714,0,0,0-.714.714v1.429a.714.714,0,0,0,.714.714h2.5l-2.735,3.145a1.429,1.429,0,0,0-.479,1.068v.787a.714.714,0,0,0,.714.714h5.714a.714.714,0,0,0,.714-.714V20.107a.714.714,0,0,0-.714-.714h-2.5l2.735-3.145a1.429,1.429,0,0,0,.479-1.068v-.787A.714.714,0,0,0,18.572,13.679Zm1.387-3.812L17.312,2.724a.714.714,0,0,0-.673-.474h-1.85a.714.714,0,0,0-.673.474L11.471,9.867a.714.714,0,0,0,.672.954h1.108a.714.714,0,0,0,.68-.495l.2-.577H17.3l.2.577a.714.714,0,0,0,.682.495h1.109a.714.714,0,0,0,.672-.954ZM14.983,7.25l.732-2.143.732,2.143Z" transform="translate(0 -2.25)" fill="#98a2ae"/>
</svg>
<svg version="1.1" id="refreshIcon" xmlns="http://www.w3.org/2000/svg" xmlns:xlink="http://www.w3.org/1999/xlink" x="0px" y="0px"
	 viewBox="0 0 25 25" style="enable-background:new 0 0 25 25;" xml:space="preserve">
<style type="text/css">
	.st0{fill:#124191;}
	.st1{fill:#FFDF05;stroke:#FFDF05;stroke-width:1.5;stroke-miterlimit:10;}
	.st2{fill:#FF8B10;stroke:#FF8B10;stroke-width:1.5;stroke-miterlimit:10;}
	.st3{fill:#FFFFFF;}
	.st4{fill:#FF3154;stroke:#FF3154;stroke-width:1.5;stroke-miterlimit:10;}
	.st5{stroke:#000000;stroke-width:0.3;stroke-miterlimit:10;}
	.st6{fill:#FF3154;}
	.st7{stroke:#333333;stroke-width:0.9067;stroke-linecap:round;stroke-linejoin:round;stroke-miterlimit:10;}
	.st8{fill:#333333;}
	.st9{fill:none;stroke:#000000;stroke-width:1.5;stroke-linecap:round;stroke-linejoin:round;stroke-miterlimit:10;}
	.st10{fill:none;stroke:#FFFFFF;stroke-width:1.5;stroke-linecap:round;stroke-linejoin:round;stroke-miterlimit:10;}
	.st11{fill:none;stroke:#124191;stroke-width:1.5;stroke-linecap:round;stroke-linejoin:round;stroke-miterlimit:10;}
	.st12{fill:none;stroke:#FFFFFF;stroke-width:1.5;stroke-miterlimit:10;}
	.st13{fill:none;stroke:#000000;stroke-width:1.5;stroke-miterlimit:10;}
</style>
<g>
	<path class="st9" d="M22.22,6.56c-2.2-3.58-6.3-5.81-10.77-5.39C5.19,1.74,0.58,7.29,1.16,13.55"/>
	<path class="st9" d="M2.79,18.46c2.2,3.57,6.3,5.79,10.76,5.38c6.26-0.58,10.87-6.13,10.29-12.39"/>
	<path class="st9" d="M18.33,6.78l3.27,0.07c0.57,0.03,0.99-0.34,1.02-0.91l0.43-3.37"/>
	<path class="st9" d="M6.64,18.27L3.37,18.2c-0.57-0.03-0.99,0.34-1.02,0.91l-0.43,3.37"/>
</g>
</svg>
<svg xmlns="http://www.w3.org/2000/svg" id="reference-material-all" width="13.538" height="12.923" viewBox="0 0 13.538 12.923">
  <g id="icons_utility_left_align_text" data-name="icons/utility/left_align_text" transform="translate(-0.231 -0.846)">
    <path id="Mask" d="M13.769,1.308a.473.473,0,0,0-.462-.462H.692a.473.473,0,0,0-.462.462v.923a.473.473,0,0,0,.462.462H13.308a.473.473,0,0,0,.462-.462ZM11.308,5a.473.473,0,0,0-.462-.462H.692A.473.473,0,0,0,.231,5v.923a.473.473,0,0,0,.462.462H10.846a.473.473,0,0,0,.462-.462Zm0,7.385a.473.473,0,0,0-.462-.462H.692a.473.473,0,0,0-.462.462v.923a.473.473,0,0,0,.462.462H10.846a.473.473,0,0,0,.462-.462Zm2.462-3.692a.473.473,0,0,0-.462-.462H.692a.473.473,0,0,0-.462.462v.923a.473.473,0,0,0,.462.462H13.308a.473.473,0,0,0,.462-.462Z" fill="#54698d"/>
  </g>
</svg>
<svg xmlns="http://www.w3.org/2000/svg" id="reference-material-videos" width="14.4" height="8.215" viewBox="0 0 14.4 8.215">
  <g id="icons_utility_video" data-name="icons/utility/video" transform="translate(-0.615 -0.692)">
    <path id="Mask" d="M14.431.815,11.046,3.246V1.523a.827.827,0,0,0-.831-.831H1.446a.827.827,0,0,0-.831.831V8.077a.827.827,0,0,0,.831.831h8.8a.827.827,0,0,0,.831-.831V6.385l3.354,2.4a.343.343,0,0,0,.585-.246V1.062a.343.343,0,0,0-.585-.246Z" fill="#54698d"/>
  </g>
</svg>
<svg xmlns="http://www.w3.org/2000/svg" id="reference-material-forms-brochures" width="14.124" height="14.769" viewBox="0 0 14.124 14.769">
  <g id="icons_utility_overflow" data-name="icons/utility/overflow" transform="translate(-0.231 -0.615)">
    <path id="Mask" d="M10.785,3.046H4.169A1.136,1.136,0,0,0,3.031,4.185v.185a.2.2,0,0,0,.185.185H9.246a1.136,1.136,0,0,1,1.138,1.138v6.8a.2.2,0,0,0,.185.185h.185a1.136,1.136,0,0,0,1.138-1.138V4.185a1.11,1.11,0,0,0-1.108-1.138ZM13.246.615H6.631A1.136,1.136,0,0,0,5.492,1.754v.185a.2.2,0,0,0,.185.185h6.031a1.136,1.136,0,0,1,1.138,1.138v6.8a.2.2,0,0,0,.185.185h.185a1.136,1.136,0,0,0,1.138-1.138V1.754A1.11,1.11,0,0,0,13.246.615ZM9.338,6.708A1.156,1.156,0,0,0,8.2,5.569H1.369A1.136,1.136,0,0,0,.231,6.708v7.538a1.156,1.156,0,0,0,1.138,1.138H8.2a1.136,1.136,0,0,0,1.138-1.138V6.708Z" fill="#54698d"/>
  </g>
</svg>
<svg xmlns="http://www.w3.org/2000/svg" id="reference-material-links" width="12" height="11.962" viewBox="0 0 12 11.962">
  <g id="icons_utility_link-copy" data-name="icons/utility/link-copy" transform="translate(-0.615 -0.615)">
    <path id="Mask" d="M6.918,10.493l-.525-.075a3.861,3.861,0,0,1-.525-.15.329.329,0,0,0-.3.075l-.125.125a1.966,1.966,0,0,1-2.65.15,1.914,1.914,0,0,1-.1-2.8l1.9-1.9a2.124,2.124,0,0,1,.85-.5,1.966,1.966,0,0,1,1.2.075,2.081,2.081,0,0,1,.65.425,1.605,1.605,0,0,1,.25.325.271.271,0,0,0,.45.05l.7-.7a.3.3,0,0,0,.025-.375,2.676,2.676,0,0,0-.35-.4,2.792,2.792,0,0,0-.6-.475,3.193,3.193,0,0,0-1.175-.45,3.574,3.574,0,0,0-2.325.35,3.465,3.465,0,0,0-.775.575L1.668,6.643a3.475,3.475,0,0,0-.15,4.825,3.422,3.422,0,0,0,4.95.1l.625-.625c.175-.125.05-.425-.175-.45Zm4.6-8.975a3.474,3.474,0,0,0-4.825.15l-.575.55a.3.3,0,0,0,.175.5,5.183,5.183,0,0,1,1.05.2.329.329,0,0,0,.3-.075l.125-.125a1.966,1.966,0,0,1,2.65-.15,1.914,1.914,0,0,1,.1,2.8l-1.9,1.9a2.124,2.124,0,0,1-.85.5,1.966,1.966,0,0,1-1.2-.075,2.081,2.081,0,0,1-.65-.425,1.605,1.605,0,0,1-.25-.325.271.271,0,0,0-.45-.05l-.7.7a.3.3,0,0,0-.025.375,2.676,2.676,0,0,0,.35.4,3.577,3.577,0,0,0,.6.475,3.249,3.249,0,0,0,1.15.45,3.574,3.574,0,0,0,2.325-.35,3.465,3.465,0,0,0,.775-.575l1.9-1.9a3.421,3.421,0,0,0-.075-4.95Z" transform="translate(0 0)" fill="#54698d"/>
  </g>
</svg>
