<svg xmlns="http://www.w3.org/2000/svg" xmlns:xlink="http://www.w3.org/1999/xlink" width="12" height="11.075" viewBox="0 0 12 11.075">
  <defs>
    <clipPath id="clip-path">
      <rect id="Rectangle_11890" data-name="Rectangle 11890" width="12" height="11.075" transform="translate(0 0)" fill="#54698d"/>
    </clipPath>
  </defs>
  <g id="Group_6505" data-name="Group 6505" transform="translate(140 0)">
    <g id="Group_6494" data-name="Group 6494" transform="translate(-140 0)" clip-path="url(#clip-path)">
      <path id="Path_15906" data-name="Path 15906" d="M9.713,24.182c-.066-.068-.117-.092-.21-.031-.138.091-.292.16-.438.239a1.412,1.412,0,0,1-1.4,0,6.933,6.933,0,0,1-1.07-.663.347.347,0,0,0-.228-.079q-2.079,0-4.158,0H2.061c.02-.05.032-.08.044-.109.2-.465.409-.928.6-1.395a.521.521,0,0,1,.539-.352c.533.007,1.066,0,1.6,0H4.98a.238.238,0,0,0,0-.042c-.085-.276-.168-.552-.26-.826a.13.13,0,0,0-.1-.062c-.479,0-.958-.01-1.437,0a1.368,1.368,0,0,0-1.31.875c-.3.675-.59,1.354-.887,2.029a.3.3,0,0,1-.108.123A1.707,1.707,0,0,0,0,25.406c-.006.581,0,1.161,0,1.742A1.134,1.134,0,0,0,.378,28,1.319,1.319,0,0,0,1,28.3H1.33c.065-.019.131-.036.2-.058a1.167,1.167,0,0,0,.8-1.081c0-.08,0-.159,0-.247H7.9c0,.092-.005.188,0,.284a1.15,1.15,0,0,0,.935,1.081.24.24,0,0,1,.048.021h.348a.4.4,0,0,1,.058-.022,1.13,1.13,0,0,0,.92-1.069c.017-.642.013-1.285,0-1.926a1.607,1.607,0,0,0-.5-1.1M2.79,25.976c-.156,0-.312,0-.468,0s-.312,0-.468,0a.46.46,0,1,1,0-.919q.468,0,.935,0a.46.46,0,0,1,0,.919m5.581,0c-.159,0-.319,0-.478,0s-.312,0-.468,0a.459.459,0,0,1,0-.919q.473,0,.946,0a.459.459,0,0,1,0,.919" transform="translate(0 -17.228)" fill="#54698d"/>
      <path id="Path_15907" data-name="Path 15907" d="M34.694,0a3.26,3.26,0,1,0,3.26,3.26A3.26,3.26,0,0,0,34.694,0m1.594,2.881Q35.651,3.7,35,4.514a.45.45,0,0,1-.657.063q-.413-.345-.817-.7a.46.46,0,0,1,.592-.7c.153.122.3.252.459.388l.764-.972c.074-.094.145-.19.223-.281a.462.462,0,0,1,.643-.067.455.455,0,0,1,.075.642" transform="translate(-25.954 0)" fill="#54698d"/>
    </g>
  </g>
</svg>
