<svg xmlns="http://www.w3.org/2000/svg" width="11.478" height="12.281" viewBox="0 0 11.478 12.281">
  <g id="Group_6497" data-name="Group 6497" transform="translate(0 1.206)">
    <g id="Group_6496" data-name="Group 6496" transform="translate(0 0)">
      <path id="Path_15906" data-name="Path 15906" d="M9.713,24.182c-.066-.068-.117-.092-.21-.031-.138.091-.292.16-.438.239a1.412,1.412,0,0,1-1.4,0,6.933,6.933,0,0,1-1.07-.663.347.347,0,0,0-.228-.079q-2.079,0-4.158,0H2.061c.02-.05.032-.08.044-.109.2-.465.409-.928.6-1.395a.521.521,0,0,1,.539-.352c.533.007,1.066,0,1.6,0H4.98a.238.238,0,0,0,0-.042c-.085-.276-.168-.552-.26-.826a.13.13,0,0,0-.1-.062c-.479,0-.958-.01-1.437,0a1.368,1.368,0,0,0-1.31.875c-.3.675-.59,1.354-.887,2.029a.3.3,0,0,1-.108.123A1.707,1.707,0,0,0,0,25.406c-.006.581,0,1.161,0,1.742A1.134,1.134,0,0,0,.378,28,1.319,1.319,0,0,0,1,28.3H1.33c.065-.019.131-.036.2-.058a1.167,1.167,0,0,0,.8-1.081c0-.08,0-.159,0-.247H7.9c0,.092-.005.188,0,.284a1.15,1.15,0,0,0,.935,1.081.24.24,0,0,1,.048.021h.348a.4.4,0,0,1,.058-.022,1.13,1.13,0,0,0,.92-1.069c.017-.642.013-1.285,0-1.926a1.607,1.607,0,0,0-.5-1.1M2.79,25.976c-.156,0-.312,0-.468,0s-.312,0-.468,0a.46.46,0,1,1,0-.919q.468,0,.935,0a.46.46,0,0,1,0,.919m5.581,0c-.159,0-.319,0-.478,0s-.312,0-.468,0a.459.459,0,0,1,0-.919q.473,0,.946,0a.459.459,0,0,1,0,.919" transform="translate(0 -17.228)" fill="#54698d"/>
      <g id="icons_utility_sync" data-name="icons/utility/sync" transform="translate(5.381 -1.821)">
        <path id="Mask" d="M6.084,4.149a.205.205,0,0,0-.2-.2H5.418a.182.182,0,0,0-.187.187.227.227,0,0,1-.013.093,1.745,1.745,0,0,1-.2.493A1.967,1.967,0,0,1,3.3,5.735a2,2,0,0,1-1.413-.587.7.7,0,0,1-.16-.187c-.04-.107.053-.16.173-.16h.933a.205.205,0,0,0,.2-.2V4.189A.182.182,0,0,0,2.844,4H.4a.176.176,0,0,0-.173.173V6.6a.228.228,0,0,0,.213.2h.4a.205.205,0,0,0,.2-.2V5.669c0-.12.067-.173.16-.093a.632.632,0,0,0,.133.133,2.806,2.806,0,0,0,2.56.76,2.616,2.616,0,0,0,.933-.387A2.8,2.8,0,0,0,6.084,4.175V4.149Zm-5.84-.88a.205.205,0,0,0,.2.2H.911A.182.182,0,0,0,1.1,3.282a.227.227,0,0,1,.013-.093,1.745,1.745,0,0,1,.2-.493,1.967,1.967,0,0,1,1.72-1.013,2,2,0,0,1,1.413.587.7.7,0,0,1,.16.187c.04.107-.053.16-.173.16H3.5a.205.205,0,0,0-.2.2v.413a.182.182,0,0,0,.187.187h2.44A.176.176,0,0,0,6.1,3.242V.815a.228.228,0,0,0-.213-.2h-.4a.205.205,0,0,0-.2.2v.933c0,.12-.067.173-.16.093a.632.632,0,0,0-.133-.133,2.806,2.806,0,0,0-2.56-.76,2.616,2.616,0,0,0-.933.387A2.8,2.8,0,0,0,.244,3.242v.027Z" transform="translate(0)" fill="#54698d"/>
      </g>
    </g>
  </g>
</svg>
