<svg xmlns="http://www.w3.org/2000/svg" xmlns:xlink="http://www.w3.org/1999/xlink" width="10.605" height="10.663" viewBox="0 0 10.605 10.663">
  <defs>
    <clipPath id="clip-path">
      <rect id="Rectangle_11891" data-name="Rectangle 11891" width="10.605" height="10.663" fill="#54698d"/>
    </clipPath>
  </defs>
  <g id="Group_6504" data-name="Group 6504" transform="translate(0 0)">
    <g id="Group_6498" data-name="Group 6498" transform="translate(0 0)" clip-path="url(#clip-path)">
      <path id="Path_15908" data-name="Path 15908" d="M11.268.671a1.01,1.01,0,0,0,.911-.293,2.917,2.917,0,0,1,.279-.205.913.913,0,0,1,1.075,0c.177.125.345.265.529.378A.807.807,0,0,0,14.4.666c.216.018.434,0,.651.006a.911.911,0,0,1,.873.626c.076.217.135.441.219.655a.646.646,0,0,0,.182.249c.166.138.349.257.524.386A.916.916,0,0,1,17.2,3.652c-.063.2-.142.4-.191.606a.763.763,0,0,0,0,.347c.063.254.167.5.222.754a.853.853,0,0,1-.345.89c-.174.137-.365.253-.533.4a.868.868,0,0,0-.22.3c-.077.177-.122.367-.182.551a.931.931,0,0,1-.95.7c-.208,0-.417-.01-.623.005a.694.694,0,0,0-.305.1c-.183.115-.352.253-.529.378a.9.9,0,0,1-1.107,0c-.162-.115-.324-.229-.481-.351a.594.594,0,0,0-.4-.131,6.7,6.7,0,0,1-.72-.011.871.871,0,0,1-.784-.625c-.07-.195-.136-.392-.192-.591a.6.6,0,0,0-.255-.347c-.172-.116-.339-.24-.5-.366a.9.9,0,0,1-.329-1.009c.065-.216.147-.428.2-.646a.728.728,0,0,0,0-.334c-.051-.21-.131-.412-.195-.619a.914.914,0,0,1,.354-1.062c.171-.125.35-.241.513-.378a.69.69,0,0,0,.19-.26c.084-.209.143-.428.216-.641a.912.912,0,0,1,.88-.636c.111,0,.222,0,.333,0m.171,5.5a.276.276,0,0,0,.418.268q.518-.263,1.028-.54a.2.2,0,0,1,.215,0c.336.183.676.357,1.014.536a.281.281,0,0,0,.324-.007.292.292,0,0,0,.1-.31c-.065-.377-.125-.754-.2-1.13a.183.183,0,0,1,.064-.191c.283-.272.563-.547.843-.822a.264.264,0,0,0,.076-.29.271.271,0,0,0-.234-.189c-.383-.058-.765-.117-1.149-.165a.2.2,0,0,1-.183-.135c-.159-.332-.326-.661-.487-.992a.289.289,0,0,0-.556,0c-.165.34-.331.679-.5,1.015a.207.207,0,0,1-.126.1c-.382.062-.765.117-1.149.169a.3.3,0,0,0-.277.193.285.285,0,0,0,.1.32,7.926,7.926,0,0,0,.619.594.575.575,0,0,1,.214.689c-.08.3-.11.607-.158.886" transform="translate(-7.691 0)" fill="#54698d"/>
      <path id="Path_15909" data-name="Path 15909" d="M53.771,59.424a.645.645,0,0,1,.526-.215,2.957,2.957,0,0,0,.77-.042,1.342,1.342,0,0,0,.992-.916,2.7,2.7,0,0,0,.13-.408.645.645,0,0,1,.4-.462c.068.077.14.167.221.248.338.342.679.679,1.018,1.021a.29.29,0,0,1-.111.526c-.386.152-.774.3-1.157.456a.33.33,0,0,0-.163.162c-.156.374-.3.754-.447,1.131-.12.306-.326.351-.556.122l-1.624-1.622" transform="translate(-47.35 -50.528)" fill="#54698d"/>
      <path id="Path_15910" data-name="Path 15910" d="M1.391,57.483a.614.614,0,0,1,.371.436,3.105,3.105,0,0,0,.155.472A1.389,1.389,0,0,0,3.2,59.3a3.592,3.592,0,0,0,.457,0,.6.6,0,0,1,.525.206c-.024.027-.048.059-.075.086L2.556,61.141c-.223.223-.434.178-.549-.117-.148-.377-.3-.753-.44-1.132a.281.281,0,0,0-.185-.181C1,59.568.626,59.418.249,59.27c-.286-.112-.33-.322-.112-.541L1.3,57.564c.029-.029.06-.055.089-.081" transform="translate(0 -50.619)" fill="#54698d"/>
      <path id="Path_15911" data-name="Path 15911" d="M32.21,25.28c.238-.035.474-.078.712-.1a.445.445,0,0,0,.411-.29c.094-.223.212-.436.333-.681.118.237.236.444.325.662a.462.462,0,0,0,.441.311c.232.018.461.065.68.1-.182.192-.353.387-.54.563a.408.408,0,0,0-.124.412c.047.248.088.5.136.772-.23-.12-.444-.219-.643-.34a.467.467,0,0,0-.541,0c-.2.122-.413.221-.648.343a4.848,4.848,0,0,1,.1-.572.621.621,0,0,0-.232-.753,3.755,3.755,0,0,1-.409-.421" transform="translate(-28.364 -21.317)" fill="#54698d"/>
    </g>
  </g>
</svg>
