<svg xmlns="http://www.w3.org/2000/svg" width="11.453" height="10.287" viewBox="0 0 11.453 10.287">
  <g id="Group_6502" data-name="Group 6502" transform="translate(0 -0.266)">
    <g id="Group_6509" data-name="Group 6509" transform="translate(0 0.266)">
      <path id="Path_15921" data-name="Path 15921" d="M0,39.465c.012-.049.026-.1.037-.147a1.643,1.643,0,0,1,.794-1.074.254.254,0,0,0,.1-.109c.281-.637.556-1.277.838-1.915A1.293,1.293,0,0,1,3,35.391c.456-.01.912,0,1.368,0a.115.115,0,0,1,.09.052c.081.27.156.542.236.826h-.1c-.5,0-1.008.005-1.512,0a.5.5,0,0,0-.518.335c-.185.441-.38.878-.571,1.316-.012.027-.022.055-.039.1h.13q1.97,0,3.94,0a.368.368,0,0,1,.2.069,6.131,6.131,0,0,0,1.164.689,1.2,1.2,0,0,0,1.033,0c.2-.093.4-.2.592-.306a.1.1,0,0,1,.141.016,1.5,1.5,0,0,1,.5,1.049c.016.612.018,1.225,0,1.838a1.067,1.067,0,0,1-.87,1.009.374.374,0,0,0-.055.021H8.4a.235.235,0,0,0-.045-.02,1.086,1.086,0,0,1-.884-1.02c-.006-.09,0-.181,0-.268H2.2c0,.083,0,.158,0,.233a1.1,1.1,0,0,1-.758,1.02c-.061.02-.123.036-.185.054H.947a.488.488,0,0,0-.057-.02,1.083,1.083,0,0,1-.834-.731c-.023-.063-.037-.129-.056-.194V39.465m2.2.742c.151,0,.3,0,.452,0a.433.433,0,0,0,0-.866q-.452,0-.9,0a.433.433,0,0,0,0,.866c.151,0,.3,0,.452,0m5.271-.868c-.151,0-.3,0-.452,0a.433.433,0,0,0,0,.867q.447,0,.894,0a.433.433,0,0,0,0-.867c-.147,0-.295,0-.442,0" transform="translate(0 -32.116)" fill="#54698d"/>
      <g id="icons_utility_clear" data-name="icons/utility/clear" transform="translate(5.654)">
        <path id="Mask" d="M3.515.615a2.9,2.9,0,1,0,2.9,2.9A2.892,2.892,0,0,0,3.515.615Zm.592,3,.942.942a.117.117,0,0,1,0,.169l-.338.338a.117.117,0,0,1-.169,0L3.6,4.119a.117.117,0,0,0-.169,0l-.942.942a.117.117,0,0,1-.169,0L1.98,4.723a.117.117,0,0,1,0-.169l.942-.942a.117.117,0,0,0,0-.169l-.954-.954a.117.117,0,0,1,0-.169l.338-.338a.117.117,0,0,1,.169,0l.954.954a.117.117,0,0,0,.169,0l.942-.942a.117.117,0,0,1,.169,0l.338.338a.117.117,0,0,1,0,.169l-.942.942a.145.145,0,0,0,0,.169Z" transform="translate(-0.615 -0.615)" fill="#54698d"/>
      </g>
    </g>
  </g>
</svg>
