<svg id="Group_6461" data-name="Group 6461" xmlns="http://www.w3.org/2000/svg" width="17" height="17.997" viewBox="0 0 17 17.997">
  <g id="Group_6462" data-name="Group 6462">
    <path id="Path_15876" data-name="Path 15876" d="M50.581,34.2q0-2.3,0-4.6c0-.59.111-.71.656-.71q1.525,0,3.05,0c.493,0,.629.144.629.656q0,4.686,0,9.372c0,.5-.138.652-.606.653q-1.566,0-3.131,0c-.461,0-.6-.144-.6-.628q0-2.371,0-4.743" transform="translate(-38.486 -21.577)" fill="#54698d"/>
    <path id="Path_15877" data-name="Path 15877" d="M30.83,42.611q0,1.772,0,3.545c0,.438-.135.592-.543.594q-1.62.006-3.24,0c-.4,0-.535-.158-.535-.574q0-3.545,0-7.089c0-.421.154-.583.556-.584q1.607,0,3.213,0c.4,0,.548.168.549.592q0,1.758,0,3.516" transform="translate(-20.172 -28.756)" fill="#54698d"/>
    <path id="Path_15878" data-name="Path 15878" d="M2.738,25.071a2.9,2.9,0,0,1-.015-5.794,2.9,2.9,0,0,1,.015,5.794" transform="translate(0 -14.398)" fill="#54698d"/>
    <path id="Path_15879" data-name="Path 15879" d="M2.368,51.105c0-.771,0-1.542,0-2.313,0-.445.149-.6.565-.6q1.618,0,3.237,0c.376,0,.53.15.532.547q.007,2.356,0,4.712c0,.373-.16.535-.519.536q-1.646.008-3.291,0c-.367,0-.521-.176-.522-.566,0-.771,0-1.542,0-2.313" transform="translate(-1.801 -35.991)" fill="#54698d"/>
    <path id="Path_15880" data-name="Path 15880" d="M50.912,4.934c-.3.236-.579.46-.863.678a.623.623,0,0,1-.821.052.76.76,0,0,1-.235-.842c.088-.319.2-.631.274-.952a.374.374,0,0,0-.091-.3c-.224-.205-.473-.378-.706-.572a.734.734,0,0,1-.263-.83.664.664,0,0,1,.684-.488c.252,0,.5-.016.755,0,.213.017.323-.043.373-.28a8.942,8.942,0,0,1,.264-.9A.652.652,0,0,1,50.9,0a.645.645,0,0,1,.638.511c.1.3.2.612.275.923.047.185.121.267.315.252.277-.021.557-.009.836,0a.665.665,0,0,1,.647.465.75.75,0,0,1-.221.823c-.246.208-.5.406-.757.6a.232.232,0,0,0-.09.308c.108.322.2.65.29.978a.73.73,0,0,1-.264.827.606.606,0,0,1-.775-.052c-.291-.223-.576-.454-.879-.694" transform="translate(-36.651 0.001)" fill="#54698d"/>
    <path id="Path_15881" data-name="Path 15881" d="M29.467,13.381c-.209-.083-.371-.139-.526-.212a.447.447,0,0,1-.244-.587.406.406,0,0,1,.543-.276c.507.19,1.012.388,1.512.6a.447.447,0,0,1,.263.622q-.262.778-.544,1.548c-.109.3-.3.4-.547.3a.455.455,0,0,1-.263-.64c.046-.143.1-.284.169-.487-.117.049-.193.077-.267.113-.792.382-1.582.768-2.376,1.146a.423.423,0,0,1-.65-.3.463.463,0,0,1,.318-.551c.809-.388,1.616-.782,2.424-1.173.048-.024.1-.05.187-.1" transform="translate(-20.182 -9.17)" fill="#54698d"/>
  </g>
</svg>
