<svg id="Group_6458" data-name="Group 6458" xmlns="http://www.w3.org/2000/svg" xmlns:xlink="http://www.w3.org/1999/xlink" width="16" height="15.835" viewBox="0 0 16 15.835">
  <defs>
    <clipPath id="clip-path">
      <rect id="Rectangle_11881" data-name="Rectangle 11881" width="16" height="15.835" fill="#54698d"/>
    </clipPath>
  </defs>
  <g id="Group_6458-2" data-name="Group 6458" clip-path="url(#clip-path)">
    <path id="Path_15870" data-name="Path 15870" d="M683.417,434.315c-.1-.024-.2-.041-.3-.072a1.568,1.568,0,0,1-1.046-1.511q0-2.382,0-4.765a1.522,1.522,0,0,1,1.452-1.571h1.465a1.51,1.51,0,0,1,1.443,1.482c0,.055.005.111.005.167q0,2.308,0,4.616a1.685,1.685,0,0,1-.392,1.141,1.381,1.381,0,0,1-.889.5.32.32,0,0,0-.056.018Z" transform="translate(-670.441 -418.48)" fill="#54698d"/>
    <path id="Path_15871" data-name="Path 15871" d="M342.546,601.47a3.594,3.594,0,0,1-.457-.134,1.574,1.574,0,0,1-.889-1.444c0-.519.009-1.038,0-1.557a1.533,1.533,0,0,1,1.424-1.618c.536,0,1.073-.011,1.609.008a1.5,1.5,0,0,1,1.311,1.314,2.481,2.481,0,0,1,.018.3q0,.783,0,1.567a1.541,1.541,0,0,1-1.28,1.551.454.454,0,0,0-.066.018h-1.67" transform="translate(-335.379 -585.635)" fill="#54698d"/>
    <path id="Path_15872" data-name="Path 15872" d="M1.573,685.287c-.074-.017-.149-.031-.223-.051a1.617,1.617,0,0,1,.073-3.094,1.25,1.25,0,0,1,.254-.025q.741,0,1.481,0a1.5,1.5,0,0,1,1.432,1.4,1.557,1.557,0,0,1-1.274,1.75.35.35,0,0,0-.056.017Z" transform="translate(-0.234 -669.452)" fill="#54698d"/>
    <path id="Path_15873" data-name="Path 15873" d="M13.369,5.062a1.217,1.217,0,0,1-.075.1,14.647,14.647,0,0,1-5.72,3.941,16.039,16.039,0,0,1-3.006.841c-.607.107-1.218.193-1.83.245-.678.058-1.36.072-2.041.094a.663.663,0,0,1-.659-.522A.8.8,0,0,1,.494,8.745a1.226,1.226,0,0,1,.337-.04,11.009,11.009,0,0,0,4.391-1A15.733,15.733,0,0,0,9.637,4.7,19.155,19.155,0,0,0,11.3,2.906c.013-.016.025-.033.04-.053-.023-.027-.044-.052-.065-.075-.438-.477-.878-.95-1.312-1.43a.826.826,0,0,1,.269-1.3A.757.757,0,0,1,10.49,0q2.381,0,4.762,0a.907.907,0,0,1,.3.054.621.621,0,0,1,.382.684,1.167,1.167,0,0,0-.009.148q0,2.513,0,5.025a.746.746,0,0,1-.572.785.662.662,0,0,1-.678-.22q-.61-.666-1.222-1.331c-.022-.024-.045-.046-.083-.086" transform="translate(0 0)" fill="#54698d"/>
  </g>
</svg>
