<svg xmlns="http://www.w3.org/2000/svg" xmlns:xlink="http://www.w3.org/1999/xlink" width="9.051" height="8.001" viewBox="0 0 9.051 8.001">
  <defs>
    <clipPath id="clip-path">
      <rect id="Rectangle_11892" data-name="Rectangle 11892" width="9.051" height="8.001" fill="#54698d"/>
    </clipPath>
  </defs>
  <g id="Group_6498" data-name="Group 6498" transform="translate(0 0)">
    <g id="Group_6499" data-name="Group 6499" transform="translate(0 0)" clip-path="url(#clip-path)">
      <path id="Path_15912" data-name="Path 15912" d="M2.92.052A1.733,1.733,0,0,0,1.731,1.061c-.146.324-.284.652-.424.98a.065.065,0,0,1-.072.047c-.29,0-.58,0-.869,0a.334.334,0,0,0-.359.265S0,2.356,0,2.358v.152c0,.011.009.022.013.034a.322.322,0,0,0,.309.237c.1,0,.2,0,.3,0,.017,0,.035,0,.034-.013-.077.088-.155.174-.231.263A1.745,1.745,0,0,0,.01,3.99.345.345,0,0,1,0,4.032V5.684a.159.159,0,0,1,.01.03A.958.958,0,0,0,.3,6.287.138.138,0,0,1,.349,6.4c0,.237-.009.475.013.711A1.007,1.007,0,0,0,1.337,8c.268,0,.536.005.8,0a.977.977,0,0,0,.626-.24,1.011,1.011,0,0,0,.362-.782c0-.121,0-.241,0-.368H4.437V5.912H2.926c.009-.02.015-.033.021-.045.132-.253.262-.507.4-.759a1.04,1.04,0,0,1,.978-.586h.115V2.432H1.918c.007-.019.012-.034.018-.048.152-.348.3-.7.457-1.043A1.015,1.015,0,0,1,3.1.726,1.128,1.128,0,0,1,3.362.7H4.437V0H3.185C3.1.017,3.007.029,2.92.052m-1,4.121h.505a.342.342,0,0,1,.34.467.315.315,0,0,1-.315.228c-.357,0-.714,0-1.07,0a.321.321,0,0,1-.332-.307.329.329,0,0,1,.234-.369.528.528,0,0,1,.134-.017c.168,0,.337,0,.505,0" transform="translate(0 0)" fill="#54698d"/>
      <path id="Path_15913" data-name="Path 15913" d="M36.874,1.912Q35.938,1.1,35.005.284L34.95.238h-.111L32.9,1.926a.866.866,0,0,0-.073.082v6.1a.216.216,0,0,0,.2.093q1.861,0,3.723,0c.16,0,.2-.042.2-.2q0-2.944,0-5.888a.241.241,0,0,0-.086-.2M34.9,1.579a.557.557,0,1,1-.566.554.551.551,0,0,1,.566-.554m.39,3.777a.637.637,0,0,1,.618.666.647.647,0,0,1-.642.629c-.073,0-.146,0-.228,0,0,.079,0,.149,0,.219a.149.149,0,1,1-.295,0c0-.07,0-.14,0-.221H34.19c-.052,0-.1,0-.156,0a.146.146,0,0,1-.156-.155.143.143,0,0,1,.161-.139c.212,0,.424,0,.636,0h.068V5.642h-.228a.647.647,0,0,1,0-1.294c.076,0,.152,0,.237,0,0-.08,0-.149,0-.219,0-.1.056-.166.143-.168s.149.06.152.169c0,.067,0,.135,0,.2,0,0,0,0,.015.016.224,0,.456,0,.689,0,.116,0,.186.081.158.183-.023.086-.091.108-.171.108h-.688v.717c.081,0,.163,0,.244,0" transform="translate(-27.91 -0.202)" fill="#54698d"/>
      <path id="Path_15914" data-name="Path 15914" d="M47.628,36.983c.078,0,.151,0,.223,0a.354.354,0,0,0,.35-.323.346.346,0,0,0-.277-.377,2.309,2.309,0,0,0-.3-.02Z" transform="translate(-40.49 -30.827)" fill="#54698d"/>
      <path id="Path_15915" data-name="Path 15915" d="M42.039,29.622a.353.353,0,0,0-.027.7,2.161,2.161,0,0,0,.3,0v-.7c-.093,0-.182-.006-.269,0" transform="translate(-35.476 -25.179)" fill="#54698d"/>
    </g>
  </g>
</svg>
