<svg id="Group_6500" data-name="Group 6500" xmlns="http://www.w3.org/2000/svg" xmlns:xlink="http://www.w3.org/1999/xlink" width="10.296" height="10.27" viewBox="0 0 10.296 10.27">
  <defs>
    <clipPath id="clip-path">
      <rect id="Rectangle_11895" data-name="Rectangle 11895" width="10.296" height="10.27" fill="#54698d"/>
    </clipPath>
  </defs>
  <g id="Group_6505" data-name="Group 6505" transform="translate(0 0)" clip-path="url(#clip-path)">
    <path id="Path_15921" data-name="Path 15921" d="M0,39.371c.012-.048.025-.1.036-.144a1.605,1.605,0,0,1,.776-1.05A.249.249,0,0,0,.9,38.072c.275-.623.544-1.248.819-1.871A1.264,1.264,0,0,1,2.93,35.39c.445-.009.891,0,1.337,0a.112.112,0,0,1,.088.051c.079.264.152.53.23.807h-.1c-.493,0-.985,0-1.477,0a.487.487,0,0,0-.506.328c-.181.431-.372.857-.558,1.286-.012.027-.021.054-.038.1h.127q1.925,0,3.85,0a.36.36,0,0,1,.2.067,5.99,5.99,0,0,0,1.137.673,1.174,1.174,0,0,0,1.009,0c.2-.091.389-.194.578-.3a.1.1,0,0,1,.137.016,1.466,1.466,0,0,1,.487,1.025c.016.6.018,1.2,0,1.8a1.042,1.042,0,0,1-.85.986.366.366,0,0,0-.054.02H8.2a.23.23,0,0,0-.044-.019,1.061,1.061,0,0,1-.864-1c-.005-.088,0-.176,0-.261H2.148c0,.081,0,.155,0,.228a1.076,1.076,0,0,1-.74,1c-.06.02-.12.036-.181.053h-.3a.478.478,0,0,0-.056-.019,1.058,1.058,0,0,1-.815-.714c-.022-.062-.037-.126-.055-.19V39.371m2.146.725c.147,0,.295,0,.442,0a.423.423,0,0,0,0-.847q-.442,0-.884,0a.423.423,0,0,0,0,.846c.147,0,.295,0,.442,0m5.15-.848c-.147,0-.295,0-.442,0a.423.423,0,0,0,0,.847q.437,0,.874,0a.424.424,0,0,0,0-.847c-.144,0-.288,0-.432,0" transform="translate(0 -31.972)" fill="#54698d"/>
    <path id="Path_15922" data-name="Path 15922" d="M58.5,3.064c-.036.169-.063.341-.111.506a3.369,3.369,0,0,1-1.079,1.587,5.4,5.4,0,0,1-1.18.774.42.42,0,0,1-.4,0,4.7,4.7,0,0,1-1.9-1.58,2.742,2.742,0,0,1-.479-1.566c0-.559,0-1.117,0-1.676A.324.324,0,0,1,53.6.763c.734-.25,1.467-.5,2.2-.744a.43.43,0,0,1,.253,0c.735.243,1.468.5,2.2.743A.4.4,0,0,1,58.5,1Zm-2.741-.045c-.139-.119-.267-.231-.4-.339a.426.426,0,1,0-.551.649q.356.309.716.614a.424.424,0,0,0,.637-.058c.1-.127.2-.257.3-.386.287-.365.577-.729.861-1.1a.423.423,0,0,0-.062-.6.43.43,0,0,0-.608.075c-.041.049-.079.1-.118.149l-.782.992" transform="translate(-48.206 0)" fill="#54698d"/>
  </g>
</svg>
