<svg id="Component_189_1" data-name="Component 189 – 1" xmlns="http://www.w3.org/2000/svg" xmlns:xlink="http://www.w3.org/1999/xlink" width="18" height="18" viewBox="0 0 18 18">
  <defs>
    <clipPath id="clip-path">
      <rect id="Rectangle_11883" data-name="Rectangle 11883" width="18" height="18" transform="translate(0 -0.287)" fill="#54698d"/>
    </clipPath>
  </defs>
  <g id="Group_6464" data-name="Group 6464" transform="translate(0 0.286)" clip-path="url(#clip-path)">
    <path id="Path_15887" data-name="Path 15887" d="M.419,165.774a.661.661,0,0,1-.419-.7c.009-2.259,0-4.519,0-6.778a.574.574,0,0,1,.645-.65H3.316c0,.067.008.127.008.188,0,.674,0,1.349,0,2.023a.731.731,0,0,0,.611.73.713.713,0,0,0,.815-.484,1.153,1.153,0,0,0,.043-.34c0-.628,0-1.257,0-1.885v-.231H7.486a.579.579,0,0,1,.642.642c0,2.254,0,4.507,0,6.761a.693.693,0,0,1-.414.72Z" transform="translate(0 -148.058)" fill="#54698d"/>
    <path id="Path_15888" data-name="Path 15888" d="M157.962,165.7a.7.7,0,0,1-.415-.72c.009-2.242,0-4.483,0-6.725a.591.591,0,0,1,.675-.679h2.643c0,.079.012.145.012.211,0,.651,0,1.3,0,1.954a.729.729,0,0,0,.855.776.737.737,0,0,0,.616-.76c0-.657,0-1.314,0-1.971v-.209h.2c.8,0,1.6.009,2.4,0a.689.689,0,0,1,.72.415v7.3a.718.718,0,0,1-.415.415Z" transform="translate(-147.962 -147.989)" fill="#54698d"/>
    <path id="Path_15889" data-name="Path 15889" d="M284.314,284.761a.718.718,0,0,0,.415-.415v.415Z" transform="translate(-267.015 -267.045)" fill="#54698d"/>
    <path id="Path_15890" data-name="Path 15890" d="M82.1.007c0,.762,0,1.494,0,2.225a.729.729,0,0,0,1.459,0c0-.674,0-1.349,0-2.023v-.2H86.26A.564.564,0,0,1,86.9.645q0,2.162,0,4.323,0,1.236,0,2.473c0,.481-.205.688-.68.688H79.454c-.474,0-.681-.208-.681-.687,0-2.254.006-4.508-.005-6.762A.621.621,0,0,1,79.443,0c.818.022,1.637.007,2.455.007Z" transform="translate(-73.975 0)" fill="#54698d"/>
  </g>
</svg>
