<svg xmlns="http://www.w3.org/2000/svg" width="11.299" height="9.968" viewBox="0 0 11.299 9.968">
  <g id="Group_6501" data-name="Group 6501" transform="translate(0 -0.619)">
    <g id="Group_6509" data-name="Group 6509" transform="translate(0 0.619)">
      <path id="Path_15921" data-name="Path 15921" d="M0,39.456c.012-.049.026-.1.037-.147a1.639,1.639,0,0,1,.792-1.072.254.254,0,0,0,.1-.108c.28-.636.555-1.275.836-1.911a1.291,1.291,0,0,1,1.232-.828c.455-.01.91,0,1.365,0a.114.114,0,0,1,.09.052c.081.269.156.541.235.824h-.1c-.5,0-1.006.005-1.509,0a.5.5,0,0,0-.517.335c-.184.44-.379.876-.57,1.313-.012.027-.022.055-.039.1h.13q1.966,0,3.931,0a.368.368,0,0,1,.2.068,6.118,6.118,0,0,0,1.161.687,1.2,1.2,0,0,0,1.031,0c.2-.093.4-.2.591-.305a.1.1,0,0,1,.14.016,1.5,1.5,0,0,1,.5,1.046c.016.611.018,1.223,0,1.834a1.064,1.064,0,0,1-.868,1.007.373.373,0,0,0-.055.021H8.379a.234.234,0,0,0-.045-.02,1.084,1.084,0,0,1-.882-1.018c-.006-.09,0-.18,0-.267H2.194c0,.083,0,.158,0,.233a1.1,1.1,0,0,1-.756,1.017c-.061.02-.123.036-.184.054H.945a.487.487,0,0,0-.057-.02,1.081,1.081,0,0,1-.832-.729c-.023-.063-.037-.129-.056-.194V39.456m2.192.74c.15,0,.3,0,.451,0a.432.432,0,0,0,0-.865q-.451,0-.9,0a.432.432,0,0,0,0,.864c.15,0,.3,0,.451,0m5.26-.866c-.15,0-.3,0-.451,0A.432.432,0,0,0,7,40.2q.446,0,.892,0a.433.433,0,0,0,0-.865c-.147,0-.294,0-.441,0" transform="translate(0 -32.42)" fill="#54698d"/>
      <g id="icons_utility_error" data-name="icons/utility/error" transform="translate(5.662)">
        <path id="Mask" d="M3.434.615A2.818,2.818,0,1,0,6.252,3.434,2.827,2.827,0,0,0,3.434.615Zm1.4,3.018a.178.178,0,0,1-.176.153H2.212a.168.168,0,0,1-.176-.153,2.266,2.266,0,0,1,0-.4.178.178,0,0,1,.176-.153H4.655a.178.178,0,0,1,.176.153A2.266,2.266,0,0,1,4.831,3.633Z" transform="translate(-0.615 -0.615)" fill="#54698d"/>
      </g>
    </g>
  </g>
</svg>
