<svg xmlns="http://www.w3.org/2000/svg" width="17" height="20" viewBox="0 0 17 20">
  <g id="Group_6524" data-name="Group 6524" transform="translate(0)">
    <path id="Path_15883" data-name="Path 15883" d="M97.175,65.567q-1.582.908-3.163,1.817-2.359,1.359-4.715,2.722c-.06.034-.122.065-.209.112V70q0-4.457,0-8.914c0-.113,0-.2.124-.273q3.95-2.271,7.894-4.553c.022-.013.046-.024.069-.036Z" transform="translate(-80.175 -50.218)" fill="#54698d"/>
    <path id="Path_15884" data-name="Path 15884" d="M13.05,0,15.2,1.261l.913.532c-.069.046-.118.083-.171.113Q11.965,4.2,7.987,6.5a.24.24,0,0,1-.281.026C6.746,5.967,5.782,5.412,4.82,4.855c-.028-.016-.054-.035-.1-.064l.24-.142L12.8.12c.06-.035.115-.079.172-.12Z" transform="translate(-4.256)" fill="#54698d"/>
    <path id="Path_15885" data-name="Path 15885" d="M4.931,61.708V59.454c.078.037.135.06.188.091q1.564.9,3.128,1.8a.258.258,0,0,1,.162.253q-.007,4.465,0,8.931c0,.045-.005.09-.01.162-.062-.03-.113-.05-.16-.077Q4.375,68.384.518,66.15a.286.286,0,0,1-.128-.2q-.009-4.514,0-9.028c0-.025.005-.05.01-.095.061.031.112.053.161.081.913.525,1.825,1.053,2.741,1.573a.286.286,0,0,1,.168.29c-.007.671,0,1.342-.006,2.013a.239.239,0,0,0,.156.253c.43.211.854.435,1.318.674" transform="translate(-0.384 -50.755)" fill="#54698d"/>
    <path id="Path_15886" data-name="Path 15886" d="M48.934,30.751l3.222-1.861q2.45-1.415,4.9-2.833a.261.261,0,0,1,.3-.008q1.649.949,3.3,1.887c.034.019.066.04.119.073-.055.037-.1.07-.144.1q-4,2.309-7.991,4.62a.242.242,0,0,1-.281.011c-1.127-.65-2.258-1.292-3.387-1.937-.01-.006-.016-.018-.041-.048" transform="translate(-44.323 -23.22)" fill="#54698d"/>
  </g>
</svg>
