<svg xmlns="http://www.w3.org/2000/svg" width="9" height="9.992" viewBox="0 0 9 9.992">
  <g id="Group_6503" data-name="Group 6503" transform="translate(0 0)">
    <path id="Path_15923" data-name="Path 15923" d="M.741,0H6.99a2.023,2.023,0,0,1,.243.084.823.823,0,0,1,.49.8q0,1.978,0,3.956c0,.028,0,.056-.007.092H7.36a3.082,3.082,0,0,0-1.665.449A2.79,2.79,0,0,0,4.3,7.7c-.021.41,0,.821-.006,1.232v.1c-.042,0-.069.006-.1.006q-1.642,0-3.285,0a1.028,1.028,0,0,1-.248-.026A.827.827,0,0,1,0,8.181Q0,4.518,0,.856A.828.828,0,0,1,.2.3.982.982,0,0,1,.741,0M6.426,2.886H1.3v.806H6.426ZM1.3,2.043H5.569v-.8H1.3Zm0,3.287H3.852v-.8H1.3Zm0,1.642H3V6.165H1.3Z" transform="translate(0 0)" fill="#54698d"/>
    <path id="Path_15924" data-name="Path 15924" d="M26.3,37.415A2.117,2.117,0,1,1,28.411,35.3,2.111,2.111,0,0,1,26.3,37.415m-.307-1.921c-.089-.1-.158-.176-.233-.249a.233.233,0,0,0-.347-.025c-.106.1-.1.23.02.357.072.076.148.149.223.223.333.333.352.333.689,0,.276-.276.555-.551.827-.831.148-.152.106-.364-.083-.4a.352.352,0,0,0-.26.091c-.28.264-.546.543-.836.836" transform="translate(-19.411 -27.423)" fill="#54698d"/>
  </g>
</svg>
