<svg id="icons_utility_link-copy" data-name="icons/utility/link-copy" xmlns="http://www.w3.org/2000/svg" width="13.737" height="13.694" viewBox="0 0 13.737 13.694">
  <path id="Mask" d="M7.83,11.922l-.6-.086a4.42,4.42,0,0,1-.6-.172.376.376,0,0,0-.343.086l-.143.143a2.251,2.251,0,0,1-3.034.172A2.191,2.191,0,0,1,2.993,8.86L5.168,6.685a2.431,2.431,0,0,1,.973-.572A2.251,2.251,0,0,1,7.515,6.2a2.382,2.382,0,0,1,.744.487,1.837,1.837,0,0,1,.286.372.31.31,0,0,0,.515.057l.8-.8a.343.343,0,0,0,.029-.429,3.063,3.063,0,0,0-.4-.458A3.2,3.2,0,0,0,8.8,4.882a3.655,3.655,0,0,0-1.345-.515,4.092,4.092,0,0,0-2.662.4,3.967,3.967,0,0,0-.887.658L1.82,7.515a3.978,3.978,0,0,0-.172,5.523,3.917,3.917,0,0,0,5.667.114l.715-.715c.2-.143.057-.487-.2-.515ZM13.1,1.648a3.977,3.977,0,0,0-5.523.172l-.658.63a.342.342,0,0,0,.2.572,5.933,5.933,0,0,1,1.2.229.376.376,0,0,0,.343-.086L8.8,3.022a2.251,2.251,0,0,1,3.034-.172,2.191,2.191,0,0,1,.114,3.205L9.776,8.231A2.431,2.431,0,0,1,8.8,8.8a2.251,2.251,0,0,1-1.374-.086,2.382,2.382,0,0,1-.744-.487A1.837,1.837,0,0,1,6.4,7.859.31.31,0,0,0,5.884,7.8l-.8.8a.343.343,0,0,0-.029.429,3.063,3.063,0,0,0,.4.458,4.1,4.1,0,0,0,.687.544,3.719,3.719,0,0,0,1.316.515,4.092,4.092,0,0,0,2.662-.4,3.967,3.967,0,0,0,.887-.658l2.175-2.175A3.916,3.916,0,0,0,13.1,1.648Z" transform="translate(-0.615 -0.615)" fill="#54698d"/>
</svg>
