<svg xmlns="http://www.w3.org/2000/svg" xmlns:xlink="http://www.w3.org/1999/xlink" width="14" height="17" viewBox="0 0 14 17">
  <defs>
    <clipPath id="clip-path">
      <rect id="Rectangle_11882" data-name="Rectangle 11882" width="14" height="17" transform="translate(0 -0.34)" fill="#54698d"/>
    </clipPath>
  </defs>
  <g id="Group_6460" data-name="Group 6460" transform="translate(0 0.34)">
    <g id="Group_6459" data-name="Group 6459" clip-path="url(#clip-path)">
      <path id="Path_15874" data-name="Path 15874" d="M13.709,13.71q0,3.606,0,7.211a.558.558,0,0,1-.419.565.784.784,0,0,1-.2.02H1.566c-.318,0-.637-.007-.956,0a.592.592,0,0,1-.61-.6Q.009,13.738,0,6.569a.586.586,0,0,1,.594-.6c.608,0,1.217,0,1.825,0a.407.407,0,0,1,.415.419,4.345,4.345,0,0,0,.029.535A1.369,1.369,0,0,0,4.058,8.034a2.435,2.435,0,0,0,.257.014H9.525a1.379,1.379,0,0,0,1.384-1.068,1.945,1.945,0,0,0,.039-.524.443.443,0,0,1,.491-.489c.574.011,1.148,0,1.722,0a.527.527,0,0,1,.538.391.424.424,0,0,1,.012.1q0,3.623,0,7.245ZM3.276,13.9c.321,0,.642,0,.964,0a.438.438,0,0,0,.466-.466q0-.946,0-1.891a.446.446,0,0,0-.477-.475H2.317a.444.444,0,0,0-.473.47q0,.946,0,1.892a.438.438,0,0,0,.476.472h.955M3.27,19.1h0c.321,0,.643,0,.964,0a.439.439,0,0,0,.471-.47q0-.941,0-1.883a.447.447,0,0,0-.481-.481h-1.9a.444.444,0,0,0-.478.473q0,.946,0,1.892a.437.437,0,0,0,.471.468c.318,0,.637,0,.955,0m5.678-.872h.336c.692,0,1.383,0,2.075,0a.546.546,0,0,0,.524-.689.579.579,0,0,0-.585-.4c-1.521,0-3.042,0-4.563,0-.086,0-.172,0-.258.007a.541.541,0,0,0,.07,1.078c.8,0,1.6,0,2.4,0m0-5.165h1.076c.448,0,.9,0,1.343,0a.545.545,0,0,0,.513-.683.576.576,0,0,0-.573-.4c-1.573,0-3.145,0-4.718,0-.034,0-.069,0-.1,0a.559.559,0,0,0-.495.517.553.553,0,0,0,.563.563q1.2,0,2.393,0" transform="translate(0 -4.51)" fill="#54698d"/>
      <path id="Path_15875" data-name="Path 15875" d="M17.385,2.586H14.777c-.249,0-.353-.1-.353-.353q0-.622,0-1.244a.294.294,0,0,1,.333-.329c.318,0,.637,0,.955,0A.377.377,0,0,0,16.03.521a1.432,1.432,0,0,1,.928-.485A2.424,2.424,0,0,1,18.347.2a1.021,1.021,0,0,1,.406.306.531.531,0,0,0,.167.107A.992.992,0,0,0,19.4.657c.209.007.419,0,.628,0a.289.289,0,0,1,.313.308q0,.652,0,1.3a.293.293,0,0,1-.324.315H17.385" transform="translate(-10.528 -0.138)" fill="#54698d"/>
    </g>
  </g>
</svg>
