<svg id="Group_6457" data-name="Group 6457" xmlns="http://www.w3.org/2000/svg" xmlns:xlink="http://www.w3.org/1999/xlink" width="20" height="16.8" viewBox="0 0 20 16.8">
  <defs>
    <clipPath id="clip-path">
      <rect id="Rectangle_11880" data-name="Rectangle 11880" width="20" height="16.8" fill="#54698d"/>
    </clipPath>
  </defs>
  <g id="Group_6457-2" data-name="Group 6457" clip-path="url(#clip-path)">
    <path id="Path_15861" data-name="Path 15861" d="M345.049,41.14v1.422h-1.834v12.76h10.132V42.564h-1.811l-.022-1.424c.007,0,.032,0,.057,0,.739,0,1.479,0,2.218,0a.97.97,0,0,1,.961.664,1.131,1.131,0,0,1,.049.337q0,3.309,0,6.619,0,3.5,0,7a.957.957,0,0,1-.774.97,1.121,1.121,0,0,1-.237.024H342.786a.976.976,0,0,1-1.011-.816,1.091,1.091,0,0,1-.011-.2q0-6.8,0-13.59a.982.982,0,0,1,.782-.983,1.164,1.164,0,0,1,.22-.023q1.126,0,2.252,0l.035,0" transform="translate(-334.802 -40.313)" fill="#54698d"/>
    <path id="Path_15862" data-name="Path 15862" d="M542.618,2.241c0-.395-.027-.785.007-1.17a1.224,1.224,0,0,1,1.1-1.054c.351-.026.7-.015,1.056-.017.458,0,.915,0,1.373,0a1.28,1.28,0,0,1,1.322,1.3c0,.313,0,.625,0,.944ZM545.062.476a.659.659,0,0,0-.686.633.665.665,0,0,0,1.328.043.657.657,0,0,0-.642-.676" transform="translate(-531.56 0)" fill="#54698d"/>
    <path id="Path_15863" data-name="Path 15863" d="M454.709,531.494a1.531,1.531,0,0,1-3.061-.04,1.531,1.531,0,0,1,3.061.04m-1.518.622a.626.626,0,1,0-.649-.619.634.634,0,0,0,.649.619" transform="translate(-442.453 -519.375)" fill="#54698d"/>
    <path id="Path_15864" data-name="Path 15864" d="M626.592,400.517c.688,0,1.376,0,2.063,0a.451.451,0,0,1,.431.277.444.444,0,0,1-.067.5.421.421,0,0,1-.322.166c-.3.006-.591.006-.887.006q-1.611,0-3.223,0a.507.507,0,0,1-.435-.186.444.444,0,0,1-.053-.49.451.451,0,0,1,.427-.269c.617,0,1.233,0,1.85,0h.213Z" transform="translate(-611.346 -392.498)" fill="#54698d"/>
    <path id="Path_15865" data-name="Path 15865" d="M626.669,581.574q1.032,0,2.063,0a.478.478,0,0,1,.463.364.458.458,0,0,1-.245.522.613.613,0,0,1-.253.056q-2.029.005-4.059,0a.48.48,0,0,1-.5-.373.464.464,0,0,1,.27-.525.624.624,0,0,1,.231-.045c.676,0,1.353,0,2.029,0" transform="translate(-611.422 -569.931)" fill="#54698d"/>
    <path id="Path_15866" data-name="Path 15866" d="M626.724,220.438h-2a.556.556,0,0,1-.325-.081.468.468,0,0,1-.191-.523.475.475,0,0,1,.463-.34q1.032,0,2.063,0t2.055,0a.477.477,0,0,1,.464.363.458.458,0,0,1-.251.526.64.64,0,0,1-.254.051c-.674,0-1.347,0-2.021,0Z" transform="translate(-611.477 -215.1)" fill="#54698d"/>
    <path id="Path_15867" data-name="Path 15867" d="M451.99,363.987c.136-.148.258-.3.4-.431.26-.241.524-.479.8-.7a.458.458,0,0,1,.752.31.434.434,0,0,1-.193.414,5.7,5.7,0,0,0-1.016.964c-.11.135-.213.276-.313.418a.478.478,0,0,1-.825.012c-.19-.239-.4-.463-.612-.684a.459.459,0,0,1,.631-.667c.128.114.246.24.374.366" transform="translate(-441.668 -355.484)" fill="#54698d"/>
    <path id="Path_15868" data-name="Path 15868" d="M452.01,183.053a6.986,6.986,0,0,1,.957-.952c.081-.066.163-.131.248-.192a.465.465,0,0,1,.652.085.445.445,0,0,1-.092.64,5.985,5.985,0,0,0-1.357,1.413.471.471,0,0,1-.793.006c-.189-.237-.394-.462-.6-.68a.461.461,0,1,1,.627-.674c.123.111.238.23.364.353" transform="translate(-441.682 -178.174)" fill="#54698d"/>
    <path id="Path_15869" data-name="Path 15869" d="M8.277,116v-1.278h-2.8c.017-.037.027-.061.039-.083.247-.466.491-.934.743-1.4a1.951,1.951,0,0,1,1.829-1.079h.191V108.32H3.59c.013-.034.021-.063.033-.089.284-.64.565-1.281.855-1.918a1.889,1.889,0,0,1,1.331-1.131,2.144,2.144,0,0,1,.482-.054l1.985,0v-1.278H5.959c-.165.031-.333.054-.495.1A3.229,3.229,0,0,0,3.239,105.8c-.273.6-.532,1.2-.794,1.8a.122.122,0,0,1-.134.086c-.542,0-1.085,0-1.627,0a.623.623,0,0,0-.671.487c0,.006-.008.01-.013.015v.28c.008.021.018.042.024.063a.6.6,0,0,0,.578.435c.189,0,.379,0,.569,0a.2.2,0,0,0,.045,0c-.138.154-.278.308-.413.464a3.183,3.183,0,0,0-.782,1.762.568.568,0,0,1-.019.077V114.3a.288.288,0,0,1,.02.055,1.752,1.752,0,0,0,.546,1.055.253.253,0,0,1,.088.206c0,.436-.018.875.024,1.308A1.872,1.872,0,0,0,2.5,118.56c.5.007,1,.01,1.5,0a1.895,1.895,0,0,0,1.85-1.88c0-.222,0-.444,0-.677Zm-3.105-3.619a.589.589,0,0,1-.59.419c-.668.006-1.335.007-2,0a.6.6,0,0,1-.622-.565.606.606,0,0,1,.438-.68,1.009,1.009,0,0,1,.251-.031c.315,0,.63,0,.946,0h.946a.631.631,0,0,1,.636.859" transform="translate(0 -101.766)" fill="#54698d"/>
  </g>
</svg>
