<svg xmlns="http://www.w3.org/2000/svg" xmlns:xlink="http://www.w3.org/1999/xlink" width="20" height="16" viewBox="0 0 20 16">
  <defs>
    <clipPath id="clip-path">
      <rect id="Rectangle_11878" data-name="Rectangle 11878" width="20" height="16" transform="translate(0 -0.34)" fill="#54698d"/>
    </clipPath>
  </defs>
  <g id="Group_6455" data-name="Group 6455" transform="translate(0 0.34)">
    <g id="Group_6455-2" data-name="Group 6455" clip-path="url(#clip-path)">
      <path id="Path_15857" data-name="Path 15857" d="M11.8,0c.137.024.275.042.41.074a3.066,3.066,0,0,1,2.228,1.792c.24.537.46,1.082.685,1.625a.107.107,0,0,0,.119.077c.551,0,1.1,0,1.654,0a.6.6,0,0,1,.571.886.557.557,0,0,1-.513.3c-.182.007-.365,0-.548,0h-.119a4.648,4.648,0,0,1,.872.951l-.117-.037a6.48,6.48,0,0,0-6.953,1.976.2.2,0,0,1-.178.083c-.711,0-1.422,0-2.133,0a1.888,1.888,0,0,0-1.76,1c-.243.43-.477.865-.715,1.3-.012.021-.021.043-.038.077H8.88l-.13,1.187H5.637c0,.216,0,.423,0,.629a1.692,1.692,0,0,1-.653,1.336,1.813,1.813,0,0,1-1.127.41c-.482.01-.965.008-1.448,0A1.78,1.78,0,0,1,.651,12.147c-.04-.4-.021-.809-.023-1.214a.231.231,0,0,0-.084-.191,1.609,1.609,0,0,1-.525-.98A.262.262,0,0,0,0,9.711V6.888a.511.511,0,0,0,.019-.071A2.908,2.908,0,0,1,.771,5.181c.136-.152.277-.3.415-.45,0,.021-.029.021-.06.021-.182,0-.365,0-.547,0a.576.576,0,0,1-.556-.4C.017,4.327.008,4.308,0,4.288v-.26s.011-.009.012-.014a.6.6,0,0,1,.646-.452c.522.008,1.044,0,1.565,0a.118.118,0,0,0,.129-.08c.252-.559.5-1.119.764-1.673A3.082,3.082,0,0,1,5.259.088c.156-.039.317-.06.476-.089Zm2.28,4.155c-.011-.029-.018-.055-.03-.08-.27-.585-.534-1.173-.811-1.755A1.888,1.888,0,0,0,11.417,1.19c-1.787-.009-3.575,0-5.363,0a2.136,2.136,0,0,0-.464.05A1.8,1.8,0,0,0,4.309,2.29c-.279.592-.549,1.187-.823,1.781-.011.025-.02.051-.032.083ZM3.455,7.129c-.3,0-.607,0-.91,0a1,1,0,0,0-.241.029.59.59,0,0,0,.177,1.156c.642.007,1.285.006,1.928,0a.565.565,0,0,0,.568-.389.59.59,0,0,0-.612-.8h-.91" transform="translate(0 0.001)" fill="#54698d"/>
      <path id="Path_15858" data-name="Path 15858" d="M520.736,355.495a5,5,0,1,1-4.977-4.737,4.85,4.85,0,0,1,4.977,4.737m-3.626.331c.261-.247.953-.865,1.213-1.113a.554.554,0,0,0,.019-.849.627.627,0,0,0-.9.023c-.215.2-.86.778-1.075.982-.052.049-.551.507-.8.734a.24.24,0,0,1-.322,0l-.205-.188c-.265-.275-.418-.464-.737-.81a.57.57,0,0,0-.552-.169.6.6,0,0,0-.483.414.532.532,0,0,0,.165.585c.182.174.8.93,1.291,1.511a.794.794,0,0,0,1.14.055l.006-.006,1.232-1.169" transform="translate(-500.736 -344.237)" fill="#54698d"/>
    </g>
  </g>
</svg>
