<svg id="Group_3793" data-name="Group 3793" xmlns="http://www.w3.org/2000/svg" width="19.847" height="13" viewBox="0 0 19.847 13">
  <circle id="Ellipse_150" data-name="Ellipse 150" cx="3" cy="3" r="3" transform="translate(6.924 1.2)" fill="#54698d"/>
  <path id="Path_830" data-name="Path 830" d="M5,16.5a5.015,5.015,0,0,1,5-5,4.951,4.951,0,0,1,5,5Z" transform="translate(-0.076 -3.5)" fill="#54698d"/>
  <path id="Path_831" data-name="Path 831" d="M18,6.5c-.2,3-3.3,3-3.4,3A4.946,4.946,0,0,0,13.4,4,3.022,3.022,0,0,1,15,3.5,2.888,2.888,0,0,1,18,6.5Z" transform="translate(-0.153 -3.4)" fill="#54698d"/>
  <path id="Path_832" data-name="Path 832" d="M20,15.5H16.8a7.307,7.307,0,0,0-3.1-4.8,12.289,12.289,0,0,1,1.3-.2A4.951,4.951,0,0,1,20,15.5Z" transform="translate(-0.153 -3.5)" fill="#54698d"/>
  <path id="Path_833" data-name="Path 833" d="M5.3,9.4c-.1,0-3.2,0-3.3-3a3.009,3.009,0,0,1,3-3,3.022,3.022,0,0,1,1.6.5A5.01,5.01,0,0,0,5.3,9.4Z" transform="translate(0 -3.4)" fill="#54698d"/>
  <path id="Path_834" data-name="Path 834" d="M6.3,10.6a6.989,6.989,0,0,0-3.2,4.8H0a4.951,4.951,0,0,1,5-5A8.317,8.317,0,0,0,6.3,10.6Z" transform="translate(0 -3.5)" fill="#54698d"/>
</svg>
