<svg xmlns="http://www.w3.org/2000/svg" xmlns:xlink="http://www.w3.org/1999/xlink" width="15.027" height="14.246" viewBox="0 0 15.027 14.246">
  <defs>
    <clipPath id="clip-path">
      <rect id="Rectangle_11929" data-name="Rectangle 11929" width="15.027" height="14.246" transform="translate(0 0)" fill="#54698d"/>
    </clipPath>
  </defs>
  <g id="Group_6596" data-name="Group 6596" transform="translate(0 0)">
    <g id="Group_6596-2" data-name="Group 6596" transform="translate(0 0)" clip-path="url(#clip-path)">
      <path id="Path_15961" data-name="Path 15961" d="M7.363,14.245a1.665,1.665,0,0,1-.312-.188c-.267-.253-.521-.52-.781-.781a1.752,1.752,0,0,0-1.3-.539c-1.444.006-2.888,0-4.332.011-.156,0-.213-.12-.324-.169a.961.961,0,0,1-.163-.111,2.3,2.3,0,0,1-.08-.3,2.933,2.933,0,0,1-.018-.385q0-5.509,0-11.017c0-.017,0-.035,0-.052L0,.631l.133-.3L.1.314A.467.467,0,0,0,.229.241.78.78,0,0,1,.863,0c1.666,0,3.333.008,5,0A2.984,2.984,0,0,1,7.33.394.975.975,0,0,1,7.468.5L7.52.588l.053-.05L7.722.389,7.749.362c.222-.091.441-.193.669-.267A1.614,1.614,0,0,1,8.9.009Q11.576,0,14.25.006a.731.731,0,0,1,.723.486.7.7,0,0,1,.051.254q0,5.5,0,11a.954.954,0,0,1-.168.7.759.759,0,0,1-.324.19,8.51,8.51,0,0,1-2.249.1c-.765.028-1.531.008-2.3.005a1.293,1.293,0,0,0-.892.284c-.314.275-.621.56-.913.859a.857.857,0,0,1-.62.338,1.02,1.02,0,0,0-.164.026L7.38,14.2l-.017.042m6.15-12.723a.2.2,0,0,0-.042-.012c-1.5,0-3,0-4.507,0a.689.689,0,0,0-.62.442,1.159,1.159,0,0,0-.052.577q0,4.482,0,8.963v.221c.046-.02.067-.027.085-.038A2.815,2.815,0,0,1,9.8,11.239c1.175-.015,2.35,0,3.525-.005h.188Z" transform="translate(0 0)" fill="#54698d"/>
    </g>
  </g>
</svg>
