<svg xmlns="http://www.w3.org/2000/svg" width="10.627" height="10.592" viewBox="0 0 10.627 10.592">
  <g id="icons_utility_replace" data-name="icons/utility/replace" transform="translate(-0.615 -0.615)">
    <path id="Mask" d="M4.587,8.449a.339.339,0,0,0-.331-.331H.946a.339.339,0,0,0-.331.331v2.427a.339.339,0,0,0,.331.331h3.31a.339.339,0,0,0,.331-.331ZM1.961,5.029H.88c-.221,0-.331.2-.2.309L2.447,7.169a.265.265,0,0,0,.309,0L4.521,5.338c.132-.132.022-.309-.2-.309H3.286A2.352,2.352,0,0,1,5.47,2.822V1.5A3.467,3.467,0,0,0,1.961,5.029ZM9.4,4.654a.265.265,0,0,0-.309,0L7.324,6.485c-.132.132-.022.309.2.309H8.582A2.1,2.1,0,0,1,6.353,9v1.324A3.5,3.5,0,0,0,9.906,6.794h1.081c.221,0,.331-.2.2-.309L9.4,4.654ZM11.208.946a.339.339,0,0,0-.331-.331H7.567a.339.339,0,0,0-.331.331V3.374a.339.339,0,0,0,.331.331h3.31a.339.339,0,0,0,.331-.331Z" fill="#54698d"/>
  </g>
</svg>
